<svg id="Capa_1" data-name="Capa 1" xmlns="http://www.w3.org/2000/svg" viewBox="0 0 1730 399"><defs><style>.cls-1{fill:#d4f8dc;}.cls-2{fill:#79d879;}.cls-3{fill:#5ea55e;}.cls-4{fill:#fff;opacity:0.47;}.cls-5{fill:#e8bb28;}.cls-6{fill:#bf9325;}.cls-7{fill:#ff5122;}.cls-8{fill:#db421f;}.cls-9{fill:#686663;}.cls-10{fill:#8f9099;}.cls-11{fill:#ef6a87;}.cls-12{fill:#3b3f4f;}.cls-13{font-size:96.1px;font-family:Montserrat-ExtraBold, Montserrat;font-weight:800;}</style></defs><rect class="cls-1" width="1730" height="399"/><path class="cls-2" d="M358.69,349.8c-3.78-5.78-8.78-12.59-24.15-7.56-15.1,4.95-19.89,26.16-21.38,33.66L197.94,443.56c-7.28-2.35-28.14-8.51-39.81,2.26-11.89,11-8.37,18.66-5.17,24.78s14.32,13.33,14.32,13.33,1.3,13,5.09,18.75,8.79,12.59,24.16,7.56c15.1-4.95,19.88-26.16,21.37-33.66l114.37-67.15c7.27,2.34,28.13,8.51,39.81-2.27,11.88-11,8.36-18.66,5.17-24.78s-13.9-13.58-13.9-13.58S362.48,355.57,358.69,349.8Z" transform="translate(-95 -307)"/><path class="cls-3" d="M358.68,349.81c-2.63-4-5.83-8.49-12.65-9.21a28.05,28.05,0,0,1,4.48,5.59c3.79,5.78,4.66,19,4.66,19s10.7,7.46,13.9,13.58,6.71,13.81-5.18,24.78c-11.67,10.77-32.53,4.61-39.81,2.26L209.72,473c-1.49,7.5-6.28,28.72-21.37,33.67a28,28,0,0,1-11.51,1.65c3.74,3.39,9.38,5.33,19.67,2,15.1-4.95,19.88-26.16,21.38-33.66l114.36-67.15c7.28,2.34,28.14,8.51,39.81-2.27,11.88-11,8.37-18.66,5.17-24.78s-13.9-13.58-13.9-13.58S362.46,355.58,358.68,349.81Z" transform="translate(-95 -307)"/><path class="cls-4" d="M156.68,456.9a13.88,13.88,0,0,0,1.61,10.64,10.32,10.32,0,0,0,4.21,4.1,6.29,6.29,0,0,0,5.73,0,4.54,4.54,0,0,0,2.18-5.07c-.46-1.46-1.73-2.51-2.56-3.8a7,7,0,0,1,.16-7.59c.75-1.08,1.81-1.94,2.5-3.06s.91-2.73,0-3.67a3.19,3.19,0,0,0-3.36-.4C162.4,449.74,158.16,451.51,156.68,456.9Z" transform="translate(-95 -307)"/><path class="cls-4" d="M175,486.82c-.25,3.91,2.08,8.09,5.85,9.12a4.45,4.45,0,0,0,3.31-.23,4.54,4.54,0,0,0,2-3.55,26,26,0,0,0-.17-4.22,13.27,13.27,0,0,1,2-8.22c1-1.45,2.43-3.19,1.57-4.72-.75-1.33-2.68-1.3-4.13-.84C180.16,475.83,175.34,481.2,175,486.82Z" transform="translate(-95 -307)"/><path class="cls-4" d="M320.33,369.64a5.19,5.19,0,0,0,3.09,3.83,4.84,4.84,0,0,0,5.2-2,11,11,0,0,0,1.79-5.6,35.12,35.12,0,0,1,.74-5.9c1-3.61,3.69-6.45,5.73-9.58.65-1,1.24-2.27.64-3.29s-2.3-1.11-3.57-.76C326.54,348.44,318.46,362,320.33,369.64Z" transform="translate(-95 -307)"/><path class="cls-4" d="M202.59,451.25c1.49,2,4.4,2.56,6.84,1.95a19.68,19.68,0,0,0,6.56-3.62,474.92,474.92,0,0,1,54.32-34.17,11.51,11.51,0,0,0,3.89-2.84,3.91,3.91,0,0,0,.42-4.51c-1.49-2.09-4.73-1.3-7.06-.22-12.93,6-24.71,14-36.67,21.68-6.09,3.89-12.23,7.7-18.62,11.07C209.12,442.25,198.42,445.57,202.59,451.25Z" transform="translate(-95 -307)"/><path class="cls-3" d="M209.72,473s-10.8-20.79-10.09-19.78,15.61,16.54,15.61,16.54Z" transform="translate(-95 -307)"/><path class="cls-2" d="M916.33,636.45c1.76-6.67,3.49-15-10.53-23-13.77-7.93-32.75,2.7-39.33,6.61L739.12,579.6c-3.11-7-12.48-26.61-28.3-28.09-16.1-1.5-19.47,6.26-21.88,12.73s-.33,19.56-.33,19.56-8.78,9.65-10.54,16.32-3.49,15,10.53,23c13.77,7.92,32.75-2.71,39.32-6.61l126.4,40.14c3.12,7,12.48,26.61,28.3,28.09,16.11,1.5,19.47-6.26,21.88-12.72s.81-19.42.81-19.42S914.57,643.13,916.33,636.45Z" transform="translate(-95 -307)"/><path class="cls-3" d="M916.31,636.45c1.22-4.63,2.42-10-1.61-15.57a27.88,27.88,0,0,1-1.16,7.08c-1.76,6.67-11,16.17-11,16.17s1.61,12.94-.81,19.41-5.78,14.23-21.88,12.72c-15.82-1.47-25.18-21.1-28.3-28.09L725.13,608c-6.57,3.91-25.55,14.54-39.32,6.61a27.82,27.82,0,0,1-8.93-7.45c0,5,2.31,10.54,11.7,15.94,13.77,7.92,32.75-2.71,39.32-6.61l126.4,40.14c3.12,7,12.49,26.61,28.3,28.09,16.11,1.5,19.47-6.25,21.89-12.72s.8-19.41.8-19.41S914.55,643.12,916.31,636.45Z" transform="translate(-95 -307)"/><path class="cls-4" d="M701.62,557.84a13.83,13.83,0,0,0-6.83,8.31,10.23,10.23,0,0,0-.24,5.87,6.27,6.27,0,0,0,3.84,4.26,4.53,4.53,0,0,0,5.22-1.77c.79-1.32.71-3,1.12-4.44a7,7,0,0,1,5.75-5c1.3-.17,2.65,0,3.95-.19s2.63-1.15,2.72-2.46a3.22,3.22,0,0,0-1.95-2.77C710.77,557.31,706.62,555.34,701.62,557.84Z" transform="translate(-95 -307)"/><path class="cls-4" d="M691.6,591.46c-3.07,2.42-4.62,6.95-2.86,10.45a4.42,4.42,0,0,0,2.38,2.3,4.52,4.52,0,0,0,4-.88,25.56,25.56,0,0,0,3-3,13.27,13.27,0,0,1,7.46-4c1.74-.23,4-.32,4.56-2,.49-1.45-.82-2.86-2.14-3.64C703.24,588,696,588,691.6,591.46Z" transform="translate(-95 -307)"/><path class="cls-4" d="M875.92,621.19a5.22,5.22,0,0,0-.78,4.86,4.88,4.88,0,0,0,5,2.55,11,11,0,0,0,5.36-2.42,34.68,34.68,0,0,1,4.89-3.39c3.34-1.67,7.25-1.57,10.95-2.15,1.17-.18,2.52-.6,2.88-1.72s-.72-2.46-1.83-3.16C895.84,611.63,880.32,614.72,875.92,621.19Z" transform="translate(-95 -307)"/><path class="cls-4" d="M736.52,588.21c-.51,2.46,1,5,3.12,6.38a19.64,19.64,0,0,0,7.08,2.46,475,475,0,0,1,61.72,17.55,11.62,11.62,0,0,0,4.72,1,3.91,3.91,0,0,0,3.63-2.7c.55-2.51-2.2-4.38-4.55-5.4-13.08-5.63-27-9-40.65-12.77-7-1.93-13.9-4-20.68-6.45C747.57,587,738,581.3,736.52,588.21Z" transform="translate(-95 -307)"/><path class="cls-3" d="M725.13,608s8.24-21.94,8-20.73S731.23,610,731.23,610Z" transform="translate(-95 -307)"/><path class="cls-2" d="M1760.75,458.7c2.11-6.58,4.27-14.75-9.3-23.54-13.33-8.64-32.85,1-39.62,4.52l-125-47.12c-2.75-7.14-11.06-27.23-26.78-29.54-16-2.36-19.77,5.21-22.52,11.54s-1.37,19.52-1.37,19.52-9.28,9.17-11.39,15.74-4.27,14.75,9.3,23.54c13.33,8.64,32.85-1,39.62-4.52l124.1,46.77c2.74,7.14,11.06,27.23,26.78,29.54,16,2.36,19.77-5.21,22.52-11.54s1.83-19.35,1.83-19.35S1758.64,465.27,1760.75,458.7Z" transform="translate(-95 -307)"/><path class="cls-3" d="M1760.73,458.69c1.46-4.55,3-9.87-.78-15.62a28,28,0,0,1-1.54,7c-2.11,6.57-11.86,15.56-11.86,15.56s.92,13-1.83,19.35-6.52,13.9-22.52,11.54c-15.72-2.31-24-22.4-26.78-29.54l-124.1-46.77c-6.77,3.55-26.28,13.16-39.62,4.53a28,28,0,0,1-8.52-7.92c-.28,5,1.75,10.65,10.84,16.54,13.34,8.64,32.85-1,39.62-4.53l124.1,46.77c2.74,7.14,11.06,27.24,26.78,29.55,16,2.35,19.77-5.22,22.52-11.55s1.83-19.34,1.83-19.34S1758.62,465.26,1760.73,458.69Z" transform="translate(-95 -307)"/><path class="cls-4" d="M1550.49,368.84a13.87,13.87,0,0,0-7.26,8,10.28,10.28,0,0,0-.54,5.85,6.26,6.26,0,0,0,3.61,4.45,4.53,4.53,0,0,0,5.31-1.49c.85-1.28.86-2.92,1.35-4.38a7,7,0,0,1,6-4.65c1.31-.09,2.64.19,4,0s2.7-1,2.85-2.31a3.21,3.21,0,0,0-1.8-2.87C1559.66,368.8,1555.62,366.61,1550.49,368.84Z" transform="translate(-95 -307)"/><path class="cls-4" d="M1538.71,401.89c-3.19,2.25-5,6.7-3.41,10.28a4.4,4.4,0,0,0,2.26,2.42,4.49,4.49,0,0,0,4-.66,26.16,26.16,0,0,0,3.18-2.78,13.26,13.26,0,0,1,7.66-3.6c1.76-.14,4-.11,4.66-1.75.56-1.41-.67-2.9-1.94-3.74C1550.53,399,1543.32,398.63,1538.71,401.89Z" transform="translate(-95 -307)"/><path class="cls-4" d="M1721.21,441.33a5.2,5.2,0,0,0-1,4.8,4.87,4.87,0,0,0,4.82,2.81,11.1,11.1,0,0,0,5.48-2.13,34.31,34.31,0,0,1,5.06-3.13c3.43-1.49,7.33-1.18,11-1.56,1.17-.12,2.55-.47,3-1.57s-.58-2.49-1.65-3.25C1741.6,432.83,1725.94,435.09,1721.21,441.33Z" transform="translate(-95 -307)"/><path class="cls-4" d="M1583.74,401c-.64,2.43.77,5,2.78,6.54a19.79,19.79,0,0,0,6.94,2.83,474.4,474.4,0,0,1,60.71,20.79,11.66,11.66,0,0,0,4.66,1.23,3.92,3.92,0,0,0,3.77-2.51c.68-2.47-2-4.49-4.26-5.62-12.77-6.32-26.45-10.41-39.92-14.91-6.85-2.29-13.67-4.68-20.31-7.53C1594.84,400.44,1585.54,394.2,1583.74,401Z" transform="translate(-95 -307)"/><path class="cls-3" d="M1571.32,420.21s9.39-21.47,9-20.28-3.06,22.54-3.06,22.54Z" transform="translate(-95 -307)"/><circle class="cls-5" cx="366.63" cy="606.97" r="58.63" transform="translate(-416.81 130.03) rotate(-45)"/><path class="cls-6" d="M394.22,555.05a58.64,58.64,0,0,1-72,90,58.63,58.63,0,1,0,72-90Z" transform="translate(-95 -307)"/><path class="cls-7" d="M425.08,602.86a58.6,58.6,0,0,0-27.84-46l-.69-.21s-38.43,14-63,37.08c-14.37,13.51-20.67,23.14-23.43,28.81a58.77,58.77,0,0,0,34.77,38.77c6.67-9.66,21.12-28.23,42.63-43.26C405.16,605.68,417.68,603,425.08,602.86Z" transform="translate(-95 -307)"/><path class="cls-8" d="M345,661.29c1.76-2.56,4.08-5.75,6.92-9.32-.66,0-1.32,0-2,0a58.42,58.42,0,0,1-27.59-6.89A58.81,58.81,0,0,0,345,661.29Z" transform="translate(-95 -307)"/><path class="cls-8" d="M425.17,602.88a58.6,58.6,0,0,0-27.83-46l-.7-.2-.76.28a58.4,58.4,0,0,1,12.67,36.41,59.24,59.24,0,0,1-1.63,13.8C414.76,603.91,420.84,602.94,425.17,602.88Z" transform="translate(-95 -307)"/><path class="cls-4" d="M320.11,608.75c1,5.65,3.21,11.45,7.87,14.79s12.14,3.09,15.3-1.69a12.76,12.76,0,0,0,1.8-6.78c.14-5.68-1.66-11.21-2.65-16.81s-1-11.79,2.22-16.47c1.76-2.54,4.53-4.86,4.32-7.94-.32-4.93-7.54-6.29-11.46-5.57-4.44.82-8,5.41-10.42,8.88A42.85,42.85,0,0,0,320.11,608.75Z" transform="translate(-95 -307)"/><circle class="cls-5" cx="1334.74" cy="430.09" r="58.63" transform="translate(-8.18 762.78) rotate(-45)"/><path class="cls-6" d="M1362.33,378.16a58.64,58.64,0,0,1-72,90,58.63,58.63,0,1,0,72-90Z" transform="translate(-95 -307)"/><path class="cls-7" d="M1393.19,426a58.63,58.63,0,0,0-27.83-46l-.7-.21s-38.42,14-63,37.08c-14.38,13.52-20.68,23.14-23.44,28.81A58.78,58.78,0,0,0,1313,484.43c6.66-9.67,21.11-28.24,42.62-43.27C1373.28,428.79,1385.79,426.07,1393.19,426Z" transform="translate(-95 -307)"/><path class="cls-8" d="M1313.1,484.4c1.76-2.56,4.08-5.75,6.92-9.32-.66,0-1.32,0-2,0a58.45,58.45,0,0,1-27.59-6.89A58.81,58.81,0,0,0,1313.1,484.4Z" transform="translate(-95 -307)"/><path class="cls-8" d="M1393.29,426a58.6,58.6,0,0,0-27.84-46l-.7-.21-.76.28a58.8,58.8,0,0,1,11,50.21C1382.87,427,1389,426.06,1393.29,426Z" transform="translate(-95 -307)"/><path class="cls-4" d="M1288.22,431.86c1,5.65,3.21,11.45,7.87,14.79s12.14,3.09,15.31-1.69a12.83,12.83,0,0,0,1.79-6.77c.14-5.69-1.66-11.22-2.64-16.82s-1-11.79,2.21-16.47c1.76-2.54,4.53-4.86,4.32-7.94-.32-4.93-7.53-6.29-11.45-5.57-4.45.82-8,5.41-10.43,8.88A42.91,42.91,0,0,0,1288.22,431.86Z" transform="translate(-95 -307)"/><circle class="cls-5" cx="1220.74" cy="610.09" r="58.63" transform="translate(-168.85 734.89) rotate(-45)"/><path class="cls-6" d="M1248.33,558.16a58.64,58.64,0,0,1-72,90,58.63,58.63,0,1,0,72-90Z" transform="translate(-95 -307)"/><path class="cls-7" d="M1279.19,606a58.63,58.63,0,0,0-27.83-46l-.7-.21s-38.42,14-63,37.08c-14.38,13.52-20.68,23.14-23.44,28.81A58.78,58.78,0,0,0,1199,664.43c6.66-9.67,21.11-28.24,42.62-43.27C1259.28,608.79,1271.79,606.07,1279.19,606Z" transform="translate(-95 -307)"/><path class="cls-8" d="M1199.1,664.4c1.76-2.56,4.08-5.75,6.92-9.32-.66,0-1.32,0-2,0a58.45,58.45,0,0,1-27.59-6.89A58.81,58.81,0,0,0,1199.1,664.4Z" transform="translate(-95 -307)"/><path class="cls-8" d="M1279.29,606a58.6,58.6,0,0,0-27.84-46l-.7-.21-.76.28a58.8,58.8,0,0,1,11,50.21C1268.87,607,1275,606.06,1279.29,606Z" transform="translate(-95 -307)"/><path class="cls-4" d="M1174.22,611.86c1,5.65,3.21,11.45,7.87,14.79s12.14,3.09,15.31-1.69a12.83,12.83,0,0,0,1.79-6.77c.14-5.69-1.66-11.22-2.64-16.82s-1-11.79,2.21-16.47c1.76-2.54,4.53-4.86,4.32-7.94-.32-4.93-7.53-6.29-11.45-5.57-4.45.82-8,5.41-10.43,8.88A42.91,42.91,0,0,0,1174.22,611.86Z" transform="translate(-95 -307)"/><path class="cls-9" d="M1493.66,610.94c-3.35,3.09-5.53,7.66-5,12.18.5,4,3.07,7.57,6,10.4s6.32,5.2,9.14,8.15c5.45,5.71,8.58,13.87,7.25,21.66s-13.09,18.52-15.4,16c0-1.79,1.6-3.09,2.94-4.27,6.14-5.39,10.08-14,7.78-21.86-1.85-6.34-7.19-10.9-12.07-15.34s-9.83-9.71-10.38-16.28a17.11,17.11,0,0,1,5.23-13.19,27.57,27.57,0,0,1,12.75-6.83c3.67-.94,5.76,2,2.37,3.94C1500.7,607.53,1496.9,607.94,1493.66,610.94Z" transform="translate(-95 -307)"/><path class="cls-9" d="M1628,572.14c.63-3.77-.18-8.06-3.11-10.51a9.63,9.63,0,0,0-7.36-2,14.9,14.9,0,0,0-7.08,3.12,21,21,0,0,0-7.77,12.24c-.38,1.76-.5,3.72.47,5.23a7,7,0,0,0,2.51,2.13C1615.83,588.17,1626,584.11,1628,572.14Z" transform="translate(-95 -307)"/><path class="cls-10" d="M1644.35,611.36c2.33-2.56-7.87-23.78-28.5-37.2s-65.23-17.87-83.47-10.81c-23.31,9-33.15,15.06-33.4,42.18s53.12,25.56,89.28,22.73S1635.6,621,1644.35,611.36Z" transform="translate(-95 -307)"/><path class="cls-9" d="M1563.92,599c-.72-5,3.33-9.6,7.93-11.71a21.37,21.37,0,0,1,18.72.61l-5.69,23.52-6.32-1.61a32.75,32.75,0,0,1-9.08-3.27C1566.72,604.88,1564.38,602.2,1563.92,599Z" transform="translate(-95 -307)"/><path class="cls-11" d="M1574.54,592.05A11,11,0,0,1,1581,590a16.61,16.61,0,0,1,8.41,1.23L1586,606c-1.18-.1-2.35-.24-3.52-.44a17.8,17.8,0,0,1-6-2,8.39,8.39,0,0,1-4-4.79A6.7,6.7,0,0,1,1574.54,592.05Z" transform="translate(-95 -307)"/><path class="cls-12" d="M1599.74,598.48a2.23,2.23,0,0,1,2.59,1.13,3.48,3.48,0,0,1,0,3,3.7,3.7,0,0,1-1.6,1.82,2.44,2.44,0,0,1-2.36,0c-1-.64-1.31-2.07-1.22-3.3a3.16,3.16,0,0,1,.38-1.48,2,2,0,0,1,1.82-.92Z" transform="translate(-95 -307)"/><path class="cls-9" d="M1639.85,607.07a.31.31,0,0,0,.12-.05.37.37,0,0,0,.13-.52s-.29-.48-.83-1.29a.37.37,0,0,0-.52-.1.39.39,0,0,0-.11.53c.53.78.81,1.25.81,1.25A.39.39,0,0,0,1639.85,607.07Z" transform="translate(-95 -307)"/><path class="cls-9" d="M1637.26,603.32a.33.33,0,0,0,.16-.07.38.38,0,0,0,.07-.53c-.6-.8-1.24-1.61-1.89-2.4a.38.38,0,0,0-.54-.06.39.39,0,0,0,0,.54c.65.78,1.28,1.58,1.88,2.38A.37.37,0,0,0,1637.26,603.32Zm-3.87-4.7a.34.34,0,0,0,.18-.09.38.38,0,0,0,0-.53c-.69-.76-1.39-1.51-2.11-2.23a.37.37,0,1,0-.53.53c.7.72,1.4,1.46,2.07,2.21A.38.38,0,0,0,1633.39,598.62Zm-4.28-4.33a.43.43,0,0,0,.21-.11.39.39,0,0,0,0-.54c-.76-.7-1.53-1.38-2.3-2a.38.38,0,0,0-.54,0,.39.39,0,0,0,0,.54c.76.64,1.53,1.31,2.27,2A.4.4,0,0,0,1629.11,594.29Zm-4.66-3.91a.35.35,0,0,0,.22-.14.37.37,0,0,0-.07-.53c-.82-.62-1.66-1.22-2.5-1.78a.37.37,0,0,0-.52.1.38.38,0,0,0,.1.53c.83.55,1.65,1.14,2.46,1.75A.38.38,0,0,0,1624.45,590.38Zm-5.06-3.39a.37.37,0,0,0,.12-.69c-.89-.53-1.79-1-2.69-1.48a.38.38,0,1,0-.34.68c.88.45,1.77.94,2.64,1.45A.37.37,0,0,0,1619.39,587Zm-5.42-2.76a.38.38,0,0,0,.27-.21.37.37,0,0,0-.19-.5c-.9-.42-1.82-.84-2.75-1.29a.4.4,0,0,0-.51.19.37.37,0,0,0,.18.5l2.77,1.29A.36.36,0,0,0,1614,584.23Zm-5.51-2.59a.39.39,0,0,0,.27-.2.4.4,0,0,0-.18-.51l-2.75-1.31a.38.38,0,0,0-.51.18.37.37,0,0,0,.18.5l2.75,1.31A.34.34,0,0,0,1608.46,581.64ZM1603,579a.4.4,0,0,0,.27-.21.39.39,0,0,0-.19-.5l-2.76-1.29a.37.37,0,0,0-.5.18.38.38,0,0,0,.18.51l2.76,1.28A.34.34,0,0,0,1603,579Zm-5.53-2.55a.4.4,0,0,0,.27-.21.38.38,0,0,0-.19-.5l-2.8-1.23a.37.37,0,0,0-.49.2.36.36,0,0,0,.19.49c.9.39,1.84.8,2.79,1.23A.36.36,0,0,0,1597.43,576.48Zm-5.6-2.4a.41.41,0,0,0,.28-.23.38.38,0,0,0-.21-.5c-1-.39-1.91-.77-2.83-1.13a.37.37,0,0,0-.49.22.38.38,0,0,0,.21.49c.93.35,1.87.73,2.82,1.12A.44.44,0,0,0,1591.83,574.08Zm-5.67-2.21a.37.37,0,0,0,.28-.24.39.39,0,0,0-.23-.49l-2.88-1a.38.38,0,0,0-.48.24.38.38,0,0,0,.24.48c.93.32,1.9.65,2.86,1A.5.5,0,0,0,1586.16,571.87Zm-5.77-1.94a.4.4,0,0,0,.29-.26.38.38,0,0,0-.26-.47c-1-.31-2-.59-2.93-.86a.37.37,0,0,0-.46.26.38.38,0,0,0,.26.47c1,.26,1.94.55,2.91.85A.41.41,0,0,0,1580.39,569.93Zm-5.87-1.62a.36.36,0,0,0,.29-.28.38.38,0,0,0-.28-.46c-1-.24-2-.47-3-.67a.38.38,0,0,0-.44.29.37.37,0,0,0,.29.45c1,.2,2,.43,3,.67A.43.43,0,0,0,1574.52,568.31Zm-6-1.23a.38.38,0,0,0,0-.75c-1-.17-2-.32-3-.46a.39.39,0,0,0-.43.33.38.38,0,0,0,.33.43c1,.13,2,.28,3,.45Zm-6-.8a.37.37,0,0,0,.3-.33.38.38,0,0,0-.34-.42c-1-.09-2-.16-3-.21a.38.38,0,1,0,0,.76c1,0,2,.12,3,.21Zm-50.4,9.43.08,0c.91-.39,1.85-.78,2.8-1.16a.37.37,0,0,0,.21-.49.36.36,0,0,0-.49-.21c-1,.38-1.91.77-2.82,1.16a.39.39,0,0,0-.2.5A.37.37,0,0,0,1512.13,575.71Zm44.32-9.73a.38.38,0,0,0-.07-.75c-1,0-2.05,0-3.06,0a.38.38,0,1,0,0,.76c1,0,2-.06,3,0Zm-38.66,7.48.06,0c.94-.34,1.9-.69,2.86-1a.38.38,0,0,0,.23-.48.38.38,0,0,0-.48-.24c-1,.33-1.93.67-2.88,1a.39.39,0,0,0-.22.49A.37.37,0,0,0,1517.79,573.46Zm32.58-7.26a.37.37,0,0,0,.3-.4.37.37,0,0,0-.4-.35c-1,.08-2,.16-3,.27a.38.38,0,1,0,.08.75c1-.1,2-.19,3-.26Zm-26.82,5.29h0c1-.31,1.94-.6,2.9-.89a.37.37,0,0,0,.26-.46.37.37,0,0,0-.47-.26c-1,.28-2,.58-2.92.88a.38.38,0,0,0,.19.74Zm20.76-4.67a.37.37,0,0,0,.3-.42.37.37,0,0,0-.42-.33c-1,.13-2,.28-3,.44a.38.38,0,0,0-.32.43.39.39,0,0,0,.44.32c1-.16,2-.31,3-.44Zm-14.92,3h0c1-.26,2-.51,2.94-.74a.38.38,0,0,0,.28-.46.39.39,0,0,0-.46-.28l-3,.75a.38.38,0,0,0-.27.46A.38.38,0,0,0,1529.39,569.79Zm8.91-2a.38.38,0,0,0,.3-.44.38.38,0,0,0-.44-.3l-1.52.29-1.48.31a.38.38,0,0,0-.29.45.37.37,0,0,0,.45.29l1.51-.31,1.47-.28Z" transform="translate(-95 -307)"/><path class="cls-9" d="M1508,577.62l.1,0,1.35-.65a.38.38,0,0,0,.18-.51.37.37,0,0,0-.5-.18c-.89.42-1.36.66-1.38.67a.38.38,0,0,0,.25.71Z" transform="translate(-95 -307)"/><path class="cls-12" d="M1646,605.6c1.8,2.32,2.7,5.67,1.19,8.19a7.57,7.57,0,0,1-3,2.64,14.53,14.53,0,0,1-7.52,1.68,1,1,0,0,1-.61-.17,1,1,0,0,1-.26-.42,12.33,12.33,0,0,1-.07-8.81,12.07,12.07,0,0,1,4.36-5.63C1642.53,601.49,1644.44,603.55,1646,605.6Z" transform="translate(-95 -307)"/><path class="cls-9" d="M843.85,434c-3.35,3.09-5.53,7.66-5,12.18.49,4.05,3.06,7.56,6,10.4s6.32,5.19,9.14,8.14c5.45,5.71,8.59,13.88,7.25,21.66s-13.09,18.53-15.4,16c0-1.78,1.6-3.09,2.95-4.27,6.13-5.39,10.07-14,7.78-21.86-1.86-6.33-7.2-10.89-12.08-15.33s-9.83-9.71-10.38-16.29a17.13,17.13,0,0,1,5.23-13.18,27.39,27.39,0,0,1,12.75-6.83c3.67-.94,5.76,2,2.37,3.94C850.89,430.55,847.09,431,843.85,434Z" transform="translate(-95 -307)"/><path class="cls-9" d="M978.21,395.16c.62-3.78-.19-8.06-3.12-10.52a9.62,9.62,0,0,0-7.36-1.95,15.07,15.07,0,0,0-7.08,3.11,21.07,21.07,0,0,0-7.77,12.25,7,7,0,0,0,.48,5.22,6.88,6.88,0,0,0,2.5,2.13C966,411.19,976.23,407.13,978.21,395.16Z" transform="translate(-95 -307)"/><path class="cls-10" d="M994.54,434.38c2.33-2.57-7.86-23.78-28.5-37.21s-65.22-17.86-83.47-10.8c-23.31,9-33.15,15.06-33.39,42.17s53.11,25.56,89.28,22.73S985.79,444,994.54,434.38Z" transform="translate(-95 -307)"/><path class="cls-9" d="M914.11,422c-.72-5,3.33-9.59,7.93-11.7a21.33,21.33,0,0,1,18.73.61l-5.7,23.51-6.32-1.6a32.88,32.88,0,0,1-9.08-3.28C916.91,427.9,914.57,425.22,914.11,422Z" transform="translate(-95 -307)"/><path class="cls-11" d="M924.73,415.07a11.06,11.06,0,0,1,6.42-2.11,16.71,16.71,0,0,1,8.41,1.23L936.19,429q-1.77-.15-3.51-.45a17.86,17.86,0,0,1-6-2,8.38,8.38,0,0,1-4-4.8A6.69,6.69,0,0,1,924.73,415.07Z" transform="translate(-95 -307)"/><path class="cls-12" d="M949.93,421.5a2.23,2.23,0,0,1,2.6,1.13,3.49,3.49,0,0,1,0,3,3.65,3.65,0,0,1-1.6,1.82,2.44,2.44,0,0,1-2.36,0,3.46,3.46,0,0,1-1.22-3.29,3.13,3.13,0,0,1,.38-1.48,2,2,0,0,1,1.83-.93Z" transform="translate(-95 -307)"/><path class="cls-9" d="M990,430.08a.28.28,0,0,0,.12,0,.38.38,0,0,0,.13-.52s-.28-.48-.83-1.29a.38.38,0,0,0-.63.42c.53.79.81,1.25.81,1.26A.37.37,0,0,0,990,430.08Z" transform="translate(-95 -307)"/><path class="cls-9" d="M987.46,426.33l.15-.06a.37.37,0,0,0,.07-.53c-.6-.81-1.24-1.62-1.89-2.41a.39.39,0,0,0-.54-.05.38.38,0,0,0,0,.53c.65.79,1.28,1.59,1.88,2.38A.38.38,0,0,0,987.46,426.33Zm-3.88-4.69a.31.31,0,0,0,.18-.09.38.38,0,0,0,0-.54c-.69-.75-1.39-1.5-2.1-2.22a.39.39,0,0,0-.54,0,.38.38,0,0,0,0,.54c.7.71,1.4,1.45,2.07,2.2A.41.41,0,0,0,983.58,421.64Zm-4.28-4.33a.45.45,0,0,0,.21-.12.38.38,0,0,0,0-.53c-.76-.7-1.53-1.38-2.3-2a.38.38,0,0,0-.53.05.37.37,0,0,0,0,.53c.76.64,1.53,1.31,2.27,2A.39.39,0,0,0,979.3,417.31Zm-4.66-3.91a.39.39,0,0,0,.23-.15.38.38,0,0,0-.08-.53c-.82-.62-1.66-1.21-2.49-1.77a.38.38,0,0,0-.53.1.37.37,0,0,0,.1.52c.83.56,1.66,1.15,2.47,1.76A.37.37,0,0,0,974.64,413.4ZM969.58,410a.37.37,0,0,0,.26-.18.39.39,0,0,0-.14-.52c-.88-.52-1.79-1-2.69-1.47a.38.38,0,1,0-.34.67c.88.45,1.77.94,2.65,1.45A.34.34,0,0,0,969.58,410Zm-5.42-2.76a.38.38,0,0,0,.09-.72c-.91-.41-1.83-.84-2.76-1.28a.38.38,0,0,0-.51.18.39.39,0,0,0,.18.51l2.77,1.28A.38.38,0,0,0,964.16,407.25Zm-5.51-2.59a.4.4,0,0,0,.27-.21.37.37,0,0,0-.18-.5L956,402.64a.39.39,0,0,0-.51.17.38.38,0,0,0,.18.51l2.75,1.31A.34.34,0,0,0,958.65,404.66Zm-5.5-2.61a.43.43,0,0,0,.27-.21.38.38,0,0,0-.18-.51L950.47,400a.39.39,0,0,0-.5.19.38.38,0,0,0,.19.5l2.75,1.29A.5.5,0,0,0,953.15,402.05Zm-5.53-2.55a.37.37,0,0,0,.27-.22.39.39,0,0,0-.19-.5l-2.79-1.23a.38.38,0,0,0-.5.2.37.37,0,0,0,.2.5l2.78,1.22A.36.36,0,0,0,947.62,399.5Zm-5.6-2.41a.36.36,0,0,0,.28-.23.37.37,0,0,0-.21-.49c-1-.39-1.9-.78-2.83-1.13a.38.38,0,0,0-.49.21.37.37,0,0,0,.22.49l2.82,1.13A.31.31,0,0,0,942,397.09Zm-5.67-2.2a.41.41,0,0,0,.28-.25.38.38,0,0,0-.23-.48l-2.88-1a.38.38,0,0,0-.48.24.39.39,0,0,0,.24.48c.94.31,1.9.65,2.86,1A.38.38,0,0,0,936.35,394.89Zm-5.77-1.95a.38.38,0,0,0,.29-.26.38.38,0,0,0-.25-.47c-1-.3-2-.59-2.94-.86a.38.38,0,0,0-.46.27.37.37,0,0,0,.26.46c1,.27,1.94.55,2.91.86A.41.41,0,0,0,930.58,392.94Zm-5.87-1.61A.38.38,0,0,0,925,391a.37.37,0,0,0-.27-.45c-1-.25-2-.47-3-.68a.37.37,0,0,0-.44.3.38.38,0,0,0,.29.45c1,.2,2,.42,3,.66A.29.29,0,0,0,924.71,391.33Zm-6-1.24a.38.38,0,0,0,.3-.31.37.37,0,0,0-.31-.43c-1-.18-2-.33-3-.46a.38.38,0,1,0-.1.75c1,.13,2,.28,3,.45A.33.33,0,0,0,918.75,390.09Zm-6-.79a.38.38,0,0,0,0-.75c-1-.09-2-.17-3-.22a.38.38,0,0,0,0,.76c1,.05,2,.12,3,.21Zm-50.4,9.43.08,0c.91-.39,1.85-.78,2.8-1.16a.39.39,0,0,0,.22-.5.4.4,0,0,0-.5-.21c-1,.38-1.91.78-2.82,1.17a.38.38,0,0,0-.2.5A.39.39,0,0,0,862.32,398.73ZM906.64,389a.39.39,0,0,0,.31-.37.38.38,0,0,0-.38-.38c-1,0-2.05,0-3.06.05a.38.38,0,0,0,0,.75c1,0,2-.05,3,0ZM868,396.48l.06,0c.94-.35,1.9-.69,2.86-1a.38.38,0,0,0,.23-.48.37.37,0,0,0-.48-.23c-1,.32-1.93.67-2.88,1a.39.39,0,0,0-.22.49A.4.4,0,0,0,868,396.48Zm32.58-7.26a.38.38,0,0,0,.3-.4.37.37,0,0,0-.4-.35c-1,.07-2,.16-3.05.26a.38.38,0,0,0-.33.42.37.37,0,0,0,.41.34c1-.11,2-.19,3-.27Zm-26.82,5.28h0c1-.3,1.94-.6,2.9-.88a.37.37,0,0,0,.26-.47.39.39,0,0,0-.47-.26c-1,.29-2,.58-2.92.89a.39.39,0,0,0-.25.48A.38.38,0,0,0,873.74,394.5Zm20.76-4.67a.38.38,0,0,0,.31-.42.38.38,0,0,0-.43-.32c-1,.13-2,.28-3,.44a.37.37,0,0,0-.32.43.38.38,0,0,0,.44.31c1-.16,2-.3,3-.43Zm-14.91,3h0c1-.26,2-.51,2.94-.74a.38.38,0,0,0-.17-.74c-1,.23-2,.48-3,.74a.38.38,0,0,0-.26.47A.38.38,0,0,0,879.59,392.8Zm8.9-2a.38.38,0,0,0-.14-.74l-1.51.29-1.49.3a.39.39,0,0,0-.29.45.38.38,0,0,0,.45.3c.5-.11,1-.22,1.51-.32l1.47-.28Z" transform="translate(-95 -307)"/><path class="cls-9" d="M858.19,400.63a.29.29,0,0,0,.1,0s.48-.25,1.35-.66a.38.38,0,0,0-.32-.68c-.89.41-1.35.66-1.37.67a.38.38,0,0,0-.17.51A.37.37,0,0,0,858.19,400.63Z" transform="translate(-95 -307)"/><path class="cls-12" d="M996.22,428.62c1.8,2.31,2.7,5.67,1.19,8.18a7.53,7.53,0,0,1-3,2.64,14.59,14.59,0,0,1-7.53,1.69,1,1,0,0,1-.61-.17,1,1,0,0,1-.26-.43,12.3,12.3,0,0,1-.07-8.8,12.07,12.07,0,0,1,4.36-5.63C992.72,424.5,994.63,426.57,996.22,428.62Z" transform="translate(-95 -307)"/><path class="cls-9" d="M549.83,488c3.35,3.09,5.53,7.66,5,12.18-.49,4.05-3.06,7.56-6,10.4s-6.32,5.19-9.14,8.14c-5.45,5.71-8.59,13.88-7.25,21.66s13.09,18.53,15.4,16c0-1.78-1.6-3.09-2.94-4.27-6.14-5.39-10.08-14-7.78-21.86,1.85-6.33,7.19-10.89,12.07-15.33s9.83-9.71,10.38-16.29a17.1,17.1,0,0,0-5.23-13.18,27.39,27.39,0,0,0-12.75-6.83c-3.67-.94-5.76,2-2.37,3.94C542.79,484.55,546.59,485,549.83,488Z" transform="translate(-95 -307)"/><path class="cls-9" d="M415.47,449.16c-.62-3.78.19-8.06,3.12-10.52a9.62,9.62,0,0,1,7.36-1.95A15,15,0,0,1,433,439.8a21.07,21.07,0,0,1,7.77,12.25c.38,1.75.5,3.71-.48,5.22a6.8,6.8,0,0,1-2.5,2.13C427.66,465.19,417.45,461.13,415.47,449.16Z" transform="translate(-95 -307)"/><path class="cls-10" d="M399.14,488.38c-2.33-2.57,7.87-23.78,28.5-37.21s65.23-17.86,83.47-10.8c23.31,9,33.15,15.06,33.39,42.17s-53.11,25.56-89.28,22.73S407.89,498,399.14,488.38Z" transform="translate(-95 -307)"/><path class="cls-9" d="M479.57,476c.72-5-3.33-9.59-7.93-11.7a21.3,21.3,0,0,0-18.72.61l5.69,23.51,6.32-1.6a32.88,32.88,0,0,0,9.08-3.28C476.77,481.9,479.11,479.22,479.57,476Z" transform="translate(-95 -307)"/><path class="cls-11" d="M469,469.07a11,11,0,0,0-6.42-2.11,16.71,16.71,0,0,0-8.41,1.23L457.49,483q1.77-.15,3.51-.45a18,18,0,0,0,6.05-2,8.41,8.41,0,0,0,4-4.8A6.69,6.69,0,0,0,469,469.07Z" transform="translate(-95 -307)"/><path class="cls-12" d="M443.75,475.5a2.22,2.22,0,0,0-2.59,1.13,3.46,3.46,0,0,0,0,3,3.65,3.65,0,0,0,1.6,1.82,2.44,2.44,0,0,0,2.36,0,3.46,3.46,0,0,0,1.22-3.29,3.13,3.13,0,0,0-.38-1.48,2,2,0,0,0-1.83-.93Z" transform="translate(-95 -307)"/><path class="cls-9" d="M403.64,484.08a.28.28,0,0,1-.12,0,.38.38,0,0,1-.13-.52s.29-.48.83-1.29a.38.38,0,0,1,.63.42c-.53.79-.81,1.25-.81,1.26A.37.37,0,0,1,403.64,484.08Z" transform="translate(-95 -307)"/><path class="cls-9" d="M406.23,480.33a.44.44,0,0,1-.16-.06.37.37,0,0,1-.07-.53c.6-.81,1.24-1.62,1.89-2.41a.39.39,0,0,1,.54-.05.38.38,0,0,1,.05.53c-.65.79-1.28,1.59-1.88,2.38A.37.37,0,0,1,406.23,480.33Zm3.87-4.69a.34.34,0,0,1-.18-.09.39.39,0,0,1,0-.54c.69-.75,1.39-1.5,2.1-2.22a.39.39,0,0,1,.54,0,.38.38,0,0,1,0,.54c-.7.71-1.4,1.45-2.07,2.2A.41.41,0,0,1,410.1,475.64Zm4.28-4.33a.45.45,0,0,1-.21-.12.38.38,0,0,1,0-.53c.76-.7,1.53-1.38,2.3-2a.39.39,0,0,1,.54.05.38.38,0,0,1,0,.53c-.76.64-1.53,1.31-2.27,2A.38.38,0,0,1,414.38,471.31ZM419,467.4a.39.39,0,0,1-.23-.15.38.38,0,0,1,.08-.53c.82-.62,1.66-1.21,2.5-1.77a.37.37,0,0,1,.42.62c-.83.56-1.65,1.15-2.46,1.76A.38.38,0,0,1,419,467.4ZM424.1,464a.35.35,0,0,1-.25-.18.38.38,0,0,1,.13-.52c.89-.52,1.79-1,2.69-1.47a.38.38,0,1,1,.34.67c-.88.45-1.77.94-2.65,1.45A.34.34,0,0,1,424.1,464Zm5.42-2.76a.38.38,0,0,1-.08-.72l2.75-1.28a.38.38,0,0,1,.33.69c-.94.44-1.86.87-2.77,1.28A.37.37,0,0,1,429.52,461.25Zm5.51-2.59a.4.4,0,0,1-.27-.21.37.37,0,0,1,.18-.5l2.75-1.31a.39.39,0,0,1,.51.17.38.38,0,0,1-.18.51l-2.75,1.31A.34.34,0,0,1,435,458.66Zm5.5-2.61a.43.43,0,0,1-.27-.21.39.39,0,0,1,.18-.51l2.77-1.29a.39.39,0,0,1,.5.19.38.38,0,0,1-.19.5L440.77,456A.5.5,0,0,1,440.53,456.05Zm5.53-2.55a.37.37,0,0,1-.27-.22.39.39,0,0,1,.19-.5l2.8-1.23a.38.38,0,0,1,.3.7l-2.79,1.22A.36.36,0,0,1,446.06,453.5Zm5.6-2.41a.36.36,0,0,1-.28-.23.37.37,0,0,1,.21-.49c1-.39,1.9-.78,2.83-1.13a.38.38,0,0,1,.49.21.37.37,0,0,1-.22.49l-2.82,1.13A.31.31,0,0,1,451.66,451.09Zm5.67-2.2a.41.41,0,0,1-.28-.25.38.38,0,0,1,.23-.48l2.88-1a.38.38,0,0,1,.48.24.39.39,0,0,1-.24.48c-.94.31-1.9.65-2.86,1A.38.38,0,0,1,457.33,448.89Zm5.77-1.95a.38.38,0,0,1-.29-.26.38.38,0,0,1,.25-.47c1-.3,2-.59,2.94-.86a.38.38,0,0,1,.46.27.37.37,0,0,1-.26.46c-1,.27-1.94.55-2.91.86A.41.41,0,0,1,463.1,446.94Zm5.87-1.61a.38.38,0,0,1-.29-.29.37.37,0,0,1,.27-.45c1-.25,2-.47,3-.68a.37.37,0,0,1,.44.3.38.38,0,0,1-.29.45c-1,.2-2,.42-3,.66A.29.29,0,0,1,469,445.33Zm6-1.24a.38.38,0,0,1-.3-.31.37.37,0,0,1,.31-.43c1-.18,2-.33,3-.46a.38.38,0,0,1,.43.33.38.38,0,0,1-.33.42c-1,.13-2,.28-3,.45A.33.33,0,0,1,474.93,444.09Zm6-.79a.38.38,0,0,1-.3-.34.37.37,0,0,1,.34-.41c1-.09,2.05-.17,3.05-.22a.38.38,0,1,1,0,.76c-1,.05-2,.12-3,.21Zm50.4,9.43-.08,0c-.91-.39-1.85-.78-2.8-1.16a.38.38,0,0,1,.28-.71c1,.38,1.91.78,2.82,1.17a.38.38,0,0,1,.2.5A.39.39,0,0,1,531.36,452.73ZM487,443a.41.41,0,0,1-.31-.37.38.38,0,0,1,.38-.38c1,0,2.05,0,3.06.05a.38.38,0,1,1,0,.75c-1,0-2-.05-3,0Zm38.66,7.48-.06,0c-.94-.35-1.9-.69-2.86-1a.38.38,0,0,1-.23-.48.37.37,0,0,1,.48-.23c1,.32,1.93.67,2.88,1a.39.39,0,0,1,.22.49A.4.4,0,0,1,525.7,450.48Zm-32.58-7.26a.38.38,0,0,1-.3-.4.37.37,0,0,1,.4-.35c1,.07,2,.16,3,.26a.38.38,0,0,1-.08.76c-1-.11-2-.19-3-.27Zm26.82,5.28h0c-1-.3-1.94-.6-2.9-.88a.38.38,0,0,1-.26-.47.39.39,0,0,1,.47-.26c1,.29,1.95.58,2.92.89a.39.39,0,0,1,.25.48A.38.38,0,0,1,519.94,448.5Zm-20.76-4.67a.38.38,0,0,1,.12-.74c1,.13,2,.28,3,.44a.37.37,0,0,1,.32.43.38.38,0,0,1-.44.31c-1-.16-2-.3-3-.43Zm14.92,3h0c-1-.26-2-.51-2.94-.74a.39.39,0,0,1-.28-.46.38.38,0,0,1,.46-.28c1,.23,2,.48,3,.74a.4.4,0,0,1,.27.47A.39.39,0,0,1,514.1,446.8Zm-8.91-2a.38.38,0,0,1-.3-.44.37.37,0,0,1,.44-.3l1.52.29,1.48.3a.39.39,0,0,1,.29.45.37.37,0,0,1-.45.3c-.5-.11-1-.22-1.51-.32l-1.47-.28Z" transform="translate(-95 -307)"/><path class="cls-9" d="M535.49,454.63a.29.29,0,0,1-.1,0s-.48-.25-1.35-.66a.38.38,0,0,1,.32-.68c.89.41,1.36.66,1.37.67a.38.38,0,0,1,.17.51A.37.37,0,0,1,535.49,454.63Z" transform="translate(-95 -307)"/><path class="cls-12" d="M397.46,482.62c-1.8,2.31-2.7,5.67-1.19,8.18a7.53,7.53,0,0,0,3,2.64,14.59,14.59,0,0,0,7.53,1.69,1,1,0,0,0,.61-.17,1,1,0,0,0,.26-.43,12.3,12.3,0,0,0,.07-8.8,12.07,12.07,0,0,0-4.36-5.63C401,478.5,399.05,480.57,397.46,482.62Z" transform="translate(-95 -307)"/><text class="cls-13" transform="translate(600.49 243.96)">JUGUETES</text></svg>