<?xml version="1.0" encoding="utf-8"?>
<!-- Generator: Adobe Illustrator 25.4.1, SVG Export Plug-In . SVG Version: 6.00 Build 0)  -->
<svg version="1.1" id="Capa_1" xmlns="http://www.w3.org/2000/svg" xmlns:xlink="http://www.w3.org/1999/xlink" x="0px" y="0px"
	 viewBox="0 0 394.8 369.4" style="enable-background:new 0 0 394.8 369.4;" xml:space="preserve">
<style type="text/css">
	.st0{fill:none;stroke:#FFFFFF;stroke-width:2;stroke-miterlimit:10;}
	.st1{fill:#D1FABC;}
	.st2{fill:#60D394;}
	.st3{opacity:0.75;fill:none;stroke:#FFFFFF;stroke-miterlimit:10;enable-background:new    ;}
	.st4{fill:#EE6055;}
	.st5{fill:#FF9B85;}
	.st6{fill:url(#Trazado_115_00000128476441717430114620000013237364895530390408_);}
	.st7{fill:#19034D;}
	.st8{fill:#FF735F;}
	.st9{fill:#F5BA00;}
	.st10{fill:#DB6352;}
	.st11{fill:none;stroke:#19034D;stroke-miterlimit:10;}
	.st12{fill:url(#Trazado_133_00000052098076480302274040000002869942505208647591_);}
	.st13{fill:url(#Trazado_134_00000101083280487247708700000003785346744375670963_);}
	.st14{fill:url(#Trazado_137_00000030459800518052381260000006555382624616786108_);}
	.st15{fill:url(#Trazado_140_00000134937184003671769790000000006744742288400813_);}
	.st16{fill:#FFFFFF;}
	.st17{opacity:0.49;fill:url(#Trazado_154_00000010993613655383798450000005175697294048486799_);enable-background:new    ;}
	.st18{fill:#BF0A40;}
	.st19{clip-path:url(#SVGID_00000173873903812392814060000008974788927520375724_);}
	.st20{fill:#228F4E;}
	.st21{fill:none;stroke:#5EEA9D;stroke-width:2;stroke-miterlimit:10;}
	.st22{fill:#CA705C;}
	.st23{fill:none;stroke:#AAF683;stroke-width:2;stroke-miterlimit:10;}
	.st24{fill:none;stroke:#60D394;stroke-width:2;stroke-miterlimit:10;}
</style>
<g id="OBJEKTS_00000124147902927244035400000002386909687238621108_" transform="translate(-0.013 -0.375)">
	<path id="Trazado_108" class="st0" d="M66,160.7h75.3c12.8,0,23.1,10.3,23.1,23.1v31H66c-12.8,0-23.1-10.3-23.1-23.1c0,0,0,0,0,0
		v-7.9C42.9,171,53.3,160.7,66,160.7C66,160.7,66,160.7,66,160.7z"/>
	<path id="Trazado_109" class="st1" d="M267.3,355.6c27.7-9.8,54.5-26.5,72-50.8c21.4-29.8,19.6-63.5,24-98.3
		c1.8-14.1,11.2-22.3,16.9-34.8c11.9-26.4,7.7-66.2-17.3-84.2c-15.4-11.1-30.3-12.3-38.5-31.5c-4.6-10.6-7.3-22.4-14.4-31.5
		c-10.3-13.2-27.8-18.4-44.4-21c-19.3-3-38.1-2.4-57.4-2.9C187.7,0,166.8,0.5,146.8,6c-27.1,7.4-57,26.9-61.7,56.4
		c-2,12.7,0.6,26.2-4.2,38.1c-7.2,17.9-26.6,24-40.9,34.6c-15.4,11.4-25.5,29.1-29.9,47.5c-7.5,31.4-2,66.3,12.6,94.8
		c15.6,30.5,41,56.5,71.9,71.8c24.1,12,57.5,15.5,84.7,17.2C209.1,368.3,239.3,365.5,267.3,355.6z"/>
	<path id="Trazado_110" class="st2" d="M338.2,233c-0.2-44.9-12.6-88-49.1-116.9C244,80.4,181,80.8,135,114.1
		c-30.1,21.8-51.2,54.5-63.1,89.8S57,276.8,58.2,313.9l274.3,0.9l3.4-37.8C337.2,262.5,338.3,247.7,338.2,233z"/>
	<path id="Trazado_111" class="st3" d="M81.1,155.6h75.3c12.8,0,23.1,10.3,23.1,23.1v31H81.1c-12.8,0-23.1-10.3-23.1-23.1
		c0,0,0,0,0,0v-7.9C58,166,68.3,155.6,81.1,155.6C81.1,155.6,81.1,155.6,81.1,155.6z"/>
	<path id="Trazado_112" class="st3" d="M143.2,48.9h105.2c16.9,0,30.6,13.7,30.6,30.6c0,0,0,0,0,0v41H143.2
		c-16.9,0-30.6-13.7-30.6-30.6c0,0,0,0,0,0V79.5C112.6,62.6,126.3,48.9,143.2,48.9z"/>
	<path id="Trazado_113" class="st4" d="M104.9,306.8c-0.4-0.3-0.8-0.6-1.2-0.9c-1.4-1.1-1.7-3.1-1.9-4.9
		c-1.8-22.1,1.5-44.4,0.5-66.5c-0.3-5.3-4.5-2.7-8-2c-0.5,0.1-7.4,1.4-7.3,0.6c-0.6,6.3-1.4,13.1-5.6,17.8c-2.9,3.3-7,5.2-10.6,7.6
		c-13.6,9.3-21.6,27.1-23.5,43.1c0-0.4-0.1-0.7-0.1-1.1c-0.3-3.2-0.5-6.4-0.6-9.6c-0.3-6.7-0.4-13.5-0.3-20.2
		c0.1-5,0.7-10.5-2.3-14.9c-2.6-3.7-5.4-4-9.1-4.3c-1-2-0.8-5.9-0.8-7.7c0-2.9,0.5-6.1,2.6-8.3c3.4-3.6,8.8-1.4,13.1-2.5
		c9.9-2.5,6.3-15.1,5.7-22.3c-0.4-4.5-7.4-4.5-7,0c0.3,3.6,1,7.4,1,11.1c0,2.3,0,3.9-2.5,4.6c-1.1,0.2-2.3,0.2-3.4,0
		c-5.1,0-9.5,1.1-12.8,5.3c-3.5,4.5-4.1,10.3-3.5,15.9c0.4,4.2,0.6,10,5.7,10.9c4.7,0.8,6.2,1.8,6.3,6.9c0.1,3.4-0.2,6.8-0.2,10.3
		c0,7.7,0.2,15.4,0.8,23.1c0.3,4.4-0.4,12.4,3.3,15.7c1.6,1.5,4,1.8,5.9,0.8c5.8,0.3,19.7-0.5,21.2-0.5h17.9c3,0,8.3,1,11.1-0.5
		c1.5-0.8,4.3-2.3,5.4-3.6C105.7,309.5,105.8,307.9,104.9,306.8z"/>
	<path id="Trazado_114" class="st5" d="M102.5,240.9c0-1.8,0-3.6-0.1-5.4c0-0.3,0-0.7-0.1-1c-0.1-0.4-0.2-0.7-0.3-1.1
		c-1.3-2.5-5.9-0.3-7.7,0.6c-2,1-3.9,2.2-5.6,3.6c-1.1,0.7-2.1,1.7-2.8,2.9c-0.6,1.3-0.3,3.3-0.1,4.7c0,1,0.3,2.1,0.9,2.9
		c0.6,0.9,1.8,1.2,2.8,0.7c0.1,1.1,0.4,2.2,0.9,3.2c0.4,0.8,1.2,1.3,2,1.5c0.6,0.2,0.5,0.1,0.7,0.7v0.1c0.1,0.5,0.3,0.9,0.5,1.3v0.1
		c0.1,0.3,0.3,0.6,0.6,0.8c0.1,0.1,0.3,0.2,0.5,0.3l0,0c0.3,0.2,0.7,0.3,1.1,0.4c1,0.2,2.1-0.3,2.7-1.1c0.5-1,0.6-2.1,0.4-3.2
		c0.8,0,1.5-0.5,1.8-1.3c0.3-0.9,0.4-1.9,0.3-2.8c0-1.1,0-2.2-0.1-3.2C103,245.7,102.5,242.4,102.5,240.9z"/>
	
		<linearGradient id="Trazado_115_00000126289233432972344800000002818832692532743349_" gradientUnits="userSpaceOnUse" x1="-759.9401" y1="729.1229" x2="-759.2673" y2="729.2873" gradientTransform="matrix(48.5787 0 0 -91.1437 36985.6289 66756.3125)">
		<stop  offset="0" style="stop-color:#19034D;stop-opacity:0.91"/>
		<stop  offset="0.56" style="stop-color:#311573;stop-opacity:0"/>
	</linearGradient>
	<path id="Trazado_115" style="fill:url(#Trazado_115_00000126289233432972344800000002818832692532743349_);" d="M79.3,276.9
		c3.7,2.2,5.8,6.3,5.5,10.6c-0.4,4.3-3.9,7.8-7,10.5c-3.2,2.7-7,5.4-9.2,9.2c2.2-0.3,4.4-0.4,6.6-0.5c1.9-0.1,4,0.1,5.2,1.6
		s0.5,3.8,0.8,5.8c0.2,0.1,0.5,0.1,0.7-0.1c0.2,0.5,0.1,0.5,0.6,0.5c1.8-0.3,3.3-1.4,4-3c0.7-1.6,1.1-3.3,1.3-5.1
		c0.8-6.3,1.1-12.6,0.7-18.9c0-2-0.5-4-1.4-5.8C85.4,278.7,82.7,276.6,79.3,276.9z"/>
	<path id="Trazado_116" class="st4" d="M70.5,218.5c-0.1-0.3-0.2-0.6-0.3-0.9c0,0.2,0.8,0.5,1,0.5l1.1,0.6c0.7,0.4,1.4,0.8,2.1,1.2
		c0.7,0.4,1.4,0.8,2.1,1.3c0.3,0.2,0.5,0.4,0.8,0.3c0.5-0.1,1-0.3,1.5-0.6l1.8-0.7l3.6-1.4c2.4-0.9,4.8-1.9,7.2-2.9
		c0.9-0.4,3-0.9,3.3-1.9c0.1-0.4,0.2-0.7,0.2-1.1c0.1-1.9,0.5-5.6,0.5-5.6s1.4,1.2,1.7,1.5c0.5,0.6,1,1.3,1.5,1.9
		c1,1.3,1.8,2.7,2.6,4.1c1.7,3,3.1,6.1,4.2,9.4c0.9,2.6,1.4,5.2-0.4,7.5c-1.6,2.2-4.2,3.6-6.5,4.8c-4.8,2.5-9.9,5.2-15.4,5.8
		c-1.4,0.2-2.8,0-4-0.5c-1.2-0.7-2.2-1.8-2.8-3.1C73.1,232.3,72.4,225.3,70.5,218.5z"/>
	<path id="Trazado_117" class="st7" d="M97.4,232.4c-1.6-0.5-3.3-0.6-4.9-1.1c0.1-0.2,0.2-0.3,0.3-0.5c0.2-0.4,0.5-0.9,0.7-1.3
		c0.1-0.2,0-0.6-0.2-0.7c0,0-0.1,0-0.1,0c-0.5-0.2-1.4,0.3-1.9,0.5c-0.8,0.3-1.5,0.6-2.2,1c-0.2,0.1-0.3,0.5-0.2,0.7
		c0.1,0.1,0.2,0.2,0.3,0.2l2,0.6c-0.7,1.7-1.3,3.4-1.8,5.2c-0.1,0.3,0.1,0.6,0.4,0.6c0.3,0.1,0.5-0.1,0.6-0.4c0.5-1.7,1-3.4,1.7-5
		c1.6,0.5,3.3,0.6,5,1.1C97.7,233.5,98,232.6,97.4,232.4z"/>
	<path id="Trazado_118" class="st7" d="M83.6,228.1c-0.2-0.1-0.4-0.1-0.6,0c-0.1,0-0.3,0.1-0.4,0.2c-0.1,0.1-0.2,0.3-0.2,0.4
		c0,0.1-0.1,0.2-0.1,0.2c0,0.1,0,0.3,0.1,0.4c0.2,0.5,0.7,0.7,1.2,0.5c0.2-0.1,0.4-0.2,0.5-0.4c0.3-0.4,0.1-1-0.3-1.3
		C83.7,228.2,83.6,228.2,83.6,228.1L83.6,228.1z"/>
	<path id="Trazado_119" class="st7" d="M98.7,222.1c-0.2-0.1-0.4-0.1-0.6,0c-0.1,0-0.3,0.1-0.4,0.2c-0.1,0.1-0.2,0.3-0.2,0.4
		c0,0.1-0.1,0.2-0.1,0.2c0,0.1,0,0.3,0.1,0.4c0.2,0.5,0.7,0.7,1.2,0.5c0.2-0.1,0.4-0.2,0.5-0.4c0.3-0.4,0.1-1-0.3-1.3
		C98.8,222.2,98.7,222.1,98.7,222.1L98.7,222.1z"/>
	<path id="Trazado_120" class="st3" d="M276.9,127.1h46.9c13.5,0,24.5,11,24.5,24.5l0,0l0,0c0,13.5-11,24.5-24.5,24.5h-71.4v-24.5
		C252.4,138.1,263.4,127.1,276.9,127.1L276.9,127.1z"/>
	<path id="Trazado_121" class="st8" d="M124.6,287.3c-1.9,6.6-3.6,14.1,0.3,19.8c4.7,6.8,15.4,6.7,22.1,2
		c6.8-4.7,10.4-12.6,13.5-20.3c5.2-12.8,9.9-26,11.7-39.8c1.1-8,0.1-18-7.2-21.5c-11.2-5.4-20.8,3.2-24.4,12.7
		C134.7,255.7,129.3,271.4,124.6,287.3z"/>
	<path id="Trazado_122" class="st9" d="M158.7,204.5c-2.9,3.1-5.5,6.4-7.7,10c-3.2,4.9-5.3,10.2-7.8,15.4c-0.9,1.8-8.2,17.8-6.5,19
		c9.2,6.6,18.2,13.7,28.7,17.7c0.4,0.1-1.7,7.8-1.8,8.6c-0.7,2.9-1.4,5.7-1.9,8.6c-1.2,5.7-2.1,11.5-3.1,17.3
		c-0.6,3.2-1.1,6.4-1.6,9.6c-0.2,1.4,45.4,4.5,49.5,4.5c12.1,0.2,31.1,3.6,38.4-8.8c1.6-3,2.8-6.2,3.4-9.6c4.5-19.4,6.5-39.3,6-59.3
		c0-4.7-0.5-9.3-1.5-13.9c-1.7-6.6-5.1-12.5-8.7-18.2c-3.3-5.2-8.5-8-14.1-10.7c-16.6-7.9-36.6-10.5-53.5-3.1
		C169.7,194.7,163.7,199.1,158.7,204.5z"/>
	<path id="Trazado_123" class="st8" d="M234.6,251.4c-0.5,1.1-0.9,2.1-1.4,3.2c-1.8,4-6.2,11.1-6.2,15.5c-2,6.4-3,13.3-1.8,20
		c0.5,2.7,1.3,5.3,2.2,7.8c1,3.3,2.4,6.4,4.4,9.2c1.8,2.5,6.2,6.3,9.6,5s6.2-7.8,7.6-11.1c8-18.9,11.2-39.7,13.2-60.1
		c0.7-3.6-0.5-7.3-3.2-9.8c-1.8-2.2-3.8-4.5-6.6-5c-2.8-0.5-5.4,0.9-7.2,2.9c-1.7,2.1-3.1,4.5-4,7L234.6,251.4z"/>
	<path id="Trazado_124" class="st9" d="M249.2,249.3c-1.6-0.4-23.2-5.7-23.3-3c0.2-11.8,0.8-23.5,1.9-35.2c0.2-3.7,0.9-7.4,2.2-11
		c1.4-3.5,4-6.6,7.5-8c2.6-0.9,5.5-1,8.2-0.3c8.7,2,15.5,8.7,17.8,17.3c0.8,3.7,1.1,7.4,0.9,11.1c-0.1,11.1-0.9,22.1-1.6,33.2
		C258.2,253.3,253.6,250.6,249.2,249.3z"/>
	<path id="Trazado_125" class="st10" d="M260.2,189.7c0.3,1,0.5,2,0.6,3.1c0.5,7-4.2,12.9-8.8,17.7c-1.8,1.9-4.4,3.2-6,5.1
		c-1.9,2.2-1.8,5.9-5,6.9c-2.2,0.5-4.3-0.8-4.9-2.9c-0.2-0.9-0.1-1.8,0.3-2.7c0.6-2.1,1.4-4.1,2.5-6c0.9-1.4,2.7-2.3,4.1-3
		c2.8-1.7,4.8-4.6,5.3-7.9c0.9-5.9,0-12.6,2.1-18.3c0.3-1,0.9-1.9,1.6-2.6c0.8-0.7,1.9-1,2.9-0.7c1.4,0.5,2,2.2,2.5,3.6
		C258.1,184.5,259.4,187,260.2,189.7z"/>
	<path id="Trazado_126" class="st10" d="M252.4,264.3c0.7,12.7,0.5,25.6-2.9,37.9c-1,3.7-2.7,8.9-6.3,11c-4,2.3-10.3,0.4-14.1-1.7
		c-2.5-1.3-4.7-3.2-6.4-5.5c-2.5-3.7-2.6-8.5-2.3-13c0.8-12.1,3.7-23.2,6-35c2.5-12.8,5.5-25.4,8.9-38c1.4-5.4,3.3-9.4,7.8-12.8
		c3.2-2.4,8.6-5.6,8.9,0.7C253,226.7,251.4,245.4,252.4,264.3z"/>
	<path id="Trazado_127" class="st8" d="M201.7,200c-0.4,0.7-0.7,1.4-0.9,2.1c-0.2,1-0.2,2,0,3c0.9,7.3,2.5,14.6,10.3,16.9
		c5.5,1.6,11.4,1,16.4-1.7c1.6-0.8,3-1.8,4.2-3.1c1.3-1.3,2-2.9,2.1-4.7c5.3,1.2,10.7-4.2,13.5-8c6.3-8.9,8.4-20,7.4-30.7
		c-0.2-2.6-0.6-5.4-2.2-7.5c-1.2-1.4-2.6-2.6-4.2-3.5c-7.2-4.6-14.9-4.9-22.8-1.2c-7.2,3.3-12.2,10.4-15.5,17.3
		c-1.4,2.9-1.7,6.7-2.8,9.8c-1.3,3.6-3,7.1-5,10.4L201.7,200z"/>
	<path id="Trazado_128" class="st7" d="M211.7,162.8c1.5-3.6,3.9-6.7,7-9c5.4-3.8,13.3-3.1,19.4-1.7c3.5,0.8,7,2.3,10.7,2.3
		c3.3,0,6.7-3.3,9.9-2.2c1.4,0.5,2.5,1.7,2.9,3.2c0.5,2.4-1,4.7-2.1,6.9c-0.8,1.8-1.8,3.5-2.9,5.1c-1.6,2.1-3.9,3.6-6.6,4
		c-0.9,0.1-1.7,0-2.6-0.1c-5.2-0.5-9.6-2-13.5,2.1c-2.7,2.8-4,6.6-6,9.9c-0.4,0.8-1.1,1.5-1.8,2.1c-1.1,0.5-2.3,0.8-3.6,0.9
		c-5.2,1.2-8.5,9.8-14,8c-4.7-1.6-3.6-5.8-1.8-9.2c2.3-4.2,1.9-9.3,2.6-14C209.7,168.2,210.5,165.4,211.7,162.8L211.7,162.8z"/>
	<path id="Trazado_129" class="st8" d="M213,182.8c-1.2,1.6-1.9,3.5-2.2,5.5c-0.4,1.6-0.4,3.4,0,5c0.5,1.7,1.8,3,3.5,3.4
		c1.4,0.2,2.7-0.3,3.7-1.2c2.4-2.1,5.2-8.5,4.5-11.8C221.5,178.9,215.4,179.7,213,182.8z"/>
	<path id="Trazado_130" class="st11" d="M217.8,184.5c-1.3,0.5-2.4,1.6-3,2.9c-0.5,1.3-0.9,2.7-1.1,4.1"/>
	<path id="Trazado_131" class="st7" d="M251.9,185.5c0.1,0.6-0.2,1.3-0.9,1.4c-0.6,0.1-1.3-0.2-1.4-0.9c-0.1-0.6,0.2-1.3,0.9-1.4
		C251.1,184.4,251.7,184.8,251.9,185.5z"/>
	<path id="Trazado_132" class="st7" d="M238.7,186.5c0.1,0.6-0.3,1.2-1,1.3c-0.6,0.1-1.2-0.3-1.3-1c-0.1-0.6,0.3-1.2,1-1.3
		c0.3,0,0.6,0,0.8,0.2C238.4,185.9,238.6,186.2,238.7,186.5z"/>
	
		<linearGradient id="Trazado_133_00000079486161864561843960000013123118011627038593_" gradientUnits="userSpaceOnUse" x1="-763.4335" y1="729.6815" x2="-763.2506" y2="730.093" gradientTransform="matrix(78.054 0 0 -75.6326 59813.8164 55504.6328)">
		<stop  offset="0" style="stop-color:#201B59;stop-opacity:0.91"/>
		<stop  offset="0.56" style="stop-color:#FFCC00;stop-opacity:0"/>
	</linearGradient>
	<path id="Trazado_133" style="fill:url(#Trazado_133_00000079486161864561843960000013123118011627038593_);" d="M221.6,283.1
		c-0.5,3.3-0.9,6.6-1.1,9.9c-0.3,4.5-0.2,9.3,2.3,13c1.7,2.3,3.9,4.2,6.4,5.5c3.7,2.1,10,4,14.1,1.7c3.6-2.1,5.3-7.3,6.3-11
		c1.7-6.2,2.7-12.6,3-19.1L221.6,283.1z"/>
	
		<linearGradient id="Trazado_134_00000005259178492892416820000006898756977728091303_" gradientUnits="userSpaceOnUse" x1="-762.4944" y1="728.7796" x2="-762.2085" y2="728.6016" gradientTransform="matrix(59.4285 0 0 -91.855 45478.2227 67202.8281)">
		<stop  offset="0" style="stop-color:#201B59;stop-opacity:0.91"/>
		<stop  offset="0.56" style="stop-color:#FFCC00;stop-opacity:0"/>
	</linearGradient>
	<path id="Trazado_134" style="fill:url(#Trazado_134_00000005259178492892416820000006898756977728091303_);" d="M185.5,263.6
		L180,248c0.1,0.4-1,2.1-1.2,2.5c-0.4,0.9-0.8,1.8-1.2,2.7c-0.8,1.9-1.7,3.7-2.6,5.6c-1.5,3.6-3.3,7-5.2,10.4
		c-1.6-0.5-3.1-1.3-4.4-2.4c-0.5,3.2-1.5,6.1-2.2,9.3c-0.3,1.6-0.6,3.3-0.9,4.9c-0.2,0.8-0.3,1.7-0.5,2.5c-0.1,0.3-0.2,2.1-0.5,2.3
		c8.6-5,16.4-11.2,23.3-18.4c0.6-0.5,1-1.2,1.2-2C185.9,264.8,185.8,264.2,185.5,263.6L185.5,263.6z"/>
	<path id="Trazado_135" class="st7" d="M252.7,179.1c-1.6-0.2-3.3,0.2-4.6,1.1c-0.7,0.4-0.9,1.2-0.6,1.9c0.4,0.7,1.2,0.9,1.9,0.6
		c0.9-0.6,2-0.9,3.1-0.7c0.8,0,1.4-0.7,1.4-1.5C253.9,179.8,253.4,179.2,252.7,179.1z"/>
	<path id="Trazado_136" class="st7" d="M241.3,181.3c-2-0.9-4.1-0.5-6.1,0c-1.5,0.4-1.2,2.9,0.4,2.5s3.2-0.9,4.8-0.2
		C241.9,184.3,242.7,182,241.3,181.3z"/>
	
		<linearGradient id="Trazado_137_00000012450514143219467600000003301782668624844173_" gradientUnits="userSpaceOnUse" x1="-766.1116" y1="732.0132" x2="-766.5533" y2="731.583" gradientTransform="matrix(26.579 0 0 -31.99 20597.0703 23621.6602)">
		<stop  offset="0.27" style="stop-color:#201B59;stop-opacity:0.91"/>
		<stop  offset="0.56" style="stop-color:#FF735F;stop-opacity:0"/>
	</linearGradient>
	<path id="Trazado_137" style="fill:url(#Trazado_137_00000012450514143219467600000003301782668624844173_);" d="M223.5,208.1
		c-0.1,2.6-0.2,5.3-0.3,7.9c0,1.4-0.1,2.7-0.1,4.1c0,0.3-0.1,0.7-0.1,1.2c1.6-0.3,3.2-0.8,4.8-1.4c2.2-0.8,4.1-2.4,5.3-4.5
		c0.4-0.9,0.7-1.7,0.9-2.7C230.4,212.1,226.3,210.7,223.5,208.1z"/>
	<path id="Trazado_138" class="st8" d="M196,314.6c13.6,1.6,28.6,3.4,41.7-0.5c-2-3.1-4.4-6-7-8.6c-2.6-2.6-6-4.4-9.7-5
		c-1.9-0.2-3.9-0.1-5.8,0.2c-3.4,0.4-7.8,2.2-11.1,1.9c-2.8-0.2-6.5-2.7-9.2-3.7c-18.2-7.2-39.8-17-59.7-11.8
		c-10,2.7-16.1,11.1-9.2,20.5c3.9,5.3,10.1,4.3,16.3,4.4c16.5,0.3,33.1,0.1,49.5,2L196,314.6z"/>
	<path id="Trazado_139" class="st7" d="M237,202l-1-0.3c0.4-1.8,1.2-3.5,2.3-5c1.1-1.6,2.9-2.6,4.8-2.9c0.6-0.1,1.2,0,1.7,0.1
		c1.1,0.4,2.1,1.3,2.5,2.4l-0.9,0.4c-0.4-0.9-1.1-1.5-1.9-1.9c-0.4-0.1-0.9-0.2-1.3-0.1c-1.6,0.2-3.1,1.2-4.1,2.5
		C238.1,198.7,237.4,200.3,237,202z"/>
	
		<linearGradient id="Trazado_140_00000043443734907596457260000005785185082756194493_" gradientUnits="userSpaceOnUse" x1="-761.9766" y1="734.0219" x2="-762.2142" y2="734.5546" gradientTransform="matrix(36.793 0 0 -33.309 28194.5801 24743.7051)">
		<stop  offset="0.27" style="stop-color:#201B59;stop-opacity:0.91"/>
		<stop  offset="0.56" style="stop-color:#FF735F;stop-opacity:0"/>
	</linearGradient>
	<path id="Trazado_140" style="fill:url(#Trazado_140_00000043443734907596457260000005785185082756194493_);" d="M161.8,281.1
		c-0.1-0.2-0.3-0.5-0.4-0.7c-0.9-1.6-1.8-3.1-2.7-4.8c-1.2,1.3-2.5,2.4-4,3.5c-1.9,1.3-3.6,2.8-5.2,4.5c-1,1-1.9,2.1-2.9,3.1
		c0.3,0.6,0.5,1.1,0.7,1.7c0.1,0.3,0.3,0.6,0.4,0.9c0.6-0.2,1.3-0.4,1.9-0.6c3.2-0.9,7.5-2.2,11.1-1.7c0.2-2,1-3.8,1.1-5.8
		C161.8,281.2,161.8,281.2,161.8,281.1L161.8,281.1z"/>
	<path id="Trazado_141" class="st10" d="M241,206c-0.7,0-1.3,0.4-1.7,0.9c-0.1,0.3-0.1,0.6,0.1,0.8c0,0.2,0.2,0.4,0.4,0.4
		c0.7,0.1,1.4-0.1,1.8-0.7c0.3-0.3,0.3-0.8,0-1.1C241.4,206.1,241.2,206,241,206L241,206z"/>
	<path id="Trazado_142" class="st10" d="M242,178.3c-0.7-0.3-1.5-0.5-2.3-0.6c-0.6-0.1-0.6,0.9,0,1c0.7,0.1,1.4,0.3,2,0.5
		C242.4,179.5,242.6,178.6,242,178.3z"/>
	<path id="Trazado_143" class="st10" d="M248.3,176.9l-1.6,0.5c-0.3,0.1-0.4,0.4-0.3,0.7c0.1,0.2,0.3,0.4,0.6,0.3l1.6-0.5
		c0.3-0.1,0.4-0.4,0.3-0.7C248.8,177,248.5,176.8,248.3,176.9z"/>
	<path id="Trazado_144" class="st4" d="M133.2,36.9h105.2c16.9,0,30.6,13.7,30.6,30.6v41H133.2c-16.9,0-30.6-13.7-30.6-30.6
		c0,0,0,0,0,0V67.4C102.6,50.5,116.3,36.8,133.2,36.9z"/>
	<path id="Trazado_145" class="st16" d="M163.2,79.4h-3.1v5.4h-7.4v-5.4h-11.1v-5.5l11.5-16.9h7v16.8h3.1V79.4z M152.7,73.8v-3.2
		c0-0.6,0-1.4,0.1-2.5c0-0.5,0-1.1,0.1-1.6h-0.2c-0.4,0.9-0.9,1.9-1.5,2.7l-3.1,4.6L152.7,73.8z"/>
	<path id="Trazado_146" class="st16" d="M193,70.9c0,4.9-0.8,8.5-2.5,10.8c-1.7,2.3-4.2,3.4-7.6,3.4c-3,0.2-5.8-1.2-7.5-3.6
		c-1.7-2.4-2.5-6-2.5-10.7c0-5,0.8-8.6,2.5-10.9c1.7-2.3,4.2-3.5,7.6-3.5c3-0.2,5.8,1.2,7.5,3.6C192.2,62.6,193.1,66.1,193,70.9z
		 M180.4,70.9c-0.1,2.2,0.1,4.4,0.6,6.5c0.4,1.2,1.1,1.8,2,1.8c1,0,1.6-0.6,2-1.8c0.5-2.1,0.7-4.3,0.6-6.4c0.1-2.2-0.1-4.4-0.6-6.5
		c-0.4-1.2-1-1.9-2-1.9s-1.6,0.6-2,1.8C180.5,66.5,180.3,68.7,180.4,70.9L180.4,70.9z"/>
	<path id="Trazado_147" class="st16" d="M224.5,79.4h-3.1v5.4H214v-5.4H203v-5.5l11.6-16.9h7v16.8h3.1L224.5,79.4z M214,73.8v-3.2
		c0-0.6,0-1.4,0.1-2.5c0.1-1,0.1-1.6,0.1-1.6H214c-0.4,1-0.9,1.9-1.5,2.7l-3.1,4.6L214,73.8z"/>
	<path id="Trazado_148" class="st16" d="M93.2,125.5h75.3c12.8,0,23.1,10.3,23.1,23.1l0,0v31H93.2c-12.8,0-23.1-10.3-23.1-23.1
		c0,0,0,0,0,0v-7.9C70.1,135.9,80.4,125.5,93.2,125.5C93.2,125.5,93.2,125.5,93.2,125.5z"/>
	<path id="Trazado_149" class="st8" d="M108.3,158.5c-1.4,0.1-2.8-0.4-3.9-1.4c-1-1.1-1.5-2.5-1.4-3.9c-0.1-1.5,0.4-2.9,1.3-4
		c0.9-1,2.3-1.5,3.6-1.4c1.3-0.1,2.5,0.4,3.4,1.2c0.9,0.9,1.3,2.2,1.2,3.5v1.4h-6.7c0,0.7,0.2,1.4,0.7,1.9c0.5,0.5,1.2,0.7,1.9,0.7
		c0.6,0,1.2-0.1,1.8-0.2c0.6-0.1,1.2-0.3,1.7-0.6v2.2c-0.5,0.3-1,0.4-1.6,0.6C109.7,158.4,109,158.5,108.3,158.5L108.3,158.5z
		 M107.9,149.7c-0.5,0-1.1,0.2-1.4,0.6c-0.4,0.5-0.6,1-0.6,1.6h4c0-0.6-0.2-1.2-0.5-1.6C109,149.9,108.5,149.7,107.9,149.7
		L107.9,149.7z"/>
	<path id="Trazado_150" class="st8" d="M122.6,147.7c0.3,0,0.6,0,1,0.1l-0.2,2.7c-0.3-0.1-0.6-0.1-0.8-0.1c-0.8,0-1.5,0.2-2.1,0.7
		c-0.5,0.5-0.8,1.2-0.8,1.9v5.3h-2.8V148h2.2l0.4,1.7h0.1c0.3-0.6,0.8-1,1.3-1.4C121.3,147.9,121.9,147.7,122.6,147.7L122.6,147.7z"
		/>
	<path id="Trazado_151" class="st8" d="M133.1,147.7c0.3,0,0.7,0,1,0.1l-0.2,2.7c-0.3-0.1-0.6-0.1-0.8-0.1c-0.8,0-1.5,0.2-2.1,0.7
		c-0.5,0.5-0.8,1.2-0.8,1.9v5.3h-2.8V148h2.1l0.4,1.7h0.1c0.3-0.6,0.8-1,1.3-1.4C131.9,148,132.5,147.8,133.1,147.7z"/>
	<path id="Trazado_152" class="st8" d="M147.2,153.1c0.1,1.4-0.4,2.9-1.3,4c-1,1-2.3,1.5-3.7,1.4c-0.9,0-1.8-0.2-2.6-0.7
		c-0.8-0.4-1.4-1.1-1.8-1.9c-0.4-0.9-0.6-1.9-0.6-2.9c-0.1-1.4,0.4-2.9,1.3-3.9c1-1,2.3-1.5,3.7-1.4c0.9,0,1.8,0.2,2.6,0.6
		c0.8,0.4,1.4,1.1,1.7,1.9C147.1,151.1,147.3,152.1,147.2,153.1L147.2,153.1z M140.1,153.1c-0.1,0.8,0.1,1.6,0.5,2.3
		c0.4,0.5,1,0.8,1.6,0.8c0.6,0.1,1.3-0.2,1.6-0.8c0.4-0.7,0.5-1.5,0.5-2.3c0.1-0.8-0.1-1.6-0.5-2.3c-0.8-0.9-2.1-1-3-0.3
		c-0.1,0.1-0.2,0.2-0.3,0.3C140.2,151.5,140,152.3,140.1,153.1L140.1,153.1z"/>
	<path id="Trazado_153" class="st8" d="M157.3,147.7c0.3,0,0.6,0,1,0.1l-0.2,2.7c-0.3-0.1-0.6-0.1-0.8-0.1c-0.8,0-1.5,0.2-2.1,0.7
		c-0.5,0.5-0.8,1.2-0.8,1.9v5.3h-2.8V148h2.1l0.4,1.7h0.1c0.3-0.6,0.8-1,1.3-1.4C156,147.9,156.6,147.7,157.3,147.7L157.3,147.7z"/>
	
		<linearGradient id="Trazado_154_00000154393541160968757900000012791655209383721135_" gradientUnits="userSpaceOnUse" x1="-762.1687" y1="726.5094" x2="-762.5173" y2="726.778" gradientTransform="matrix(215.0365 0 0 -303.6497 164181.8281 220854.8438)">
		<stop  offset="0" style="stop-color:#FFFFFF"/>
		<stop  offset="0.55" style="stop-color:#FFFFFF;stop-opacity:0.302"/>
	</linearGradient>
	
		<path id="Trazado_154" style="opacity:0.49;fill:url(#Trazado_154_00000154393541160968757900000012791655209383721135_);enable-background:new    ;" d="
		M304.5,290.2l-26-97.1c-3.7-13.7-15.9-23.2-30-23.6l0,0c-26.8-0.6-42.3,30.3-25.7,51.4c27.2,34.7,57.3,73.7,57.3,73.7L304.5,290.2z
		"/>
	<path id="Trazado_155" class="st5" d="M289.5,115h52.7c10.5,0,19,8.5,19,19v6.5c0,10.5-8.5,19-19,19h-71.6V134
		C270.5,123.5,279,115,289.5,115C289.5,115,289.5,115,289.5,115z"/>
	<circle id="Elipse_9" class="st16" cx="302.4" cy="137.2" r="2.3"/>
	<path id="Trazado_156" class="st16" d="M318.2,137.2c0,1.3-1.1,2.3-2.3,2.3s-2.3-1.1-2.3-2.3c0-1.3,1.1-2.3,2.3-2.3
		c0.6,0,1.2,0.2,1.6,0.7C317.9,136,318.2,136.6,318.2,137.2z"/>
	<circle id="Elipse_10" class="st16" cx="329.2" cy="137.2" r="2.3"/>
	<path id="Trazado_157" class="st18" d="M135.5,301.6c-1.3,0-2.6-0.1-3.9-0.4l0.4-2.1c4.4,0.9,11.6,0,13.6-4.2
		c0.6-1.3,0.6-2.8,0-4.1c-0.6-1.3-1.8-2.2-3.1-2.6c-2.7-0.8-6.3,0.1-8.6,1.4l-1.1-1.9c2.5-1.4,6.7-2.7,10.3-1.6
		c1.9,0.6,3.5,1.9,4.4,3.7c0.9,1.9,0.9,4.1,0,6C145.5,300,140.1,301.6,135.5,301.6z"/>
	<path id="Trazado_158" class="st18" d="M104.1,280.8h35V295c0,7.6-6.2,13.8-13.8,13.8h-7.5c-7.6,0-13.8-6.2-13.8-13.8V280.8z"/>
	<path id="Trazado_159" class="st16" d="M148.7,310.9H94.9c-0.9,0-1.6-0.7-1.6-1.6l0,0c0-0.9,0.7-1.6,1.6-1.6h53.8
		c0.9,0,1.6,0.7,1.6,1.6c0,0,0,0,0,0l0,0C150.4,310.2,149.6,310.9,148.7,310.9z"/>
	<g>
		<defs>
			<path id="SVGID_1_" d="M351.8,274.8c0.3-1.9,0.9-3.7,2.5-4.6c2.2-1.3,5.1-0.2,7.6-0.7c7.1-1.3,7-11.3,6.9-16.7
				c-0.1-3.5-0.3-6.9-0.5-10.4c0-0.9-0.2-1.8-0.6-2.7c-1-1.4-2.8-1.9-4.4-1.4c-3.1,0.9-4.9,4.2-5.4,7.4c-0.6,3.2-0.3,6.5-1.1,9.6
				c-0.1,0.6-0.4,1.2-0.7,1.7c-0.4,0.6-0.9,1-1.6,1.3c-0.9,0.5-2,0.5-2.9,0c-1-0.6-0.8-1.4-0.8-2.4c0-1.2-0.1-2.3-0.3-3.5
				c-0.3-2.6-0.6-5.2-0.8-7.8c-0.5-5.1-0.9-10.3-1.4-15.4c-0.1-2.4-0.7-4.7-1.7-6.9c-5.1-9.1-12.8-1.1-13.6,5.6
				c-1.6,15.2,6.3,29.5,5.6,44.5c0,0.6-0.1,1.3-0.4,1.9c-1.2,2.4-5,2-6.7,0.6c-2.8-2.1-1.8-6.8-1.8-9.6c0-2.3-0.7-4.9-2.9-5.9
				c-2.5-1.2-5.8,0.2-7.2,2.5c-1.8,2.9-1.6,7.8-1.4,11.1c0.1,2.4,0.8,4.6,2.1,6.6c1.4,2.1,3.7,3.4,6.2,3.6c1.5,0.1,3.1-0.2,4.3,0.7
				c1.4,1.1,0.9,3,0.9,4.7c0.1,3.3,2.9,6,6.1,7.4c3.2,1.4,6.9,1.6,10.4,1.8c3-4.8,3.2-10.4,3.4-15.8
				C351.5,279.6,351.6,277.2,351.8,274.8z"/>
		</defs>
		<clipPath id="SVGID_00000041256373200809359640000008395743072968505270_">
			<use xlink:href="#SVGID_1_"  style="overflow:visible;"/>
		</clipPath>
		
			<g id="Grupo_11" transform="translate(772.817 529.704)" style="clip-path:url(#SVGID_00000041256373200809359640000008395743072968505270_);">
			<path id="Trazado_160" class="st20" d="M-421-254.9c0.3-1.9,0.9-3.7,2.5-4.6c2.2-1.3,5.1-0.2,7.6-0.7c7.1-1.3,7-11.3,6.9-16.7
				c-0.1-3.5-0.3-6.9-0.5-10.4c0-0.9-0.2-1.8-0.6-2.7c-1-1.4-2.8-1.9-4.4-1.4c-3.1,0.9-4.9,4.2-5.4,7.4c-0.6,3.2-0.3,6.5-1.1,9.6
				c-0.1,0.6-0.4,1.2-0.7,1.7c-0.4,0.6-0.9,1-1.6,1.3c-0.9,0.5-2,0.5-2.9,0c-1-0.6-0.8-1.4-0.8-2.4c0-1.2-0.1-2.3-0.3-3.5
				c-0.3-2.6-0.6-5.2-0.8-7.8c-0.5-5.1-0.9-10.3-1.4-15.4c-0.1-2.4-0.7-4.7-1.7-6.9c-5.1-9.1-12.8-1.1-13.6,5.6
				c-1.6,15.2,6.3,29.5,5.6,44.5c0,0.6-0.1,1.3-0.4,1.9c-1.2,2.4-5,2-6.7,0.6c-2.8-2.1-1.8-6.8-1.8-9.6c0-2.3-0.7-4.9-2.9-5.9
				c-2.5-1.2-5.8,0.2-7.2,2.5c-1.8,2.9-1.6,7.8-1.4,11.1c0.1,2.4,0.8,4.6,2.1,6.6c1.4,2.1,3.7,3.4,6.2,3.6c1.5,0.1,3.1-0.2,4.3,0.7
				c1.4,1.1,0.9,3,0.9,4.7c0.1,3.3,2.9,6,6.1,7.4c3.2,1.4,6.9,1.6,10.4,1.8c3-4.8,3.2-10.4,3.4-15.8
				C-421.3-250.1-421.2-252.5-421-254.9z"/>
			<path id="Trazado_161" class="st11" d="M-430.6-310.9c3.6,25.1,6.8,50.7,2.3,75.8"/>
			<path id="Trazado_162" class="st11" d="M-434.1-311c-1,4.7-2,9.4-2,14.2c0.1,9.1,3.9,17.8,5.4,26.8c1.7,10,0.4,20.3-0.8,30.4"/>
			<path id="Trazado_163" class="st11" d="M-426.2-266.6c4.4-0.6,9.6-1.3,12.4-4.8c0.4-0.5,0.7-1,0.9-1.6c0.7-2.4,0.4-5.1,0.4-7.5
				c0-2.4,0-6.5,0-9.5"/>
			<path id="Trazado_164" class="st11" d="M-430.2-250c-3.9,0.6-8.3,1.2-11.7-0.7c-2-1.2-3.5-3.1-4.2-5.3c-0.7-2.1-1-4.4-0.9-6.6
				c0-2.4,0.2-4.9,0.6-7.3"/>
			<path id="Trazado_165" class="st11" d="M-426.2-262.6c5-0.7,9.9-2,14.6-3.8c1-0.3,1.9-0.8,2.7-1.5c0.7-0.8,1.2-1.8,1.4-2.8
				c0.7-2.3,1-17.8,0.2-21.6"/>
		</g>
	</g>
	<path id="Trazado_167" class="st9" d="M328,289.4l29.5-0.6l-3,21.9l-22.5,0L328,289.4z"/>
	<path id="Rectángulo_6" class="st16" d="M194.7,306.3H322c0.6,0,1,0.5,1,1v3.8c0,0.6-0.5,1-1,1H194.7c-0.6,0-1-0.5-1-1v-3.8
		C193.7,306.7,194.1,306.3,194.7,306.3z"/>
	<path id="Trazado_168" class="st16" d="M323.4,312.2H212.9l9.6-63.5c0.3-2.2,2.2-3.8,4.4-3.8h101.8c2.4,0,4.3,2,4.3,4.4
		c0,0.2,0,0.4-0.1,0.7L323.4,312.2z"/>
	<circle id="Elipse_11" class="st21" cx="278.2" cy="274" r="5.3"/>
	<path id="Trazado_169" class="st0" d="M283.7,239.9c-0.7-2.9-1-5.9-1-8.9c0-2.9,0.5-5,2.4-7.2c1.4-1.7,3-3.2,4.7-4.6
		c4.4-3.7,6-9.8,4-15.2"/>
	<path id="Trazado_170" class="st0" d="M293,231.3c-0.6-2.5,0.8-5,2.5-6.9s3.9-3.4,5.4-5.4c3.3-4.4,3.1-8.6,2.5-16.8
		c-0.4-5.8-0.3-12.3,3.9-16.4"/>
	<path id="Rectángulo_7" class="st22" d="M37.3,310h324.4c0.7,0,1.2,0.6,1.2,1.2v4.6c0,0.7-0.6,1.2-1.2,1.2H37.3
		c-0.7,0-1.2-0.6-1.2-1.2v-4.6C36.1,310.5,36.6,310,37.3,310z"/>
	<path id="Trazado_171" class="st23" d="M392.9,127.6c2.5,15.7,3.5,32.6-3.7,46.9c-4,7.9-10.4,14.5-14,22.7
		c-3.8,8.7-5.2,17.8-6.1,27.2"/>
	<path id="Trazado_172" class="st23" d="M67.7,101.2c-10,12.1-24.9,19-37,29.1C11,147.1-0.2,171.7,0.1,197.6"/>
	<path id="Trazado_173" class="st23" d="M287.6,0.6C304.2,6,317.7,18,325,33.8"/>
	<path id="Trazado_174" class="st23" d="M59,336.6c22.4,19.5,50.6,31.2,80.2,33.2"/>
	<path id="Trazado_175" class="st24" d="M279.4,342.4c5.4-2.4,10.6-5.1,15.8-8"/>
	<path id="Trazado_176" class="st24" d="M206.1,357.2c21.4-0.9,39.9-2,62.9-11.1"/>
</g>
</svg>
