<svg id="Capa_1" data-name="Capa 1" xmlns="http://www.w3.org/2000/svg" viewBox="0 0 1730 399"><defs><style>.cls-1{fill:#ffcaca;}.cls-2{fill:#ef6a87;}.cls-3{fill:#545972;}.cls-4{fill:#ed8ea3;}.cls-5{fill:#3b3f4f;}.cls-6{fill:#69718e;}.cls-7{fill:#4d5466;}.cls-8{fill:#ff5122;}.cls-10,.cls-22,.cls-25,.cls-28,.cls-9{fill:#fff;}.cls-10{opacity:0.47;}.cls-11{fill:#f2c07e;}.cls-12{fill:#e5ac77;}.cls-13{fill:#db421f;}.cls-14{fill:#aa2e1a;}.cls-15{fill:#c4351e;}.cls-16{fill:#876548;}.cls-17{fill:#c49269;}.cls-18{fill:#e5b57a;}.cls-19{fill:#aa7d5c;}.cls-20{fill:#404456;}.cls-21{fill:#e8bb28;}.cls-22{opacity:0.61;}.cls-23{fill:#d1a426;}.cls-24{fill:#686663;}.cls-25{opacity:0.14;}.cls-26{fill:#474644;}.cls-27{fill:#76858c;}.cls-28{opacity:0.31;}.cls-29{font-size:96.1px;font-family:Montserrat-ExtraBold, Montserrat;font-weight:800;}.cls-30{letter-spacing:-0.01em;}.cls-31{letter-spacing:-0.01em;}</style></defs><rect class="cls-1" width="1730" height="399"/><path class="cls-2" d="M1588,574.76a5,5,0,0,0-.89,2.65,5.75,5.75,0,0,0,.29,2.67,3.63,3.63,0,0,0,1.77,2,5.64,5.64,0,0,0,1.58.4,4.13,4.13,0,0,0,1.75,0,3.59,3.59,0,0,0,1.55-1.07,6.69,6.69,0,0,0,1.71-2.88,3.61,3.61,0,0,0-.65-3.2c-.87-1-3.58-1.35-4.84-1.51A2.85,2.85,0,0,0,1588,574.76Z" transform="translate(-95 -323.75)"/><path class="cls-3" d="M1647.31,593.27s.48-8.42-.28-11.66-1.9-4.71-6.3-4.87-14.44.35-14.44.35l.06,2.17s12.73-.72,14.18.2,1.21,2.41,1.53,4.44-.17,9.72-.17,9.72Z" transform="translate(-95 -323.75)"/><path class="cls-4" d="M1558,592.76h109.06s17,0,24.32,19.41c4.3,11.39,12.83,72.24,12.83,72.24H1587.55Z" transform="translate(-95 -323.75)"/><path class="cls-3" d="M1519.51,684.41s3.61-59.78,6.55-70.09c7.07-24.81,56.15-32.26,62.59-.43,6.35,31.37,8.58,70.52,8.58,70.52Z" transform="translate(-95 -323.75)"/><path class="cls-2" d="M1516.61,684.41s3.6-59.79,6.54-70.1c7.08-24.81,56.16-32.26,62.59-.43,6.35,31.37,8.58,70.53,8.58,70.53Z" transform="translate(-95 -323.75)"/><path class="cls-3" d="M1531.56,656.34h46.74s-.74-27.76-5.62-34.63c-6.8-9.55-26.33-10.54-34-2.65S1531.56,656.34,1531.56,656.34Z" transform="translate(-95 -323.75)"/><path class="cls-5" d="M1578.56,657.29h-46.75a1,1,0,0,1-1-.93c0-1.22-.51-29.88,7.37-38a18.16,18.16,0,0,1,8.16-4.54,29.67,29.67,0,0,1,10.22-.94c7.44.58,13.83,3.66,17.1,8.25,5,7,5.77,34,5.8,35.15a.94.94,0,0,1-1,1Zm-45.8-1.91h44.81c-.19-5-1.26-27.27-5.42-33.11-2.94-4.13-8.8-6.92-15.68-7.45s-13.4,1.34-16.88,4.91C1533,626.47,1532.74,650.35,1532.76,655.38Z" transform="translate(-95 -323.75)"/><path class="cls-5" d="M1578.2,654.87l.79-.53-.71-1.07.32-.26-.6-.74-.25.2-1.23-1.85,2.07-1.51-.57-.77-2,1.49c-.37-.54-.75-1.13-1.17-1.74l4.15-2.89-.28-.39s-.59-.84-1.55-2.17l.7-.49-.55-.79-.71.5c-.4-.57-.86-1.21-1.36-1.9l1.85-1.24.11.14.77-.57-.59-.79-.06-.09h0l-1.36-1.82,1.36-.94-.54-.78-1.39,1-1.6-2.16,2.26-1.56-.54-.79-2.3,1.58-1.48-2,2.33-1.56,1.34,1.73.76-.59-1.31-1.68.37-.24-.53-.8-.42.29-1.5-1.93,1.65-1.11-.53-.79-1.71,1.14-1.77-2.28,1.68-1.15-.54-.79-1.73,1.18-1.59-2,1.16-.78-.54-.79-1.2.81-3.19-4.1-.76.58,1.24,1.59-2.1,1.35-1-1.39,1.22-.75-.51-.81-1.28.8-1.72-2.32-.77.57,1.68,2.25-1.59,1c-.56-.76-1-1.39-1.4-1.89l.45-.27-.49-.82-.55.33c-1.12-1.46-1.23-1.43-1.52-1.33l.31.91a.46.46,0,0,1-.42-.07c.1.09.38.44.8,1l-2.32,1.4c-.52-.77-.91-1.35-1.22-1.78l.09,0-.49-.83-.14.09c-.4-.56-.44-.58-.51-.62l-.45.85a.48.48,0,0,1-.12-.1l.26.36-3.56,2.1-1.48-2.1-.39.27-.45.18s0,0,1.49,2.14l-3.17,1.87-2-2.68-.76.59,2,2.58-2.22,1.31-1.45-1.94-.76.57,1.38,1.86-2.63,1.56-.48-.64-.77.57.42.56-.56.33.49.82.65-.38,1.38,1.83-3.17,1.9,0,0-.39.3-.23.14,0,0-.15.12,2.26,2.87-3.25,2,.5.81h0l1.36,1.74-2.58,1.66.51.8,2.66-1.7,1.87,2.39-3.28,2.22-1.13-1.38-.74.61,1.07,1.31-1.86,1.26.54.79,1.93-1.31,1.73,2.1-2.75,1.88-.83-.88-.69.66.72.76-1,.66.54.79,1.09-.75,1.72,1.82-3,2-.38-.38-.68.67,2.76,2.83-2,1.35.53.8,2.16-1.45,1.56,1.6.69-.66-1.45-1.48,3-2,2,2.12-2.29,1.58.54.78,2.42-1.66,1,1,.7-.66-.88-.92,2.06-1.42,1.77,2.15-.58.41.54.78.65-.45.06.08.74-.6v0l2.83-2,1.18,1.5-1.4.94.54.8,1.44-1,.25.31.75-.58-.2-.27,2.53-1.7,1.69,2.15-.4.28.55.78,3.61-2.52,1.89,2.5,3.07-2.13.75,1,.77-.57-.74-1,2.66-1.85,1.39,1.81-2.3,1.68.57.77,2.31-1.69,1.22,1.6.76-.58-1.21-1.58,1.49-1.1,1.43,2-.71.57.6.74.66-.53.1.15.78-.55-.14-.21,2.36-1.91Zm-3-4.48-2.54,1.86-1.26-1.79,2.62-1.83C1574.44,649.23,1574.83,649.82,1575.22,650.39Zm-35.8-3,3.11-2.08,1.57,2-3,2Zm.83,2.52-2.35,1.58-1.79-1.89,2.51-1.68Zm26.83-5.62-1.23-1.74,2.83-1.95,1.2,1.8Zm3.34-1.09,1.34,2-2.7,1.89-1.43-2Zm-23.8-.63,2.73-1.82,1.52,2-2.68,1.8Zm.77,2.54-2.5,1.68-1.56-2,2.49-1.66Zm6-7,2.43-1.62,1.52,2-2.45,1.65Zm.71,2.55-2.41,1.61-1.51-2,2.42-1.62Zm1.93-5.46-1.65-2.15,2.44-1.67,1.57,2.24Zm2.91-.8,1.44,2-2.25,1.51-1.52-2Zm-5.14-2.11-1.61-2.1,2.57-1.74,1.51,2.15Zm-.79.54-2.35,1.6-1.58-2.14,2.32-1.56Zm.58.76,1.64,2.14-2.41,1.61-1.59-2.15Zm4.33,5.65,1.62,2.1L1557,643l-1.59-2.15Zm.8-.54,2.21-1.49c.48.69,1,1.41,1.5,2.14l-2.11,1.45Zm4.26,1.43,1.57,2.22-2,1.37-1.66-2.16Zm.79-.54,2.9-2,1.51,2.25-2.85,2Zm-.55-.78-1.5-2.13,3-2,1.42,2.13Zm-2-2.91-1.43-2,3.07-2.05,1.37,2.05Zm-2-2.81-1.58-2.24,3.12-2.13c.51.75,1,1.52,1.55,2.31Zm2.33-4.91,2.72-1.85,1.65,2.28-2.82,1.88Zm-.53-.79-1.46-2.17,2.62-1.77,1.53,2.1Zm-.79.54L1557,630l-1.51-2.15,3.19-2.17Zm-5.2-.79-1.45-2.05,3.32-2.13,1.34,2Zm-.8.53-2.59,1.76-1.59-2.07,2.73-1.76Zm-4.77-1.08-1.19-1.55,2.86-1.78,1.1,1.56Zm-.8.52-2.3,1.48-1.2-1.62,2.29-1.42Zm.58.76,1.6,2.1-2.3,1.56-1.61-2.18Zm-1.49,4.19-2.45,1.66-1.69-2.24,2.51-1.61Zm.57.77,1.58,2.13-2.43,1.66-1.6-2.13Zm2.15,2.9,1.59,2.14-2.43,1.62-1.58-2.11Zm-1.63,4.29-2.75,1.84-1.61-2.05,2.78-1.89Zm2.66,3.55,1.64,2.18-2.6,1.79-1.7-2.18Zm.8-.53,2.39-1.61,1.61,2.16-2.37,1.62Zm4.57,1.31,1.63,2.2-2.35,1.62-1.65-2.19Zm.78-.54,2.5-1.71,1.66,2.16-2.53,1.75Zm4.74,1.21,1.27,1.66-2.59,1.74-1.22-1.64Zm.79-.54,2-1.35,1.22,1.74-1.9,1.27Zm6.34-4.38,3.12-2.16,1.3,1.81-3.2,2.16Zm-.53-.8-1.5-2.25,3-2.07,1.58,2.19Zm-2-3-1.42-2.12,2.94-2,1.47,2Zm-2-2.92-1.38-2,2.85-1.91,1.44,2Zm2.47-4.21a2.83,2.83,0,0,1-.2-.28l1.67-1.11,1.46,2-1.7,1.14Zm-.76-1.05c-.58-.79-1.13-1.56-1.66-2.29l1.62-1.1,1.69,2.28Zm-2.22-3.06-1.53-2.11,1.59-1.07,1.55,2.08Zm-2.09-2.88-1.35-1.85,1.59-1,1.34,1.8Zm-.79.54L1559,624.4c-.46-.7-.91-1.36-1.33-2l2.55-1.64C1560.63,621.37,1561.09,622,1561.56,622.65Zm-4.45-1-1-1.51,2.48-1.54c.34.45.69.93,1.06,1.44Zm-.81.52-3.33,2.14c-.37-.53-.73-1-1.09-1.55l3.4-2.11C1555.61,621.1,1556,621.61,1556.3,622.14Zm-5-.19c-.5-.72-1-1.39-1.43-2l3.5-2.1,1.35,2Zm-.81.5-2.89,1.8-1.56-2,3-1.81Zm-3.71,2.3-2.28,1.42-1.55-2.09,2.27-1.36Zm-3.1,1.93-2.55,1.58-1.6-2.12,2.6-1.56Zm.58.77,1.2,1.62-2.51,1.62-1.25-1.66Zm-2.12,3.75-3,1.91-1.32-1.68,3.05-1.89Zm.58.77,1.69,2.26-2.86,1.93-1.8-2.29Zm2.27,3,1.6,2.14-2.79,1.9-1.66-2.11Zm-2,4.58-2.47,1.68-1.65-2.13,2.46-1.67Zm.59.75,1.6,2-2.49,1.67-1.58-2Zm-1.69,4.24-3.13,2.1-1.61-2,3.17-2.16Zm2.75,3.53,1.73,2.21-3,2-1.81-2.21Zm.79-.54,2.5-1.68,1.72,2.18-2.5,1.71Zm4.81,1.25L1552,651l-2.5,1.72-1.7-2.18Zm.79-.54,2.58-1.77,1.65,2.2-2.53,1.74Zm4.8,1.19,1.2,1.6-2.5,1.68-1.21-1.55Zm.79-.54,2.34-1.62,1.21,1.64-2.35,1.58Zm4.12.78,1.56,2.1L1560,653.4l-1.59-2.12Zm.79-.53,2.6-1.75,1.55,2-2.6,1.81Zm3.4-2.29,1.86-1.25,1.44,2-1.76,1.23Zm3.85,1.56c.41.59.83,1.19,1.26,1.79l-1.66,1.16-1.33-1.74Zm.78-.54,2.68-1.87,1.22,1.82-2.64,1.84Zm8-2.92-3.34,2.32-1.21-1.82,3.28-2.29Zm-1.83-2.57-3.25,2.28c-.44-.65-.89-1.32-1.34-2l3.22-2.17C1574.9,641.14,1575.35,641.78,1575.8,642.4Zm.7-4.45-1.83,1.24-1.3-1.82,1.78-1.23Zm-1.92-2.58-1.77,1.23-1.57-2.19,1.74-1.2Zm-2.17-2.93-1.73,1.19-1.47-2,1.71-1.15Zm1-4.85-2.31,1.55-1.46-2,2.27-1.52Zm-2.09-2.69-2.25,1.51-1.7-2.29,2.19-1.49Zm-2.35-3-2.17,1.48-1.55-2.08,2.13-1.44Zm-3.5-4.5,1.32,1.71-2.11,1.43-1.33-1.78Zm-4.53-.29,1,1.39-1.59,1c-.29-.41-.58-.8-.85-1.16l-.19-.26Zm-4.39-1.17,1.41,1.89-2.44,1.52c-.51-.75-1-1.41-1.34-2Zm-4.95-.67,1.22,1.79-3.51,2.11-1.26-1.8Zm-4.38,2.59,1.27,1.8-3,1.83-1.36-1.78Zm-4,2.34,1.36,1.79-2.25,1.35-1.35-1.81Zm-5.69,3.37,2.62-1.56,1.35,1.83-2.6,1.56Zm-2,5,3.15-1.89,1.6,2.14-3.06,1.91Zm-1,5,2.51-1.56,1.33,1.69-2.49,1.6Zm1.94,2.49,2.49-1.6,1.82,2.31-2.46,1.67Zm-1.61,5.87,3.25-2.2,1.66,2.13-3.19,2.17Zm-1.16,5.22,2.7-1.84,1.6,2-2.57,1.72Zm.4,7-1.84-1.88,3-2,1.79,1.89Zm6.46.27-2-2.12,2.3-1.54,1.82,2.21Zm5.28.9-1.77-2.15,2.92-2,1.71,2.18Zm5.41-.25-1.18-1.51,2.5-1.73,1.21,1.54Zm5.59.65-1.68-2.14,2.48-1.67,1.61,2.13Zm5.08.28-1.31-1.74,2.3-1.6,1.3,1.75Zm3.07-2.14-1.3-1.75,2.61-1.82,1.34,1.73Zm5.39.17-1.38-1.8,1.63-1.13c.41.6.84,1.2,1.27,1.81Zm4.24,1.08c-.35-.49-.82-1.17-1.4-2l2.52-1.84,1.26,1.89Z" transform="translate(-95 -323.75)"/><polygon class="cls-6" points="1495.22 302.9 1496.42 310.1 1500.43 309.97 1498.99 302.45 1495.22 302.9"/><path class="cls-6" d="M1591.32,634.72v15.82l7-.37-2.9-15.78Z" transform="translate(-95 -323.75)"/><polygon class="cls-7" points="1495.22 302.9 1493.74 303.61 1494.72 310.08 1496.42 310.1 1495.22 302.9"/><polygon class="cls-7" points="1496.32 310.97 1494.62 311.31 1493.74 326.68 1496.32 326.79 1496.32 310.97"/><path class="cls-6" d="M1582.31,592.75s-.7-8.63,0-11.88,1.78-4.76,6.18-5c1.75-.1,2-.09,2-.09l.41,2.33a5.2,5.2,0,0,0-2.19.47c-1.6.61-1.16,2.44-1.43,4.48s.41,9.71.41,9.71Z" transform="translate(-95 -323.75)"/><path class="cls-4" d="M1590.22,573.81a4.14,4.14,0,0,1,3.47,3.56,5.77,5.77,0,0,1-2.27,5.19l47.58-.2s1.23-.45,1.22-4.68c0-4.69-2.44-4.68-2.44-4.68Z" transform="translate(-95 -323.75)"/><path class="cls-8" d="M1666.53,621c-4.31-4.09-10.82,1.64-10.82,1.64s-6.51-5.73-10.83-1.64c-8.44,8,10.83,20,10.83,20S1675,629,1666.53,621Z" transform="translate(-95 -323.75)"/><path class="cls-9" d="M1633.26,654.65a6.26,6.26,0,0,1-2.08-.33,4.3,4.3,0,0,1-2.7-2.63,6.41,6.41,0,0,1-.38-2.28,6.21,6.21,0,0,1,.36-2.17,4.81,4.81,0,0,1,1-1.68,4.52,4.52,0,0,1,1.64-1,6,6,0,0,1,2.12-.36,7.77,7.77,0,0,1,2.1.26,6.53,6.53,0,0,1,.82.28l.65.3v2.45h-.3c-.13-.11-.28-.24-.48-.39a7.32,7.32,0,0,0-.65-.44,5,5,0,0,0-.81-.36,2.83,2.83,0,0,0-.93-.15,3.29,3.29,0,0,0-1,.17,2.59,2.59,0,0,0-.92.58,2.85,2.85,0,0,0-.65,1,4.37,4.37,0,0,0-.24,1.54,4,4,0,0,0,.27,1.58,2.7,2.7,0,0,0,.67,1,2.66,2.66,0,0,0,.92.53,3.6,3.6,0,0,0,1,.16,3.4,3.4,0,0,0,.94-.14,3.88,3.88,0,0,0,.85-.39,5.6,5.6,0,0,0,.62-.42c.19-.15.35-.27.47-.38h.27v2.41c-.25.12-.5.22-.73.32a5.59,5.59,0,0,1-.72.26c-.33.09-.64.17-.93.22A7.49,7.49,0,0,1,1633.26,654.65Z" transform="translate(-95 -323.75)"/><path class="cls-9" d="M1648.08,654.45h-2.69l-.71-2h-3.74l-.7,2h-2.62l3.73-10.1h3Zm-4-3.89-1.25-3.62-1.24,3.62Z" transform="translate(-95 -323.75)"/><path class="cls-9" d="M1657.43,646.31h-3.16v8.14h-2.6v-8.14h-3.15v-2h8.91Z" transform="translate(-95 -323.75)"/><path class="cls-9" d="M1667.08,651.28a2.87,2.87,0,0,1-1.27,2.42,5.59,5.59,0,0,1-3.43.94,10,10,0,0,1-2.19-.22,12.23,12.23,0,0,1-1.74-.56v-2.42h.28a6.48,6.48,0,0,0,1.81,1,5.85,5.85,0,0,0,1.92.34,5.55,5.55,0,0,0,.63,0,3,3,0,0,0,.63-.13,2,2,0,0,0,.49-.31.7.7,0,0,0,.19-.54.74.74,0,0,0-.28-.58,2,2,0,0,0-.82-.37c-.38-.09-.79-.17-1.21-.25a9.85,9.85,0,0,1-1.19-.3,3.75,3.75,0,0,1-1.83-1.12,2.86,2.86,0,0,1,.7-4.07,5.55,5.55,0,0,1,3.25-.89,10.7,10.7,0,0,1,2,.19,9.81,9.81,0,0,1,1.69.49v2.33h-.28a5.29,5.29,0,0,0-1.49-.82,5.17,5.17,0,0,0-1.81-.33,4.73,4.73,0,0,0-.65,0,2.72,2.72,0,0,0-.62.17,1.1,1.1,0,0,0-.45.31.66.66,0,0,0-.19.47.69.69,0,0,0,.3.61,3.1,3.1,0,0,0,1.15.39l1.07.23a9.68,9.68,0,0,1,1.1.3,3.62,3.62,0,0,1,1.72,1A2.54,2.54,0,0,1,1667.08,651.28Z" transform="translate(-95 -323.75)"/><polygon class="cls-9" points="1541.43 296.26 1541.43 316.56 1535.63 316.18 1535.63 296.26 1541.43 296.26"/><path class="cls-10" d="M1524.86,625.41a3.74,3.74,0,0,0,.87,2.59c1,1,2.79.53,3.72-.51a8.09,8.09,0,0,0,1.51-3.85c1.24-6.06,2.92-12.65,7.93-16.28,1.89-1.36,4.24-2.29,5.45-4.28a1.23,1.23,0,0,0,.25-.93,1.36,1.36,0,0,0-1-.84C1532.39,597.22,1524.45,617.28,1524.86,625.41Z" transform="translate(-95 -323.75)"/><path class="cls-10" d="M1553.18,598.93c-.18-.83-1.17-1.19-2-1.29a9.84,9.84,0,0,0-2.6,0c-1.21-.12-2.66,1.82-2.29,3a2.83,2.83,0,0,0,2.91,1.74,5.29,5.29,0,0,0,3.17-1.66A2.1,2.1,0,0,0,1553.18,598.93Z" transform="translate(-95 -323.75)"/><rect class="cls-11" x="104.17" y="261.55" width="138.8" height="93.12"/><polygon class="cls-12" points="242.97 261.55 289.14 225.72 327.77 261.55 328.48 354.67 242.97 354.67 242.97 261.55"/><polygon class="cls-13" points="104.17 261.55 96 253.84 151.99 208.15 290.95 208.15 341.52 253.84 335.96 261.55 327.77 261.55 289.14 225.72 250.18 261.55 104.17 261.55"/><polygon class="cls-14" points="250.18 261.55 245.67 250.64 96 253.84 104.17 261.55 250.18 261.55"/><polygon class="cls-15" points="245.67 250.64 290.95 208.15 341.52 253.84 335.96 261.55 293.69 222.09 250.18 261.55 245.67 250.64"/><polygon class="cls-14" points="327.77 261.55 335.96 261.55 293.69 222.09 289.14 225.72 327.77 261.55"/><rect class="cls-11" x="104.17" y="354.67" width="20.2" height="7.62"/><rect class="cls-11" x="222.89" y="354.67" width="20.2" height="7.62"/><path class="cls-12" d="M338.09,686c.67-.12,11.14,0,11.14,0l6.83-7.62h-18Z" transform="translate(-95 -323.75)"/><path class="cls-12" d="M423.48,678.42s1.17,8.06.73,8.22-7.26.29-7.7,0-9.15-8.22-9.15-8.22Z" transform="translate(-95 -323.75)"/><polygon class="cls-16" points="299.86 354.67 306.69 363.07 321.51 362.89 312.36 354.67 299.86 354.67"/><polygon class="cls-16" points="124.37 362.29 136.87 362.29 142.66 354.67 124.37 354.67 124.37 362.29"/><path class="cls-17" d="M338.09,596.92c1.14-.22,41.78-39.2,42.63-37.94s42.15,39.36,42.15,39.36l-.1-13-38.63-35.84-39,35.84H338Z" transform="translate(-95 -323.75)"/><polygon class="cls-18" points="243.09 273.17 104.17 274.59 104.17 261.55 242.97 261.55 243.09 273.17"/><rect class="cls-19" x="104.4" y="280.94" width="223.47" height="1.3"/><rect class="cls-19" x="103.79" y="307.46" width="223.47" height="1.3"/><rect class="cls-19" x="103.79" y="336.77" width="223.47" height="1.3"/><ellipse class="cls-20" cx="290.06" cy="304.97" rx="23.81" ry="31.8"/><path class="cls-16" d="M385.88,596.92a18.21,18.21,0,0,0-3.77.4c11.36,2.41,20.05,15.55,20.05,31.4s-8.69,29-20.05,31.41a18.2,18.2,0,0,0,3.77.39c13.15,0,23.81-14.24,23.81-31.8S399,596.92,385.88,596.92Z" transform="translate(-95 -323.75)"/><path class="cls-10" d="M245.28,538.33q-10.28,9.2-19.66,19.34a4.39,4.39,0,0,0-1.43,2.44c-.15,1.75,1.9,3,3.64,2.8s3.17-1.47,4.48-2.65l21.14-19.09c2-1.76,3.38-4.79.28-6.14C250.87,533.78,247.2,536.61,245.28,538.33Z" transform="translate(-95 -323.75)"/><path class="cls-10" d="M220.09,565.21a10,10,0,0,0-5.05,2.63,3.73,3.73,0,0,0-1.18,1.93c-.3,1.78,1.73,3.25,3.53,3.07s3.27-1.45,4.55-2.72a5.27,5.27,0,0,0,1.66-2.52,1.94,1.94,0,0,0-1.41-2.34c-.78-.08-2,.26-2.08-.53Z" transform="translate(-95 -323.75)"/><path class="cls-14" d="M1194.83,537.85c2.44-8,39.82,8.44,74.72,24.23s68.11,32.61,63,43.28-23.85,12.5-23.85,12.5l-119.17-54.05Z" transform="translate(-95 -323.75)"/><path class="cls-13" d="M1194.89,537.71s-3.65,10.43,61.67,41.53c67.71,32.22,76.08,26,76.08,26L1321,629.74s-11.08,7.65-76.38-23.52c-67.17-32.06-61.61-43.51-61.61-43.51Z" transform="translate(-95 -323.75)"/><rect class="cls-21" x="1217.46" y="560.66" width="7.62" height="32.7" transform="translate(271.52 -792.61) rotate(25.45)"/><path class="cls-15" d="M1283.39,592a113.22,113.22,0,0,1,13.9,9.09c8.4,6.4,10.85,12.95,10.85,12.95l-14.33,30.12s-1.18-6.39-9.14-14.34a53.8,53.8,0,0,0-15.51-11.09s10.76-16,10.82-16.4S1283.39,592,1283.39,592Z" transform="translate(-95 -323.75)"/><path class="cls-14" d="M1254.4,594.68a2.22,2.22,0,1,1-1.18-2.63A2,2,0,0,1,1254.4,594.68Z" transform="translate(-95 -323.75)"/><path class="cls-14" d="M1244.31,589.87a2.22,2.22,0,1,1-1.18-2.63A2,2,0,0,1,1244.31,589.87Z" transform="translate(-95 -323.75)"/><path class="cls-14" d="M1233.75,584.5a2.22,2.22,0,1,1-1.18-2.63A2.06,2.06,0,0,1,1233.75,584.5Z" transform="translate(-95 -323.75)"/><polygon class="cls-14" points="1127.92 240.92 1112.27 262.54 1116.43 265.06 1127.92 240.92"/><path class="cls-14" d="M1277.23,589.22s1.47,1.09-.22,6.5-2.2,8.82-6.3,13.24-7.32,5.8-7.32,5.8,4.6,2.73,4.9,2.74,5.7-2.74,5.7-2.74L1279.1,604l2.64-9.68-.45-4.16Z" transform="translate(-95 -323.75)"/><polygon class="cls-14" points="1164.65 276.07 1162.91 279.73 1178.66 284.98 1179.74 283.25 1164.65 276.07"/><path class="cls-21" d="M1281.46,607.21l.14-.27h0c1.09-2.55,5.36-13,4.05-16.5-2.27-6.08-27.55-15.95-27.55-15.95L1256,579s21.18,9,23.18,11.81c1.81,2.54-2.43,12-3.24,13.81s-5.56,11-8.67,11.22c-3.44.22-23.79-10.55-23.79-10.55l-2.12,4.46s23.6,13.4,29.75,11.33c3.54-1.19,9-11.09,10.25-13.54h0Z" transform="translate(-95 -323.75)"/><path class="cls-21" d="M1282.9,610.88l-23.25-11.06,1.79-3.75,23.24,11.06a2.08,2.08,0,0,1,1,2.77h0A2.07,2.07,0,0,1,1282.9,610.88Z" transform="translate(-95 -323.75)"/><path class="cls-22" d="M1222.29,570.19c-1.4,4.34-3.62,8.36-5.58,12.47-.24.49-.46,1.11-.13,1.55a1.25,1.25,0,0,0,1.58.09,6,6,0,0,0,2.22-3c2.07-4.48,4.53-8.94,6.28-13.55.42-1.11.69-4-1.41-3.41C1223.5,564.89,1222.75,568.75,1222.29,570.19Z" transform="translate(-95 -323.75)"/><path class="cls-22" d="M1276,586.57a2.33,2.33,0,0,0,1.39,1c1.67.68,3.42,1.6,4.12,3.25a5.6,5.6,0,0,1,0,3.66c-.35,1.19-.91,2.32-1.29,3.5a2,2,0,0,0-.13,1,.76.76,0,0,0,.7.63,1.09,1.09,0,0,0,.72-.51,15.11,15.11,0,0,0,1.87-3.93c.59-1.64,1.13-3.5.41-5.09a6.35,6.35,0,0,0-2.42-2.46,37.27,37.27,0,0,0-3.37-2C1277.35,585.25,1275.42,585.22,1276,586.57Z" transform="translate(-95 -323.75)"/><path class="cls-23" d="M1274.74,607l5.43,2.59-1.33,2.29s.56-.88-1.35-2.1a13.81,13.81,0,0,0-3.48-1.66Z" transform="translate(-95 -323.75)"/><path class="cls-21" d="M1227.79,621.05a7.73,7.73,0,0,0,6.56-4.56,5.88,5.88,0,0,0-2.52-7.24,8.43,8.43,0,0,0-2.85-.72,31.73,31.73,0,0,0-6.55,0L1198.09,593a31.38,31.38,0,0,0-2.78-5.93,8.2,8.2,0,0,0-1.85-2.28,5.88,5.88,0,0,0-7.63.76,7.72,7.72,0,0,0-1.37,7.87,7.82,7.82,0,0,0-6.56,4.43c-1.06,2.56,0,6,2.5,7.09a9.6,9.6,0,0,0,2.82.61l6.36.7L1214,621.81l3.31,5.47a9.17,9.17,0,0,0,1.74,2.3c2.09,1.82,5.61,1.33,7.48-.72A7.79,7.79,0,0,0,1227.79,621.05Z" transform="translate(-95 -323.75)"/><path class="cls-21" d="M1207.59,596.55a7.7,7.7,0,0,1,4.56-.14,6.54,6.54,0,0,1,2.83,1.36,5.36,5.36,0,0,1,1.76,4.16,6.89,6.89,0,0,1-1.74,4.24.94.94,0,0,1-.37.29.92.92,0,0,1-.56-.08,13.49,13.49,0,0,1-2.06-1,4.17,4.17,0,0,0,1.84-3.49,3.49,3.49,0,0,0-2.28-3.13,3,3,0,0,0-3.51,1.38,4.56,4.56,0,0,1-.43.82c-.89,1.11-3,.29-3.11-1.05S1206.42,597,1207.59,596.55Z" transform="translate(-95 -323.75)"/><path class="cls-21" d="M1212.33,591.35a5.25,5.25,0,0,0-1,2.53c-.29,1.41-.59,2.83-.88,4.24a2.19,2.19,0,0,0-.06.88c.14.73,1,1.1,1.65,1.36a1.11,1.11,0,0,0,.67.11c.32-.07.51-.38.66-.67a19.09,19.09,0,0,0,2.08-6.66C1215.65,591.28,1213.9,589.61,1212.33,591.35Z" transform="translate(-95 -323.75)"/><path class="cls-22" d="M1189.54,586a4.9,4.9,0,0,0-2.49,2.4,2.37,2.37,0,0,0,.35,2.34,1.1,1.1,0,0,0,.43.31,1.16,1.16,0,0,0,1.17-.48,9.23,9.23,0,0,1,.83-1,1.67,1.67,0,0,1,2-.14c.42.27.75.75,1.25.81a1.1,1.1,0,0,0,1.1-.91,2.35,2.35,0,0,0-.28-1.5A3.35,3.35,0,0,0,1189.54,586Z" transform="translate(-95 -323.75)"/><path class="cls-22" d="M1213.27,592.4a1.38,1.38,0,0,0-.47.57,8.48,8.48,0,0,0-1,4.24,1,1,0,0,0,.2.66.66.66,0,0,0,.86,0,1.74,1.74,0,0,0,.47-.81,16,16,0,0,0,.86-4.16A.55.55,0,0,0,1213.27,592.4Z" transform="translate(-95 -323.75)"/><path class="cls-24" d="M715.32,423.44c-5.17-4.32-11.69-6.58-17.89-9.21a136,136,0,0,1-18-9.3,33,33,0,0,1-7.73-6,13.3,13.3,0,0,1-3.62-8.91,6.41,6.41,0,0,1,1.78-4.56c6.45-6,20.56-.46,27.48,3.65s12.73,9.82,18.15,15.77q5.5,6,10.57,12.42c3.1,3.91,6.2,8,10.57,10.45s10.43,2.6,13.86-1c2.43-2.55,3-6.45,2.25-9.88a24.18,24.18,0,0,0-4.88-9.26A63.87,63.87,0,0,0,732,393c-10.55-6.78-22.92-10.32-33.46-17.11l1.23-1.84c9.71,6.42,20.76,10.49,31,16.05s20,13.18,24.5,23.93c1.89,4.52,2.74,9.63,1.41,14.34s-5.13,8.88-9.94,9.75c-3.71.67-7.5-.6-10.85-2.33A40.76,40.76,0,0,1,725.35,428c-3.74-3.87-6.67-8.42-9.8-12.8-6.54-9.12-14.26-17.69-24.06-23.14-3.44-1.91-7.37-3.45-11.23-2.73-1.87.35-3.84,1.47-4.22,3.34-.45,2.22,1.49,4.15,3.34,5.45,8.53,6,18.9,8.72,28.12,13.58a66.82,66.82,0,0,1,16.23,12c5,5,9.41,11.82,7.88,18.72-.67,3-2.44,5.71-4.18,8.3a15.15,15.15,0,0,1-4.66-3.31c-3.12-3.68.31-8-.37-12.2A19.94,19.94,0,0,0,715.32,423.44Z" transform="translate(-95 -323.75)"/><path class="cls-13" d="M605.94,465.23,631.5,409a4.46,4.46,0,0,1,5.62-2.33s77.15,27.86,85.52,35.13c9.24,8,10.28,26.43,9.75,39.17A11.78,11.78,0,0,1,718.55,492L609.16,471.45A4.46,4.46,0,0,1,605.94,465.23Zm20.73.35,31.11,6.08c0-.86,8.21-42,9-43.25L645.16,420a4.46,4.46,0,0,0-5.71,2.39l-16,37.06A4.46,4.46,0,0,0,626.67,465.58Z" transform="translate(-95 -323.75)"/><path class="cls-14" d="M657.62,472c1.58-8.52,8.47-42.56,9.14-43.61L645.22,420c1.2-1.36,24.14,6.27,24.14,6.27a2.88,2.88,0,0,1,1.75,3.34c-2.21,9.3-8.77,42.17-8.75,42.93Z" transform="translate(-95 -323.75)"/><path class="cls-14" d="M605.94,465.23,631.5,409a4.46,4.46,0,0,1,5.62-2.33l.11,0a4.47,4.47,0,0,0-.72,1.12L611,464.06a4.46,4.46,0,0,0,3.22,6.22l109.39,20.58a11.82,11.82,0,0,0,2.2.19,11.72,11.72,0,0,1-7.21,1L609.16,471.45A4.46,4.46,0,0,1,605.94,465.23Z" transform="translate(-95 -323.75)"/><path class="cls-24" d="M610.38,455.46l16.87-37.15,13.19,5.41v0l.35.22c1.42,1,1.39,2.74.78,4.27a10,10,0,0,1-3.95,4.7,13.24,13.24,0,0,1-5.69,13c.64,2.34-.27,4.82-1.19,7.08-2.86,7-6.11,6.07-6.11,6.07Z" transform="translate(-95 -323.75)"/><circle class="cls-14" cx="691.92" cy="460.85" r="18.19" transform="translate(11.93 727.79) rotate(-78.94)"/><circle class="cls-24" cx="696.3" cy="459.46" r="19.36" transform="matrix(1, -0.05, 0.05, 1, -116.62, -289.18)"/><path class="cls-25" d="M711.31,460.47a6.65,6.65,0,0,1-2.18,4.48c-1.34,1.05-3.57,1.06-4.57-.32s-.37-3.3,0-5a12.76,12.76,0,0,0-4.5-12.1,1.76,1.76,0,0,1-.77-1c-.13-.79.86-1.27,1.66-1.33C707.89,444.72,712.08,454.73,711.31,460.47Z" transform="translate(-95 -323.75)"/><polygon class="cls-26" points="537.08 96.55 520.95 133.13 515.38 131.71 532.25 94.56 537.08 96.55"/><path class="cls-14" d="M623.44,458.87l-12.1-3.17a25.23,25.23,0,0,0-1.67,3.38c.2,0,13.6.81,13.6.81Z" transform="translate(-95 -323.75)"/><path class="cls-27" d="M708.69,377.06c-.2.2-2.42,4.48-2.42,4.48l-9.07-5.1,2.22-3.88Z" transform="translate(-95 -323.75)"/><path class="cls-27" d="M695.2,368A5.39,5.39,0,0,0,693.39,378a6.37,6.37,0,0,0,2.09.7,4.18,4.18,0,0,0,1.76,0,4,4,0,0,0,2.08-1.45,1.25,1.25,0,0,0,.3-.54c.15-.68-.62-1.17-1.27-1.44a3,3,0,0,1-3.9.54,3.31,3.31,0,0,1-1.2-3.81,3.69,3.69,0,0,1,3.32-2.33,2.69,2.69,0,0,1,2.58,1.46c.6,1.49-1.15,2.81-.71,4s2.21,1,2.82.19c1.28-1.74-.42-5-1.8-6.19A5.57,5.57,0,0,0,695.2,368Z" transform="translate(-95 -323.75)"/><polygon class="cls-27" points="599.05 45.55 592.65 40.38 588.98 47.73 597.38 49.37 599.05 45.55"/><path class="cls-27" d="M687.65,364.13l-4.91-4.45-.9,1.57s3.08,2.62,2.61,4.49-6.68.44-12-1.43-9.35-2.86-8-6.25c1-2.6,2.16-6.56,7.17-4.32s9.29,7.15,9.39,7,1.4-1.47,1.26-1.61-8.47-7.92-11.58-8.47-5.6-.06-7.45,3-4.65,6.23-1.83,9.34S684,371.48,684,371.48Z" transform="translate(-95 -323.75)"/><path class="cls-27" d="M681.5,369.68c-.18.08-5.15,3.74-5.15,3.74l-3.24-1.51,3.58-3.82Z" transform="translate(-95 -323.75)"/><path class="cls-24" d="M685.49,368a1.81,1.81,0,1,0,2.13-1.43A1.81,1.81,0,0,0,685.49,368Z" transform="translate(-95 -323.75)"/><path class="cls-28" d="M727.8,461.24c.35,3.39.7,6.86-.13,10.16a3.12,3.12,0,0,1-1.41,2.21,2.33,2.33,0,0,1-2.63-.71,6.13,6.13,0,0,1-1.17-2.64,31.73,31.73,0,0,1-.87-8.52c.16-4.58,1.17-9.69-1.6-13.33a22.05,22.05,0,0,0-4.47-3.79c-.87-.67-1.73-2-.94-2.73,2.29-2.21,8,3.36,9.12,5.3C726.33,451.65,727.26,456.14,727.8,461.24Z" transform="translate(-95 -323.75)"/><path class="cls-28" d="M712,439.87a1.24,1.24,0,0,1-1.08,1,3.68,3.68,0,0,1-1.57-.23,17.11,17.11,0,0,1-5.23-2.23,2,2,0,0,1-.92-1.22c-.13-.81.71-1.51,1.53-1.57a4.61,4.61,0,0,1,2.32.72C708.15,436.9,712.15,438.29,712,439.87Z" transform="translate(-95 -323.75)"/><path class="cls-2" d="M690.05,587.23a4.64,4.64,0,0,1,.84,2.48,5.33,5.33,0,0,1-.27,2.51,3.39,3.39,0,0,1-1.66,1.85,5.37,5.37,0,0,1-1.48.38,3.94,3.94,0,0,1-1.64,0,3.47,3.47,0,0,1-1.45-1,6.12,6.12,0,0,1-1.6-2.7,3.39,3.39,0,0,1,.6-3c.82-1,3.36-1.27,4.54-1.41A2.61,2.61,0,0,1,690.05,587.23Z" transform="translate(-95 -323.75)"/><path class="cls-3" d="M634.42,604.58s-.44-7.9.27-10.93,1.78-4.41,5.91-4.56,13.52.33,13.52.33l0,2s-11.93-.67-13.29.19-1.14,2.26-1.44,4.16.16,9.11.16,9.11Z" transform="translate(-95 -323.75)"/><path class="cls-4" d="M718.1,604.1H615.9s-15.95,0-22.8,18.19c-4,10.68-12,67.71-12,67.71H690.43Z" transform="translate(-95 -323.75)"/><path class="cls-3" d="M754.19,690s-3.37-56-6.13-65.69c-6.63-23.26-52.62-30.24-58.66-.41-5.95,29.4-8,66.1-8,66.1Z" transform="translate(-95 -323.75)"/><path class="cls-2" d="M756.92,690s-3.38-56-6.13-65.69c-6.63-23.25-52.63-30.24-58.67-.41-5.94,29.4-8,66.1-8,66.1Z" transform="translate(-95 -323.75)"/><path class="cls-3" d="M742.91,663.69H699.1s.69-26,5.27-32.45c6.37-9,24.67-9.88,31.88-2.49S742.91,663.69,742.91,663.69Z" transform="translate(-95 -323.75)"/><path class="cls-5" d="M698.86,664.58h43.81a.89.89,0,0,0,.89-.88c0-1.14.48-28-6.9-35.57a17.08,17.08,0,0,0-7.65-4.27,28,28,0,0,0-9.59-.87c-7,.54-12.95,3.43-16,7.73-4.68,6.58-5.4,31.87-5.43,32.94a.87.87,0,0,0,.25.65A.91.91,0,0,0,698.86,664.58Zm42.92-1.79h-42c.17-4.65,1.18-25.56,5.07-31,2.76-3.88,8.25-6.49,14.7-7s12.56,1.27,15.81,4.61C741.54,635.7,741.8,658.07,741.78,662.79Z" transform="translate(-95 -323.75)"/><path class="cls-5" d="M699.2,662.31l-.75-.5.67-1-.3-.24.56-.7.24.19,1.15-1.73-1.94-1.42.53-.72,1.91,1.39,1.09-1.63-3.89-2.7.26-.37,1.46-2-.66-.45.51-.74.67.47,1.27-1.78-1.73-1.17-.1.14-.72-.54L700,646,700,646h0l1.27-1.71-1.27-.88.51-.73,1.3.89,1.5-2L701.23,640l.5-.74,2.16,1.48,1.38-1.86-2.18-1.47-1.26,1.62-.7-.55,1.22-1.57-.34-.23.5-.74.39.26,1.41-1.8-1.55-1,.49-.74,1.61,1.07,1.66-2.14-1.58-1.08.5-.74,1.63,1.11,1.48-1.91-1.08-.73.51-.74,1.12.76,3-3.84.71.54-1.16,1.5,2,1.26,1-1.3-1.14-.71.48-.76,1.2.75,1.61-2.17.72.53-1.57,2.11,1.49.93,1.31-1.77-.42-.26.46-.76.51.3c1-1.36,1.16-1.33,1.43-1.24l-.29.85a.4.4,0,0,0,.39-.06,9.17,9.17,0,0,0-.75.92l2.17,1.31,1.14-1.67-.07-.05.45-.77.14.08c.37-.52.41-.55.47-.58l.42.79a.35.35,0,0,0,.12-.09,2.88,2.88,0,0,0-.24.33l3.33,2c.85-1.19,1.35-1.91,1.38-2l.37.25.42.17s0,0-1.4,2l3,1.76,1.92-2.51.71.55-1.86,2.42,2.09,1.23,1.35-1.83.72.54-1.3,1.75,2.47,1.45.45-.6.72.54-.39.52.52.31-.46.77-.61-.36-1.29,1.72,3,1.79,0,0,.37.29.22.13,0,0,.14.1-2.12,2.7,3.05,1.89-.47.76h0l-1.27,1.63,2.42,1.55-.49.76-2.49-1.6-1.75,2.24,3.08,2.08,1.06-1.29.69.57-1,1.23,1.74,1.18-.5.74-1.81-1.23-1.62,2,2.58,1.76.78-.82.65.62-.68.71.91.62-.51.74-1-.7-1.62,1.7,2.85,1.91.35-.36.64.62-2.59,2.66,1.89,1.26-.5.75-2-1.36-1.47,1.51-.64-.63,1.35-1.39-2.78-1.87-1.89,2,2.15,1.48-.51.73L734.59,663l-.92,1-.65-.62.82-.86-1.93-1.33-1.66,2,.55.37-.51.74-.61-.42-.06.07-.69-.56,0,0-2.67-1.84-1.09,1.41,1.3.88-.5.75-1.36-.92-.22.3-.71-.55.19-.25-2.37-1.6-1.58,2,.37.26-.51.73-3.39-2.36-1.77,2.35-2.87-2-.71,1-.72-.53L711,662l-2.49-1.73-1.3,1.7,2.15,1.57-.53.72-2.17-1.58-1.15,1.5-.71-.55,1.14-1.48-1.4-1-1.33,1.9.66.54-.57.69-.61-.5-.1.14-.73-.51.13-.19-2.21-1.8C699.6,661.69,699.4,662,699.2,662.31Zm2.79-4.2,2.38,1.74,1.18-1.68-2.46-1.71Zm33.55-2.8-2.92-1.95-1.47,1.88,2.86,1.93Zm-.78,2.36,2.21,1.48,1.67-1.77-2.35-1.57Zm-25.14-5.27,1.15-1.63-2.65-1.83L707,650.63Zm-3.13-1-1.26,1.89,2.53,1.76,1.34-1.89Zm22.3-.58-2.56-1.71L724.81,651l2.51,1.69Zm-.72,2.37,2.34,1.57,1.47-1.88-2.34-1.57Zm-5.6-6.6-2.27-1.51-1.43,1.86,2.3,1.54Zm-.66,2.39,2.26,1.52,1.42-1.89-2.27-1.52ZM720,643.85l1.55-2-2.29-1.56-1.48,2.1Zm-2.73-.75-1.34,1.9,2.1,1.42,1.42-1.86Zm4.82-2,1.51-2-2.4-1.63c-.45.64-.93,1.31-1.42,2Zm.74.5,2.2,1.5,1.48-2-2.17-1.47Zm-.54.71-1.54,2,2.26,1.51,1.49-2Zm-4.06,5.3-1.52,2,2.33,1.6,1.5-2Zm-.75-.5-2.07-1.39c-.46.64-.92,1.31-1.41,2l2,1.36Zm-4,1.34L712,650.55l1.85,1.28,1.56-2Zm-.74-.51L710,646.09l-1.41,2.11,2.66,1.84Zm.51-.73,1.41-2-2.81-1.89-1.34,2Zm1.92-2.73,1.34-1.9-2.87-1.92-1.29,1.92Zm1.86-2.63,1.48-2.1-2.93-2-1.44,2.16Zm-2.19-4.6-2.54-1.74c-.51.7-1,1.41-1.55,2.14l2.64,1.77C713.9,638.69,714.39,638,714.85,637.27Zm.5-.74,1.37-2-2.46-1.66-1.43,2Zm.74.5,2.95,2,1.41-2-3-2Zm4.88-.74,1.35-1.92-3.1-2L718,634.25Zm.74.5,2.44,1.65,1.49-1.94-2.56-1.65Zm4.47-1,1.12-1.45-2.68-1.67c-.32.46-.66,1-1,1.46Zm.76.49,2.15,1.38,1.13-1.51-2.15-1.34Zm-.55.71-1.5,2,2.16,1.46,1.51-2Zm1.4,3.93,2.3,1.55,1.58-2.1-2.36-1.51Zm-.53.72-1.49,2,2.28,1.55,1.5-2Zm-2,2.72-1.49,2,2.27,1.52,1.49-2Zm1.53,4,2.57,1.72,1.51-1.92-2.6-1.77Zm-2.5,3.32-1.53,2,2.43,1.67,1.6-2Zm-.74-.5-2.25-1.51-1.5,2,2.22,1.52Zm-4.29,1.23-1.52,2.07,2.19,1.51,1.55-2Zm-.73-.5-2.34-1.61-1.56,2L717,654Zm-4.44,1.13-1.19,1.55,2.42,1.64,1.15-1.54Zm-.74-.51-1.83-1.26-1.14,1.63,1.77,1.19Zm-6-4.1-2.92-2-1.21,1.69,3,2Zm.5-.75,1.41-2.11-2.83-1.94c-.5.68-1,1.37-1.48,2.05Zm1.91-2.85c.44-.66.88-1.33,1.33-2L708.36,641,707,642.91Zm1.83-2.73c.44-.66.87-1.3,1.28-1.93l-2.67-1.78-1.35,1.87Zm-2.32-4,.19-.26-1.57-1-1.37,1.85,1.59,1.07Zm.71-1,1.56-2.14-1.52-1-1.59,2.13Zm2.08-2.87c.5-.69,1-1.34,1.43-2l-1.48-1-1.45,1.95Zm2-2.69,1.26-1.73-1.48-1-1.26,1.69Zm.74.5,2.43,1.64,1.24-1.86-2.39-1.53Zm4.17-1,.95-1.41-2.32-1.45-1,1.35Zm.75.48,3.13,2,1-1.45-3.19-2C720.37,630.67,720.05,631.14,719.71,631.63Zm4.67-.18,1.33-1.89-3.27-2-1.27,1.88Zm.76.48,2.71,1.68,1.45-1.9L726.48,630C726.08,630.59,725.63,631.22,725.14,631.93Zm3.47,2.16,2.14,1.32,1.45-1.95-2.12-1.28Zm2.9,1.8,2.4,1.49,1.5-2L733,633.92Zm-.53.72-1.13,1.52,2.36,1.51,1.16-1.55Zm2,3.52,2.79,1.79,1.24-1.58-2.86-1.77Zm-.54.72L730.83,643l2.68,1.82,1.69-2.15Zm-2.13,2.83-1.5,2,2.61,1.78,1.56-2Zm1.86,4.29,2.31,1.57,1.55-2L733.7,646Zm-.56.7-1.5,1.92,2.34,1.56,1.48-1.9Zm1.58,4,2.94,2,1.51-1.83-3-2ZM730.6,656,729,658l2.76,1.9,1.7-2.07Zm-.74-.5-2.35-1.58-1.6,2,2.33,1.6Zm-4.51,1.17-1.59,2,2.34,1.62,1.59-2Zm-.73-.5-2.42-1.67-1.55,2.06,2.37,1.64Zm-4.51,1.11-1.12,1.5,2.34,1.57,1.14-1.44Zm-.74-.51-2.19-1.51L716,656.74l2.21,1.48Zm-3.86.74-1.46,2,2.16,1.51,1.5-2Zm-.74-.5-2.44-1.64-1.45,1.89,2.44,1.7Zm-3.18-2.15-1.75-1.17-1.34,1.91,1.64,1.15ZM708,656.28,706.8,658l1.55,1.09,1.25-1.63Zm-.73-.51L704.73,654l-1.14,1.71,2.47,1.72ZM699.73,653l3.13,2.18L704,653.5l-3.08-2.14Zm1.71-2.4,3,2.13,1.26-1.88-3-2Zm-.65-4.18,1.71,1.16,1.22-1.7-1.67-1.16Zm1.79-2.42,1.67,1.15,1.47-2L704.09,642Zm2-2.74,1.62,1.11c.46-.62.91-1.26,1.38-1.9l-1.6-1.08Zm-1-4.55,2.17,1.46,1.37-1.84-2.13-1.43Zm2-2.51,2.11,1.41,1.6-2.15-2-1.4Zm2.21-2.84,2,1.38,1.45-1.95-2-1.35Zm3.28-4.22-1.24,1.59,2,1.35,1.24-1.67Zm4.24-.28-1,1.31,1.48.95.81-1.09.18-.24Zm4.12-1.1-1.33,1.78,2.29,1.42,1.26-1.86Zm4.64-.62c-.31.44-.69,1-1.15,1.68l3.29,2,1.19-1.68Zm4.1,2.43L727,629.28l2.85,1.72,1.28-1.67Zm3.72,2.19-1.29,1.67,2.12,1.27L734,631Zm5.33,3.15-2.46-1.45-1.27,1.71,2.44,1.46Zm1.89,4.68-3-1.78-1.51,2,2.88,1.78Zm1,4.66-2.35-1.46-1.25,1.59,2.34,1.5Zm-1.81,2.33-2.34-1.5-1.71,2.17,2.31,1.56Zm1.51,5.51-3.06-2.07-1.55,2,3,2Zm1.08,4.89-2.53-1.72-1.5,1.82,2.41,1.61Zm-.37,6.53,1.72-1.76-2.84-1.9-1.68,1.78Zm-6.06.26,1.88-2-2.15-1.45-1.71,2.08Zm-4.94.84,1.65-2-2.74-1.88-1.59,2Zm-5.08-.24,1.11-1.42-2.35-1.62-1.13,1.45Zm-5.24.61,1.58-2-2.33-1.57-1.5,2Zm-4.75.27,1.22-1.63-2.15-1.51-1.22,1.64Zm-2.88-2,1.21-1.64-2.45-1.71-1.24,1.63Zm-5.05.16,1.29-1.68-1.53-1.06-1.19,1.69Zm-4,1,1.31-1.86-2.35-1.72c-.41.61-.8,1.2-1.19,1.77Z" transform="translate(-95 -323.75)"/><polygon class="cls-6" points="592.93 312.12 591.81 318.86 588.05 318.74 589.39 311.69 592.93 312.12"/><path class="cls-6" d="M686.9,643.42v14.83l-6.57-.34,2.72-14.79Z" transform="translate(-95 -323.75)"/><polygon class="cls-7" points="592.93 312.12 594.32 312.78 593.4 318.84 591.81 318.86 592.93 312.12"/><polygon class="cls-7" points="591.9 319.68 593.5 319.99 594.32 334.4 591.9 334.5 591.9 319.68"/><path class="cls-6" d="M695.35,604.09s.64-8.08,0-11.13-1.67-4.46-5.79-4.71c-1.64-.09-1.92-.08-1.92-.08l-.38,2.18a4.91,4.91,0,0,1,2.05.45c1.5.57,1.08,2.28,1.33,4.19s-.38,9.1-.38,9.1Z" transform="translate(-95 -323.75)"/><path class="cls-4" d="M687.93,586.35a3.87,3.87,0,0,0-3.25,3.33,5.39,5.39,0,0,0,2.12,4.86l-44.58-.18s-1.16-.43-1.15-4.39c0-4.39,2.29-4.39,2.29-4.39Z" transform="translate(-95 -323.75)"/><path class="cls-8" d="M616.41,630.6c4.05-3.83,10.15,1.54,10.15,1.54s6.1-5.37,10.15-1.54c7.9,7.48-10.15,18.74-10.15,18.74S608.51,638.08,616.41,630.6Z" transform="translate(-95 -323.75)"/><path class="cls-9" d="M647.6,662.1a5.86,5.86,0,0,0,1.95-.31,4.25,4.25,0,0,0,1.53-.93,4.2,4.2,0,0,0,1-1.53,6.1,6.1,0,0,0,.35-2.13,5.74,5.74,0,0,0-.34-2,4.23,4.23,0,0,0-1-1.57,4.16,4.16,0,0,0-1.53-1,5.54,5.54,0,0,0-2-.34,7.08,7.08,0,0,0-1.08.07,7.23,7.23,0,0,0-.88.17,5.73,5.73,0,0,0-.77.27c-.24.1-.44.19-.61.28v2.29h.28L645,655a6.45,6.45,0,0,1,.61-.41,4.38,4.38,0,0,1,.76-.34,2.74,2.74,0,0,1,.87-.14,2.92,2.92,0,0,1,1,.16,2.36,2.36,0,0,1,.85.54,2.56,2.56,0,0,1,.61,1,4.59,4.59,0,0,1,0,2.93,2.76,2.76,0,0,1-.63.94,2.4,2.4,0,0,1-.86.49,3.19,3.19,0,0,1-.95.15,3,3,0,0,1-.88-.13,3.62,3.62,0,0,1-.8-.36,4.89,4.89,0,0,1-.58-.39l-.44-.36h-.25v2.26l.68.3a6,6,0,0,0,.68.24,6.68,6.68,0,0,0,.87.2A6.55,6.55,0,0,0,647.6,662.1Z" transform="translate(-95 -323.75)"/><path class="cls-9" d="M633.71,661.92h2.52l.66-1.91h3.5l.66,1.91h2.46L640,652.45h-2.81Zm3.77-3.65,1.16-3.39,1.17,3.39Z" transform="translate(-95 -323.75)"/><path class="cls-9" d="M624.94,654.29h3v7.63h2.44v-7.63h3v-1.84h-8.36Z" transform="translate(-95 -323.75)"/><path class="cls-9" d="M615.9,658.94a2.69,2.69,0,0,0,1.19,2.28,5.31,5.31,0,0,0,3.21.87,8.8,8.8,0,0,0,2.05-.21,9.84,9.84,0,0,0,1.64-.52v-2.27h-.27a5.77,5.77,0,0,1-3.49,1.25,5,5,0,0,1-.59,0,2.1,2.1,0,0,1-.59-.12,1.51,1.51,0,0,1-.46-.29.66.66,0,0,1-.18-.51.7.7,0,0,1,.26-.53,1.89,1.89,0,0,1,.78-.35c.35-.09.73-.16,1.12-.24a8.73,8.73,0,0,0,1.12-.28,3.52,3.52,0,0,0,1.72-1.05,2.6,2.6,0,0,0,.52-1.65,2.54,2.54,0,0,0-1.18-2.16,5.16,5.16,0,0,0-3-.84,9.59,9.59,0,0,0-1.85.18,9.06,9.06,0,0,0-1.58.46v2.18h.27a5.18,5.18,0,0,1,3.09-1.08,4.18,4.18,0,0,1,.61.05,2.36,2.36,0,0,1,.58.15,1.26,1.26,0,0,1,.43.29.7.7,0,0,1-.11,1,3.29,3.29,0,0,1-1.08.36l-1,.21c-.32.07-.67.16-1,.28a3.44,3.44,0,0,0-1.6,1A2.36,2.36,0,0,0,615.9,658.94Z" transform="translate(-95 -323.75)"/><polygon class="cls-9" points="549.62 305.89 549.62 324.91 555.06 324.56 555.06 305.89 549.62 305.89"/><path class="cls-10" d="M749.19,634.7a3.5,3.5,0,0,1-.82,2.43,2.56,2.56,0,0,1-3.48-.48,7.61,7.61,0,0,1-1.43-3.6c-1.16-5.68-2.73-11.87-7.43-15.26-1.77-1.28-4-2.15-5.11-4a1.24,1.24,0,0,1-.23-.88c.09-.41.52-.64.92-.79C742.13,608.28,749.57,627.08,749.19,634.7Z" transform="translate(-95 -323.75)"/><path class="cls-10" d="M722.64,609.88c.17-.78,1.1-1.11,1.89-1.21a9.41,9.41,0,0,1,2.43,0c1.14-.11,2.49,1.71,2.15,2.8a2.63,2.63,0,0,1-2.73,1.62,4.93,4.93,0,0,1-3-1.55A2,2,0,0,1,722.64,609.88Z" transform="translate(-95 -323.75)"/><path class="cls-14" d="M534.51,393.62c-2.45-8-39.83,8.44-74.73,24.23s-68.11,32.6-63,43.28,23.85,12.49,23.85,12.49l119.17-54Z" transform="translate(-95 -323.75)"/><path class="cls-13" d="M534.44,393.47s3.65,10.44-61.67,41.53c-67.71,32.23-76.08,26-76.08,26l11.67,24.5s11.07,7.66,76.37-23.51c67.17-32.07,61.61-43.51,61.61-43.51Z" transform="translate(-95 -323.75)"/><rect class="cls-21" x="504.24" y="416.42" width="7.62" height="32.7" transform="translate(1057.79 281.45) rotate(154.55)"/><path class="cls-15" d="M445.94,447.77a110.81,110.81,0,0,0-13.9,9.08c-8.4,6.41-10.85,13-10.85,13l14.34,30.12s1.17-6.39,9.13-14.34a54,54,0,0,1,15.51-11.1s-10.76-16-10.81-16.39S445.94,447.77,445.94,447.77Z" transform="translate(-95 -323.75)"/><path class="cls-14" d="M474.93,450.44a2.22,2.22,0,1,0,1.18-2.63A2,2,0,0,0,474.93,450.44Z" transform="translate(-95 -323.75)"/><path class="cls-14" d="M485,445.64A2.22,2.22,0,1,0,486.2,443,2,2,0,0,0,485,445.64Z" transform="translate(-95 -323.75)"/><path class="cls-14" d="M495.59,440.27a2.22,2.22,0,1,0,1.17-2.63A2,2,0,0,0,495.59,440.27Z" transform="translate(-95 -323.75)"/><polygon class="cls-14" points="411.41 96.69 427.06 118.31 422.9 120.83 411.41 96.69"/><path class="cls-14" d="M452.11,445s-1.48,1.1.21,6.51,2.2,8.81,6.3,13.23,7.32,5.8,7.32,5.8-4.6,2.74-4.9,2.74-5.7-2.73-5.7-2.73l-5.11-10.74-2.64-9.69.45-4.16Z" transform="translate(-95 -323.75)"/><polygon class="cls-14" points="374.68 131.84 376.42 135.5 360.67 140.75 359.59 139.02 374.68 131.84"/><path class="cls-21" d="M447.87,463l-.14-.28h0c-1.09-2.55-5.36-13-4.05-16.5,2.27-6.07,27.55-15.94,27.55-15.94l2.13,4.46s-21.19,9-23.19,11.81c-1.81,2.54,2.43,12.06,3.24,13.81s5.56,11,8.68,11.22c3.43.22,23.78-10.54,23.78-10.54l2.13,4.46s-23.61,13.4-29.75,11.33c-3.55-1.19-9-11.1-10.26-13.55h0Z" transform="translate(-95 -323.75)"/><path class="cls-21" d="M446.43,466.65l23.25-11.06-1.79-3.76L444.65,462.9a2.08,2.08,0,0,0-1,2.77h0A2.09,2.09,0,0,0,446.43,466.65Z" transform="translate(-95 -323.75)"/><path class="cls-22" d="M507,426c1.4,4.34,3.62,8.36,5.58,12.48.24.49.46,1.11.13,1.55a1.27,1.27,0,0,1-1.58.09,6.1,6.1,0,0,1-2.22-3c-2.07-4.48-4.53-8.94-6.28-13.55-.42-1.12-.69-4,1.41-3.41C505.83,420.66,506.58,424.52,507,426Z" transform="translate(-95 -323.75)"/><path class="cls-22" d="M453.32,442.33a2.38,2.38,0,0,1-1.39,1c-1.66.67-3.42,1.59-4.11,3.25a5.53,5.53,0,0,0,0,3.66c.34,1.19.9,2.31,1.28,3.49a2,2,0,0,1,.13,1,.74.74,0,0,1-.7.62,1,1,0,0,1-.71-.51,14.76,14.76,0,0,1-1.88-3.92c-.59-1.65-1.13-3.5-.41-5.09a6.42,6.42,0,0,1,2.42-2.46,37.27,37.27,0,0,1,3.37-2C452,441,453.91,441,453.32,442.33Z" transform="translate(-95 -323.75)"/><path class="cls-23" d="M454.59,462.77l-5.43,2.58,1.33,2.29s-.56-.87,1.35-2.1a13.81,13.81,0,0,1,3.48-1.66Z" transform="translate(-95 -323.75)"/><path class="cls-21" d="M501.54,476.81a7.7,7.7,0,0,1-6.56-4.55A5.89,5.89,0,0,1,497.5,465a8.19,8.19,0,0,1,2.85-.71,31.73,31.73,0,0,1,6.55,0l24.34-15.54a31.57,31.57,0,0,1,2.78-5.92,8.4,8.4,0,0,1,1.85-2.29,5.88,5.88,0,0,1,7.63.77,7.69,7.69,0,0,1,1.37,7.87,7.82,7.82,0,0,1,6.56,4.43c1.07,2.56,0,6-2.5,7.09a9.6,9.6,0,0,1-2.82.61l-6.36.7-24.42,15.58c-1.1,1.82-2.21,3.64-3.31,5.47a9.55,9.55,0,0,1-1.74,2.3c-2.09,1.82-5.61,1.32-7.48-.72A7.82,7.82,0,0,1,501.54,476.81Z" transform="translate(-95 -323.75)"/><path class="cls-21" d="M521.74,452.32a7.62,7.62,0,0,0-4.56-.14,6.64,6.64,0,0,0-2.83,1.35,5.33,5.33,0,0,0-1.75,4.17,6.8,6.8,0,0,0,1.74,4.24.82.82,0,0,0,.36.28.9.9,0,0,0,.56-.07,14,14,0,0,0,2.06-1,4.18,4.18,0,0,1-1.84-3.49,3.49,3.49,0,0,1,2.28-3.13,3,3,0,0,1,3.52,1.38,5.29,5.29,0,0,0,.42.82c.89,1.11,3,.29,3.11-1.06S522.91,452.76,521.74,452.32Z" transform="translate(-95 -323.75)"/><path class="cls-21" d="M517,447.11a5.32,5.32,0,0,1,1,2.54c.3,1.41.59,2.82.88,4.23a2.19,2.19,0,0,1,.06.88c-.14.74-.94,1.11-1.65,1.37a1.19,1.19,0,0,1-.67.11c-.32-.07-.51-.39-.66-.67a19.08,19.08,0,0,1-2.08-6.67C513.68,447,515.43,445.38,517,447.11Z" transform="translate(-95 -323.75)"/><path class="cls-22" d="M539.79,441.75a4.33,4.33,0,0,1,.92.51,4.21,4.21,0,0,1,1.57,1.88,2.37,2.37,0,0,1-.35,2.34.94.94,0,0,1-.43.31,1.16,1.16,0,0,1-1.17-.47,9.39,9.39,0,0,0-.82-1,1.69,1.69,0,0,0-2-.15c-.42.27-.75.75-1.25.81a1.08,1.08,0,0,1-1.1-.9,2.39,2.39,0,0,1,.28-1.5A3.34,3.34,0,0,1,539.79,441.75Z" transform="translate(-95 -323.75)"/><path class="cls-22" d="M516.06,448.16a1.43,1.43,0,0,1,.48.58,8.57,8.57,0,0,1,1,4.24,1,1,0,0,1-.19.66.68.68,0,0,1-.87,0,1.83,1.83,0,0,1-.47-.81,16,16,0,0,1-.86-4.16A.55.55,0,0,1,516.06,448.16Z" transform="translate(-95 -323.75)"/><rect class="cls-11" x="1414.79" y="432.68" width="138.8" height="93.12" transform="translate(2873.38 634.72) rotate(180)"/><polygon class="cls-12" points="1319.79 108.93 1273.62 73.09 1234.99 108.93 1234.29 202.05 1319.79 202.05 1319.79 108.93"/><polygon class="cls-13" points="1458.59 108.93 1466.76 101.21 1410.77 55.52 1271.81 55.52 1221.24 101.21 1226.8 108.93 1234.99 108.93 1273.62 73.09 1312.58 108.93 1458.59 108.93"/><polygon class="cls-14" points="1312.58 108.93 1317.09 98.02 1466.76 101.21 1458.59 108.93 1312.58 108.93"/><polygon class="cls-15" points="1317.09 98.02 1271.81 55.52 1221.24 101.21 1226.8 108.93 1269.07 69.46 1312.58 108.93 1317.09 98.02"/><polygon class="cls-14" points="1234.99 108.93 1226.8 108.93 1269.07 69.46 1273.62 73.09 1234.99 108.93"/><rect class="cls-11" x="1533.39" y="525.8" width="20.2" height="7.62" transform="translate(2991.98 735.46) rotate(180)"/><rect class="cls-11" x="1414.67" y="525.8" width="20.2" height="7.62" transform="translate(2754.54 735.46) rotate(180)"/><path class="cls-12" d="M1414.67,533.41c-.67-.12-11.14,0-11.14,0l-6.83-7.61h18Z" transform="translate(-95 -323.75)"/><path class="cls-12" d="M1329.28,525.8s-1.17,8.05-.73,8.22,7.26.29,7.7,0,9.15-8.22,9.15-8.22Z" transform="translate(-95 -323.75)"/><polygon class="cls-16" points="1262.9 202.05 1256.07 210.44 1241.25 210.26 1250.4 202.05 1262.9 202.05"/><polygon class="cls-16" points="1438.39 209.66 1425.89 209.66 1420.1 202.05 1438.39 202.05 1438.39 209.66"/><path class="cls-17" d="M1414.67,444.29c-1.14-.22-41.78-39.2-42.63-37.94s-42.15,39.37-42.15,39.37l.1-13,38.63-35.84,39,35.84h7.21Z" transform="translate(-95 -323.75)"/><polygon class="cls-18" points="1319.67 120.54 1458.59 121.97 1458.59 108.93 1319.79 108.93 1319.67 120.54"/><rect class="cls-19" x="1329.89" y="452.07" width="223.47" height="1.3" transform="translate(2788.25 581.68) rotate(180)"/><rect class="cls-19" x="1330.51" y="478.59" width="223.47" height="1.3" transform="translate(2789.48 634.72) rotate(180)"/><rect class="cls-19" x="1330.51" y="507.9" width="223.47" height="1.3" transform="translate(2789.48 693.35) rotate(180)"/><ellipse class="cls-20" cx="1272.7" cy="152.34" rx="23.81" ry="31.8"/><path class="cls-16" d="M1366.88,444.29a18.21,18.21,0,0,1,3.77.4c-11.36,2.41-20.05,15.55-20.05,31.4s8.69,29,20.05,31.41a18.21,18.21,0,0,1-3.77.4c-13.15,0-23.81-14.24-23.81-31.81S1353.73,444.29,1366.88,444.29Z" transform="translate(-95 -323.75)"/><path class="cls-10" d="M1507.48,385.7q10.27,9.21,19.66,19.34a4.32,4.32,0,0,1,1.42,2.44c.16,1.75-1.89,3-3.63,2.81s-3.17-1.48-4.48-2.66l-21.14-19.08c-2-1.76-3.38-4.79-.28-6.15C1501.89,381.15,1505.56,384,1507.48,385.7Z" transform="translate(-95 -323.75)"/><path class="cls-10" d="M1532.67,412.59a9.91,9.91,0,0,1,5,2.63,3.66,3.66,0,0,1,1.18,1.93c.3,1.78-1.73,3.25-3.53,3.06s-3.27-1.45-4.55-2.72a5.27,5.27,0,0,1-1.66-2.52,1.94,1.94,0,0,1,1.41-2.34c.78-.08,2,.26,2.08-.53Z" transform="translate(-95 -323.75)"/><text class="cls-29" transform="translate(530.58 244.21)"><tspan class="cls-30">A</tspan><tspan class="cls-31" x="74.57" y="0">C</tspan><tspan x="144.05" y="0">CESORIOS</tspan></text></svg>