<svg id="Capa_1" data-name="Capa 1" xmlns="http://www.w3.org/2000/svg" viewBox="0 0 1730 399"><defs><style>.cls-1{fill:#ffeabb;}.cls-2{fill:#686663;}.cls-3{fill:#3b3f4f;}.cls-4{fill:#26a8ef;}.cls-5{fill:#2396c9;}.cls-11,.cls-16,.cls-17,.cls-18,.cls-6{fill:#fff;}.cls-6{opacity:0.47;}.cls-7{fill:#b1ed8a;}.cls-8{fill:#97c977;}.cls-9{fill:#ff5122;}.cls-10{fill:#db421f;}.cls-12{fill:#e8bb28;}.cls-13{fill:#bf9325;}.cls-14{fill:#e5e0b1;}.cls-15{fill:#d8c5a0;}.cls-16{opacity:0.68;}.cls-17{opacity:0.43;}.cls-18{opacity:0.58;}.cls-19{font-size:96.1px;font-family:Montserrat-ExtraBold, Montserrat;font-weight:800;}.cls-20{letter-spacing:0em;}</style></defs><rect class="cls-1" width="1730" height="399"/><path class="cls-2" d="M1245.57,364a1.49,1.49,0,1,0-2.58-1.24,2.12,2.12,0,0,0-.06,1.82l-10.44,21.66,1.28.62,10.43-21.67A2.08,2.08,0,0,0,1245.57,364Z" transform="translate(-95 -307)"/><path class="cls-2" d="M1248.11,365.21a1.49,1.49,0,1,0-2.58-1.24,2.07,2.07,0,0,0-.07,1.81L1235,387.45l1.27.61,10.43-21.66A2.12,2.12,0,0,0,1248.11,365.21Z" transform="translate(-95 -307)"/><path class="cls-2" d="M1250.64,366.43a1.49,1.49,0,1,0-2.58-1.24A2.1,2.1,0,0,0,1248,367l-10.43,21.67,1.27.61,10.43-21.66A2.1,2.1,0,0,0,1250.64,366.43Z" transform="translate(-95 -307)"/><path class="cls-2" d="M1255.71,368.87a1.49,1.49,0,1,0-2.58-1.24,2.07,2.07,0,0,0-.07,1.81l-10.43,21.67,1.27.61,10.43-21.66A2.12,2.12,0,0,0,1255.71,368.87Z" transform="translate(-95 -307)"/><path class="cls-2" d="M1258.24,370.09a1.49,1.49,0,1,0-2.58-1.24,2.1,2.1,0,0,0-.07,1.81l-10.43,21.67,1.27.61,10.43-21.66A2.1,2.1,0,0,0,1258.24,370.09Z" transform="translate(-95 -307)"/><path class="cls-2" d="M1273.44,377.41a1.49,1.49,0,1,0-2.58-1.24,2.07,2.07,0,0,0-.07,1.81l-10.43,21.67,1.27.61,10.43-21.67A2.08,2.08,0,0,0,1273.44,377.41Z" transform="translate(-95 -307)"/><path class="cls-2" d="M1281,381.07a1.49,1.49,0,1,0-2.58-1.24,2.07,2.07,0,0,0-.07,1.81L1268,403.31l1.27.61,10.43-21.67A2.08,2.08,0,0,0,1281,381.07Z" transform="translate(-95 -307)"/><path class="cls-2" d="M1324.1,401.8a1.49,1.49,0,1,0-2.57-1.24,2.07,2.07,0,0,0-.07,1.81L1311,424l1.27.61L1322.73,403A2.06,2.06,0,0,0,1324.1,401.8Z" transform="translate(-95 -307)"/><path class="cls-2" d="M1288.64,384.72a1.49,1.49,0,1,0-2.58-1.24,2.09,2.09,0,0,0-.07,1.82L1275.56,407l1.27.61,10.43-21.67A2.07,2.07,0,0,0,1288.64,384.72Z" transform="translate(-95 -307)"/><path class="cls-2" d="M1301.3,390.82a1.49,1.49,0,1,0-2.57-1.24,2.09,2.09,0,0,0-.07,1.82l-10.43,21.66,1.27.62L1299.93,392A2.08,2.08,0,0,0,1301.3,390.82Z" transform="translate(-95 -307)"/><path class="cls-2" d="M1311.44,395.7a1.49,1.49,0,1,0-2.58-1.24,2.07,2.07,0,0,0-.07,1.81l-10.43,21.67,1.27.61,10.43-21.66A2.12,2.12,0,0,0,1311.44,395.7Z" transform="translate(-95 -307)"/><path class="cls-2" d="M1253.17,367.65a1.49,1.49,0,1,0-2.58-1.24,2.07,2.07,0,0,0-.06,1.81l-10.44,21.67,1.28.61,10.43-21.66A2.11,2.11,0,0,0,1253.17,367.65Z" transform="translate(-95 -307)"/><path class="cls-2" d="M1260.77,371.31a1.49,1.49,0,1,0-2.58-1.24,2.1,2.1,0,0,0-.07,1.81l-10.43,21.67,1.28.61,10.43-21.66A2.11,2.11,0,0,0,1260.77,371.31Z" transform="translate(-95 -307)"/><path class="cls-2" d="M1265.84,373.75a1.49,1.49,0,1,0-2.58-1.24,2.07,2.07,0,0,0-.07,1.81L1252.76,396l1.27.61,10.43-21.67A2.08,2.08,0,0,0,1265.84,373.75Z" transform="translate(-95 -307)"/><path class="cls-2" d="M1270.9,376.19a1.49,1.49,0,1,0-2.57-1.24,2.07,2.07,0,0,0-.07,1.81l-10.43,21.67,1.27.61,10.43-21.67A2.07,2.07,0,0,0,1270.9,376.19Z" transform="translate(-95 -307)"/><path class="cls-2" d="M1278.5,379.85a1.49,1.49,0,1,0-2.57-1.24,2.07,2.07,0,0,0-.07,1.81l-10.43,21.67,1.27.61L1277.13,381A2.07,2.07,0,0,0,1278.5,379.85Z" transform="translate(-95 -307)"/><path class="cls-2" d="M1296.24,388.38a1.49,1.49,0,1,0-2.58-1.24,2.09,2.09,0,0,0-.07,1.82l-10.43,21.66,1.27.62,10.43-21.67A2.07,2.07,0,0,0,1296.24,388.38Z" transform="translate(-95 -307)"/><path class="cls-2" d="M1303.84,392a1.49,1.49,0,1,0-2.58-1.24,2.09,2.09,0,0,0-.07,1.82l-10.43,21.66,1.27.62,10.43-21.67A2.07,2.07,0,0,0,1303.84,392Z" transform="translate(-95 -307)"/><path class="cls-2" d="M1314,396.92a1.49,1.49,0,1,0-2.58-1.24,2.1,2.1,0,0,0-.07,1.81l-10.43,21.67,1.27.61,10.44-21.66A2.11,2.11,0,0,0,1314,396.92Z" transform="translate(-95 -307)"/><path class="cls-2" d="M1321.57,400.58a1.49,1.49,0,1,0-2.58-1.24,2.1,2.1,0,0,0-.07,1.81l-10.43,21.67,1.27.61,10.44-21.67A2.06,2.06,0,0,0,1321.57,400.58Z" transform="translate(-95 -307)"/><path class="cls-2" d="M1331.7,405.46a1.49,1.49,0,1,0-2.57-1.24,2.07,2.07,0,0,0-.07,1.81l-10.43,21.67,1.27.61,10.43-21.67A2.09,2.09,0,0,0,1331.7,405.46Z" transform="translate(-95 -307)"/><path class="cls-2" d="M1263.3,372.53a1.49,1.49,0,1,0-2.57-1.24,2.07,2.07,0,0,0-.07,1.81l-10.43,21.67,1.27.61,10.43-21.67A2,2,0,0,0,1263.3,372.53Z" transform="translate(-95 -307)"/><path class="cls-2" d="M1268.37,375a1.49,1.49,0,1,0-2.58-1.24,2.1,2.1,0,0,0-.07,1.81l-10.43,21.67,1.28.61L1267,376.15A2.09,2.09,0,0,0,1268.37,375Z" transform="translate(-95 -307)"/><path class="cls-2" d="M1276,378.63a1.49,1.49,0,1,0-2.58-1.24,2.1,2.1,0,0,0-.07,1.81l-10.43,21.67,1.28.61,10.43-21.67A2.09,2.09,0,0,0,1276,378.63Z" transform="translate(-95 -307)"/><path class="cls-2" d="M1286.1,383.51a1.49,1.49,0,1,0-2.57-1.25,2.09,2.09,0,0,0-.07,1.82L1273,405.75l1.27.61,10.43-21.67A2.09,2.09,0,0,0,1286.1,383.51Z" transform="translate(-95 -307)"/><path class="cls-2" d="M1291.17,385.94a1.49,1.49,0,1,0-2.58-1.24,2.13,2.13,0,0,0-.07,1.82l-10.43,21.66,1.28.62,10.43-21.67A2.08,2.08,0,0,0,1291.17,385.94Z" transform="translate(-95 -307)"/><path class="cls-2" d="M1308.9,394.48a1.49,1.49,0,1,0-2.57-1.24,2.07,2.07,0,0,0-.07,1.81l-10.43,21.67,1.27.61,10.43-21.66A2.11,2.11,0,0,0,1308.9,394.48Z" transform="translate(-95 -307)"/><path class="cls-2" d="M1319,399.36a1.49,1.49,0,1,0-2.58-1.24,2.07,2.07,0,0,0-.07,1.81L1306,421.6l1.27.61,10.43-21.66A2.12,2.12,0,0,0,1319,399.36Z" transform="translate(-95 -307)"/><path class="cls-2" d="M1346.9,412.78a1.49,1.49,0,1,0-2.57-1.25,2.09,2.09,0,0,0-.07,1.82L1333.83,435l1.27.61L1345.53,414A2.09,2.09,0,0,0,1346.9,412.78Z" transform="translate(-95 -307)"/><path class="cls-2" d="M1326.64,403a1.49,1.49,0,1,0-2.58-1.24,2.07,2.07,0,0,0-.07,1.81l-10.43,21.67,1.27.61,10.43-21.67A2.11,2.11,0,0,0,1326.64,403Z" transform="translate(-95 -307)"/><path class="cls-2" d="M1334.24,406.68a1.49,1.49,0,1,0-2.58-1.24,2.07,2.07,0,0,0-.07,1.81l-10.43,21.67,1.27.61,10.43-21.67A2.11,2.11,0,0,0,1334.24,406.68Z" transform="translate(-95 -307)"/><path class="cls-2" d="M1339.3,409.12a1.49,1.49,0,1,0-2.57-1.24,2.07,2.07,0,0,0-.07,1.81l-10.43,21.67,1.27.61,10.43-21.67A2.09,2.09,0,0,0,1339.3,409.12Z" transform="translate(-95 -307)"/><path class="cls-2" d="M1283.57,382.29a1.49,1.49,0,1,0-2.58-1.24,2.1,2.1,0,0,0-.07,1.81l-10.43,21.67,1.28.61,10.43-21.67A2.09,2.09,0,0,0,1283.57,382.29Z" transform="translate(-95 -307)"/><path class="cls-2" d="M1293.7,387.16a1.49,1.49,0,1,0-2.57-1.24,2.09,2.09,0,0,0-.07,1.82l-10.43,21.66,1.27.62,10.43-21.67A2.08,2.08,0,0,0,1293.7,387.16Z" transform="translate(-95 -307)"/><path class="cls-2" d="M1298.77,389.6a1.49,1.49,0,1,0-2.58-1.24,2.13,2.13,0,0,0-.07,1.82l-10.43,21.66,1.27.62,10.44-21.67A2.08,2.08,0,0,0,1298.77,389.6Z" transform="translate(-95 -307)"/><path class="cls-2" d="M1306.37,393.26a1.49,1.49,0,1,0-2.58-1.24,2.1,2.1,0,0,0-.07,1.81l-10.43,21.67,1.27.61L1305,394.45A2.08,2.08,0,0,0,1306.37,393.26Z" transform="translate(-95 -307)"/><path class="cls-2" d="M1316.5,398.14a1.49,1.49,0,1,0-2.57-1.24,2.07,2.07,0,0,0-.07,1.81l-10.43,21.67,1.27.61,10.43-21.66A2.11,2.11,0,0,0,1316.5,398.14Z" transform="translate(-95 -307)"/><path class="cls-2" d="M1329.17,404.24a1.49,1.49,0,1,0-2.58-1.24,2.1,2.1,0,0,0-.07,1.81l-10.43,21.67,1.27.61,10.44-21.67A2.09,2.09,0,0,0,1329.17,404.24Z" transform="translate(-95 -307)"/><path class="cls-2" d="M1336.77,407.9a1.49,1.49,0,1,0-2.58-1.24,2.1,2.1,0,0,0-.07,1.81l-10.43,21.67,1.27.61,10.44-21.67A2.09,2.09,0,0,0,1336.77,407.9Z" transform="translate(-95 -307)"/><path class="cls-2" d="M1341.84,410.34a1.49,1.49,0,1,0-2.58-1.24,2.07,2.07,0,0,0-.07,1.81l-10.43,21.67,1.27.61,10.43-21.67A2.11,2.11,0,0,0,1341.84,410.34Z" transform="translate(-95 -307)"/><path class="cls-2" d="M1344.37,411.56a1.49,1.49,0,1,0-2.58-1.25,2.13,2.13,0,0,0-.07,1.82l-10.43,21.67,1.27.61L1343,412.74A2.09,2.09,0,0,0,1344.37,411.56Z" transform="translate(-95 -307)"/><path class="cls-2" d="M1349.44,414a1.49,1.49,0,1,0-2.58-1.24,2.09,2.09,0,0,0-.07,1.82l-10.43,21.67,1.27.61,10.43-21.67A2.1,2.1,0,0,0,1349.44,414Z" transform="translate(-95 -307)"/><path class="cls-3" d="M1469.52,513.66a8.68,8.68,0,0,1,4.29,3.39c.89,1.63.62,4-1,4.91a5,5,0,0,1-3.79,0,44.29,44.29,0,0,1-7.33-3.24l-3-1.52a3.38,3.38,0,0,1-1.6-1.32c-.32-.63,0-1.58.66-1.67,3.39,1.9,6.85,3.82,10.64,4.63.78.17,1.76.21,2.17-.47s0-1.46-.52-2c-1.58-1.68-4-2.2-6.29-2.62-1.6-.3-3.25-.53-4.81-1C1459.25,509.09,1467.7,512.84,1469.52,513.66Z" transform="translate(-95 -307)"/><path class="cls-4" d="M1228.29,389.15l110.89,53.39-7.73,16.06a10.61,10.61,0,0,1-14.16,5l-80.91-38.95a10.61,10.61,0,0,1-6-8.73Z" transform="translate(-95 -307)"/><path class="cls-5" d="M1333.14,439.63l-4.82,10a10.61,10.61,0,0,1-14.16,4.95l-80.92-38.95a10.77,10.77,0,0,1-3-2.2l.19,2.42a10.61,10.61,0,0,0,6,8.73l80.91,38.95a10.61,10.61,0,0,0,14.16-5l7.73-16.06Z" transform="translate(-95 -307)"/><path class="cls-3" d="M1338.77,442.34,1228,389a3.12,3.12,0,0,1-1.46-4.17h0a3.11,3.11,0,0,1,4.16-1.46l110.75,53.32a3.11,3.11,0,0,1,1.46,4.16h0A3.12,3.12,0,0,1,1338.77,442.34Z" transform="translate(-95 -307)"/><path class="cls-4" d="M1460.87,512.27a6.69,6.69,0,0,0-3.13-8.93l-120-57.78-5.68,11.79,22.22,10.7c.28,2.66-.73,8.39,9.39,13.48,7.45,3.75,12.59,4.3,16.55,2.41,1.16,5.95,7.22,9,12.68,11.66,4.55,2.2,9.92,4.72,13.95,1.66-.61,3.48,9.25,10.18,13.33,12.24,5.22,2.65,12.8,4.5,16.14,1.39,0,4.68,4.18,7.8,8.46,9.69,2.69,1.18,5.37,2.58,8.2,1.78a8,8,0,0,0,5.12-4.33h0Z" transform="translate(-95 -307)"/><path class="cls-5" d="M1454.52,519.14c-2.83.8-5.51-.6-8.2-1.78-4.28-1.89-8.5-5-8.46-9.69-3.34,3.11-10.92,1.25-16.14-1.39-4.08-2.06-13.94-8.76-13.33-12.24-4,3-9.4.54-14-1.66-5.46-2.64-11.51-5.71-12.68-11.66-4,1.88-9.09,1.34-16.55-2.42-10.11-5.08-9.1-10.81-9.39-13.47l-22.22-10.7-1.55,3.22,22.22,10.7c.28,2.66-.73,8.39,9.39,13.48,7.45,3.75,12.59,4.3,16.55,2.41,1.16,5.95,7.22,9,12.68,11.66,4.55,2.2,9.92,4.72,13.95,1.66-.61,3.48,9.25,10.18,13.33,12.24,5.22,2.65,12.8,4.5,16.14,1.39,0,4.68,4.18,7.8,8.46,9.69,2.69,1.18,5.37,2.58,8.2,1.78a8,8,0,0,0,5.12-4.33h0l1.55-3.22h0A8,8,0,0,1,1454.52,519.14Z" transform="translate(-95 -307)"/><polygon class="cls-5" points="1139.42 85.11 1242.93 134.91 1239.65 141.72 1139.42 85.11"/><path class="cls-6" d="M1234.28,401.63l-.33,6.88a13.9,13.9,0,0,0,.09,3.16,6.19,6.19,0,0,0,5.56,5,2.63,2.63,0,0,0,1.54-.36c.89-.61,1-1.87,1-2.95,0-3.19-.07-6.38-.11-9.57,0-2-.59-4.82-2.47-5.91C1236.49,396.14,1234.42,398.89,1234.28,401.63Z" transform="translate(-95 -307)"/><path class="cls-6" d="M1361,462.64c-.73,1.43,1.12,2.77,2.62,3.34a235.35,235.35,0,0,1,32.31,15.18c1.84,1,3.78,2.14,5.9,2.16.78,0,1.71-.27,1.92-1,.26-.94-.78-1.69-1.66-2.11C1397.76,478.13,1362.68,459.31,1361,462.64Z" transform="translate(-95 -307)"/><path class="cls-7" d="M715.17,435.61c0-4.55-2.08-8.72-5.36-10.87l-23.42-15.36a8.86,8.86,0,0,0-3.73-1.4,4.91,4.91,0,0,1,.06-.63H667.28a8.69,8.69,0,0,0-4.77,1.47l-23.44,15.32c-3.27,2.15-5.33,6.31-5.36,10.87L633,542.88c0,6.91,4.5,12.53,10.13,12.53l62.5.59c5.63,0,10.19-5.61,10.15-12.51Z" transform="translate(-95 -307)"/><path class="cls-8" d="M715.17,435.61c0-4.55-2.08-8.72-5.36-10.87l-23.42-15.36a8.86,8.86,0,0,0-3.73-1.4,4.91,4.91,0,0,1,.06-.63h-5.67l20,13.09c3.27,2.15,5.32,6.32,5.35,10.87L703,539.19c0,6.9-4.52,12.52-10.15,12.51l-57.35-.59a9.47,9.47,0,0,0,7.66,4.3l62.5.59c5.63,0,10.19-5.61,10.15-12.51Z" transform="translate(-95 -307)"/><polygon class="cls-9" points="595.5 60.07 580.62 60.07 565.75 60.07 557.01 108.15 580.62 108.15 604.24 108.15 595.5 60.07"/><polygon class="cls-10" points="595.5 60.07 588.98 60.07 597.72 108.15 604.24 108.15 595.5 60.07"/><polygon class="cls-8" points="558.01 108.03 602.38 108.03 606.15 112.06 555.31 109.79 558.01 108.03"/><path class="cls-6" d="M661.08,388.52l-2.07,14a11.31,11.31,0,0,0-.06,4.56,3.45,3.45,0,0,0,6.63.89,10.87,10.87,0,0,0,1.06-4.25q.5-4.67.72-9.36c.13-2.7.83-6.39.15-9-.39-1.53-1.87-3-3.58-2.56C661.73,383.38,661.36,386.66,661.08,388.52Z" transform="translate(-95 -307)"/><path class="cls-6" d="M665.31,372.34a3.29,3.29,0,0,0-2.1,1.81,5,5,0,0,0-.33,2.81,3,3,0,0,0,1.32,2.3,2.69,2.69,0,0,0,3.36-1.19,7.66,7.66,0,0,0,.81-3.8,2.55,2.55,0,0,0-.14-1.2c-.42-.93-1.67-1.05-2.69-1Z" transform="translate(-95 -307)"/><rect class="cls-4" x="547.14" y="128.4" width="63.48" height="95.47" rx="31.74"/><path class="cls-11" d="M654.5,490.07a2.17,2.17,0,0,1,1.47,1.46,4.3,4.3,0,0,1-.09,2.71,7.75,7.75,0,0,1-.65,1.54,9.18,9.18,0,0,1-.8,1.14l-1.76-.55.06-.2a4.68,4.68,0,0,0,1.13-1.09,4.08,4.08,0,0,0,.79-1.78,1.88,1.88,0,0,0,.05-.49,1.28,1.28,0,0,0-.12-.43.49.49,0,0,0-.35-.26.56.56,0,0,0-.48.07,1.59,1.59,0,0,0-.45.52c-.15.26-.3.53-.45.82a8.26,8.26,0,0,1-.49.79,2.76,2.76,0,0,1-1.23,1.08,2.17,2.17,0,0,1-2.79-1.42,4.22,4.22,0,0,1,.08-2.57A7.64,7.64,0,0,1,649,490a6.59,6.59,0,0,1,.73-1.12l1.69.53-.07.2a4.34,4.34,0,0,0-.93.9,4,4,0,0,0-.64,1.24,4.21,4.21,0,0,0-.12.48,2,2,0,0,0,0,.49,1,1,0,0,0,.12.4.51.51,0,0,0,.3.24.54.54,0,0,0,.51-.08,2.67,2.67,0,0,0,.54-.75l.41-.73c.13-.23.28-.47.46-.73a2.78,2.78,0,0,1,1.14-1A1.92,1.92,0,0,1,654.5,490.07Z" transform="translate(-95 -307)"/><path class="cls-11" d="M661.58,484.89l-1.28,1.51-2.58-2.18-1.89,2.23,2.59,2.19-1.28,1.51-5.87-5,1.28-1.51,2.15,1.81,1.89-2.23-2.15-1.81,1.28-1.52Z" transform="translate(-95 -307)"/><path class="cls-11" d="M669,481.05l-1.84.9L666,480.78,663.46,482l.2,1.63-1.79.87-.81-8.15,2.05-1Zm-4-1.32-2.06-2.07.36,2.89Z" transform="translate(-95 -307)"/><path class="cls-11" d="M677.48,480.87l-2,0-.08-5.14-1.37,3.36-1.37,0-1.48-3.32.09,5.15-1.87,0-.12-7.68,2.29,0,1.8,3.82,1.65-3.88,2.3,0Z" transform="translate(-95 -307)"/><path class="cls-11" d="M686.61,479.27a3,3,0,0,1-.58.84,2.25,2.25,0,0,1-.82.54,3,3,0,0,1-1.21.19,3.66,3.66,0,0,1-1.38-.37L681.5,480l-1,2.27-1.8-.82,3.2-7,3,1.36a5.93,5.93,0,0,1,1.07.63,2.91,2.91,0,0,1,.65.72,2,2,0,0,1,.32,1A2.46,2.46,0,0,1,686.61,479.27Zm-1.88-.81a.94.94,0,0,0,.07-.59,1,1,0,0,0-.23-.46,2.09,2.09,0,0,0-.49-.38l-.71-.34-.31-.14-1,2.09.52.24a5.69,5.69,0,0,0,.78.29,1.22,1.22,0,0,0,.6,0,1,1,0,0,0,.42-.24A1.74,1.74,0,0,0,684.73,478.46Z" transform="translate(-95 -307)"/><path class="cls-11" d="M692.87,487.47a4,4,0,0,1-2.87,1.17,4.43,4.43,0,0,1-3.88-4.33,4.56,4.56,0,0,1,4.34-3.9,4.45,4.45,0,0,1,3.88,4.31A4,4,0,0,1,692.87,487.47Zm-3.2-.65a2.51,2.51,0,0,0,.91-.24,4,4,0,0,0,.92-.65,3.81,3.81,0,0,0,.77-.9,2.19,2.19,0,0,0,.3-.84,1.47,1.47,0,0,0-.07-.75,1.86,1.86,0,0,0-.37-.62,1.9,1.9,0,0,0-.58-.44,1.72,1.72,0,0,0-.74-.16,2.31,2.31,0,0,0-.87.22,4.51,4.51,0,0,0-1.75,1.57,2.15,2.15,0,0,0-.3.83,1.44,1.44,0,0,0,.07.75,1.79,1.79,0,0,0,.37.64,1.83,1.83,0,0,0,.6.44A1.56,1.56,0,0,0,689.67,486.82Z" transform="translate(-95 -307)"/><path class="cls-11" d="M696.17,496.84a4,4,0,0,1-3.1-.16,3.9,3.9,0,0,1-1.87-2.48,3.83,3.83,0,0,1,.2-3.09,4.56,4.56,0,0,1,5.59-1.68,4.46,4.46,0,0,1,1.68,5.56A4,4,0,0,1,696.17,496.84Zm-2.62-1.95a2.29,2.29,0,0,0,.92.17,3.69,3.69,0,0,0,1.11-.19,3.62,3.62,0,0,0,1.08-.49,2.1,2.1,0,0,0,.63-.63,1.57,1.57,0,0,0,.26-.71,2,2,0,0,0-.08-.72,1.86,1.86,0,0,0-.33-.64,1.66,1.66,0,0,0-.6-.46,2.22,2.22,0,0,0-.88-.17,3.73,3.73,0,0,0-1.18.18,3.81,3.81,0,0,0-1.07.49,2.38,2.38,0,0,0-.64.62,1.6,1.6,0,0,0-.25.71,1.87,1.87,0,0,0,.07.74,1.78,1.78,0,0,0,.35.65A1.65,1.65,0,0,0,693.55,494.89Z" transform="translate(-95 -307)"/><path class="cls-11" d="M667.24,461.77a5.38,5.38,0,0,1-.7,2.75,5.15,5.15,0,0,1-1.77,1.87,5.66,5.66,0,0,1-1.77.68,11.64,11.64,0,0,1-2.28.19h-3.88v-11h4a10.5,10.5,0,0,1,2.32.22,5.35,5.35,0,0,1,1.64.64,5,5,0,0,1,1.79,1.87A5.63,5.63,0,0,1,667.24,461.77Zm-2.93,0a3.93,3.93,0,0,0-.4-1.86,2.72,2.72,0,0,0-1.25-1.21,3.31,3.31,0,0,0-.89-.29,9,9,0,0,0-1.37-.08h-.72v6.89h.72a8.91,8.91,0,0,0,1.49-.09,3.31,3.31,0,0,0,.92-.34,2.72,2.72,0,0,0,1.14-1.19A4.14,4.14,0,0,0,664.31,461.75Z" transform="translate(-95 -307)"/><path class="cls-11" d="M680.11,461.76a5.7,5.7,0,0,1-1.51,4.18,6.37,6.37,0,0,1-8.33,0,6.59,6.59,0,0,1,0-8.37,6.4,6.4,0,0,1,8.33,0A5.7,5.7,0,0,1,680.11,461.76Zm-3.76,2.79a3.2,3.2,0,0,0,.61-1.19,5.49,5.49,0,0,0,.2-1.61,5.17,5.17,0,0,0-.23-1.68,3.28,3.28,0,0,0-.59-1.12,2.42,2.42,0,0,0-.87-.65,2.78,2.78,0,0,0-1-.2,2.6,2.6,0,0,0-1,.2,2.36,2.36,0,0,0-.88.63,3.06,3.06,0,0,0-.6,1.14,6.42,6.42,0,0,0,0,3.37,3.22,3.22,0,0,0,.6,1.12,2.26,2.26,0,0,0,.86.65,2.83,2.83,0,0,0,1,.2,2.66,2.66,0,0,0,1-.21A2.34,2.34,0,0,0,676.35,464.55Z" transform="translate(-95 -307)"/><path class="cls-11" d="M692,466.63a13.33,13.33,0,0,1-2,.58,10.6,10.6,0,0,1-2.43.28,6.09,6.09,0,0,1-4.4-1.53,6.25,6.25,0,0,1,0-8.35,6.11,6.11,0,0,1,4.47-1.57,10.54,10.54,0,0,1,2.07.2A9.09,9.09,0,0,1,692,457v2.58h-.32l-.61-.44a8.73,8.73,0,0,0-.76-.49,4.72,4.72,0,0,0-1-.4,4.38,4.38,0,0,0-2.58.05,3,3,0,0,0-1.84,1.81,4.23,4.23,0,0,0-.27,1.57,3.82,3.82,0,0,0,1,2.8,3.91,3.91,0,0,0,2.86,1h.36l.36,0v-2.16h-2.2V461.2H692Z" transform="translate(-95 -307)"/><path class="cls-11" d="M666.14,507c-1.08,2.44-.67,5.29.14,7.83.69,2.2,1.77,4.44,3.76,5.6,2.61,1.52,6.16.61,8.26-1.56a12.2,12.2,0,0,0,3-8.33,8.52,8.52,0,0,0-1.06-4.72C677.26,501.15,668.32,502.08,666.14,507Z" transform="translate(-95 -307)"/><path class="cls-11" d="M671.46,495.72a3.93,3.93,0,0,0-.55,2.43,3.5,3.5,0,0,0,1.36,2.91,2.22,2.22,0,0,0,2.6-.3,3.06,3.06,0,0,0,.77-1.4,4.31,4.31,0,0,0,0-2.54C675,495.05,672.77,493.81,671.46,495.72Z" transform="translate(-95 -307)"/><path class="cls-11" d="M681.7,497.23A4,4,0,0,0,680,499a3.45,3.45,0,0,0-.35,3.19,2.21,2.21,0,0,0,2.36,1.11,3,3,0,0,0,1.39-.79,4.29,4.29,0,0,0,1.31-2.18C685.08,498.51,683.82,496.28,681.7,497.23Z" transform="translate(-95 -307)"/><path class="cls-11" d="M661.74,499.78a4,4,0,0,0,.34,2.46,3.51,3.51,0,0,0,2.3,2.25,2.22,2.22,0,0,0,2.33-1.19,3.16,3.16,0,0,0,.23-1.58,4.29,4.29,0,0,0-.91-2.38C664.83,497.9,662.3,497.53,661.74,499.78Z" transform="translate(-95 -307)"/><path class="cls-6" d="M637.17,443c.19.41.54.85,1,.77a1.1,1.1,0,0,0,.6-.47,8.09,8.09,0,0,0,1.56-4,33.37,33.37,0,0,1,.29-4.26,7.31,7.31,0,0,1,4.47-4.69,21.86,21.86,0,0,1,6.58-1.25l8.38-.71c1.52-.13,3.41-.58,3.67-2.08a2.3,2.3,0,0,0-1-2.15,5.87,5.87,0,0,0-2.34-.87,25.23,25.23,0,0,0-12.18.38c-3.73,1.11-8.18,3.58-10.24,7C636.06,433.78,635.64,439.76,637.17,443Z" transform="translate(-95 -307)"/><path class="cls-12" d="M1551.29,181.15h0a56.29,56.29,0,0,1,56.29,56.29v89.49a0,0,0,0,1,0,0H1495a0,0,0,0,1,0,0V237.43A56.29,56.29,0,0,1,1551.29,181.15Z"/><path class="cls-13" d="M1675,496a51.55,51.55,0,0,1,13.8,20,50.31,50.31,0,0,1,2.81,11.34V628.3H1590v5.56h112.57V533a53,53,0,0,0-6-16.16A54.8,54.8,0,0,0,1675,496Z" transform="translate(-95 -307)"/><rect class="cls-14" x="1528.62" y="158.03" width="47.94" height="23.12"/><rect class="cls-14" x="1543.16" y="117.25" width="20.87" height="29.09"/><path class="cls-14" d="M1638.16,429.23s-14.42-1.22-15.08-5,.33-8.22,4.12-8.22,67-.33,69,1.16,6.38,9.73,6.38,9.73l-9.35.33s-.82-3.66-3-4.63-31.23,6.61-31.23,6.61Z" transform="translate(-95 -307)"/><rect class="cls-14" x="1547.22" y="146.34" width="12.54" height="14.84"/><polygon class="cls-15" points="1547.22 148.97 1559.77 153.76 1559.77 146.34 1547.22 146.34 1547.22 148.97"/><rect class="cls-15" x="1567.73" y="158.03" width="8.83" height="23.12"/><path class="cls-15" d="M1638.16,429.23H1659v5.62l-20.86-4Z" transform="translate(-95 -307)"/><path class="cls-16" d="M1629.28,468.52a3.56,3.56,0,0,0-1.08,1.65,14.67,14.67,0,0,0-.42,5.8c.15,2.38.29,4.76.44,7.14a3.11,3.11,0,0,0,.5,1.81,2.69,2.69,0,0,0,1.3.74,2.93,2.93,0,0,0,3-.4,3.26,3.26,0,0,0,.66-2.19,26.87,26.87,0,0,0-.25-4.66c-.28-1.94-.75-4,.06-5.77.62-1.35,2.16-3.3.35-4.5C1632.79,467.46,1630.17,467.84,1629.28,468.52Z" transform="translate(-95 -307)"/><path class="cls-9" d="M1647.59,510.32c-21.61,0-39.12,10.24-39.12,22.87v77.73h78.25V533.19C1686.72,520.56,1669.2,510.32,1647.59,510.32Z" transform="translate(-95 -307)"/><path class="cls-14" d="M1673.57,578.19h0c.23-6.37-1.69-23.61-3.24-24.3a3.14,3.14,0,0,0-2.8.45,22.51,22.51,0,0,0-4.23,3.59l-4.41,4.4a28,28,0,0,0-18.86.07l-4.48-4.47a22.51,22.51,0,0,0-4.23-3.59,3.24,3.24,0,0,0-2.8-.45c-1.54.64-3,17.22-2.82,23.59h0a18.45,18.45,0,0,0-.52,4.36c0,11.66,10.91,21.11,24.37,21.11s24.38-9.45,24.38-21.11A18.29,18.29,0,0,0,1673.57,578.19Z" transform="translate(-95 -307)"/><path class="cls-17" d="M1648.29,544.35a7,7,0,1,1-7-7A7,7,0,0,1,1648.29,544.35Z" transform="translate(-95 -307)"/><path class="cls-18" d="M1636.86,541.91a3.34,3.34,0,0,0-.41,2.09,2.23,2.23,0,0,0,1.21,1.7,1.68,1.68,0,0,0,2-.44c.65-.86.22-2.23.94-3a4.29,4.29,0,0,1,1.18-.72,1.23,1.23,0,0,0,.74-1.08c-.11-1.18-2-1.1-2.79-.88A4.82,4.82,0,0,0,1636.86,541.91Z" transform="translate(-95 -307)"/><path class="cls-17" d="M1664.79,534.41a5.62,5.62,0,1,1-5.62-5.62A5.62,5.62,0,0,1,1664.79,534.41Z" transform="translate(-95 -307)"/><path class="cls-18" d="M1655.58,532.44a2.78,2.78,0,0,0-.33,1.69,1.79,1.79,0,0,0,1,1.36,1.34,1.34,0,0,0,1.59-.35c.52-.69.17-1.8.75-2.43a3.7,3.7,0,0,1,1-.59,1,1,0,0,0,.6-.87c-.09-1-1.62-.88-2.25-.7A3.89,3.89,0,0,0,1655.58,532.44Z" transform="translate(-95 -307)"/><path class="cls-17" d="M1648.18,523.06a4,4,0,1,1-4-4A4,4,0,0,1,1648.18,523.06Z" transform="translate(-95 -307)"/><path class="cls-18" d="M1641.57,521.65a2,2,0,0,0-.23,1.21,1.28,1.28,0,0,0,.7,1,1,1,0,0,0,1.13-.25c.38-.5.13-1.29.55-1.75a2.35,2.35,0,0,1,.68-.42.72.72,0,0,0,.43-.62c-.07-.68-1.17-.64-1.62-.51A2.8,2.8,0,0,0,1641.57,521.65Z" transform="translate(-95 -307)"/><path class="cls-6" d="M1595.93,522c.24,1.67.78,3.44,2.16,4.4,1.72,1.2,4.22.67,5.78-.72a11.12,11.12,0,0,0,3-5.45c.81-2.9,1.24-5.9,2.08-8.78a16.15,16.15,0,0,1,4.43-7.73c2.8-2.47,6.7-3.33,9.68-5.58.86-.65,1.71-1.68,1.37-2.71a2.58,2.58,0,0,0-1.85-1.39c-3.46-1-7.18.27-10.33,2C1603.13,501.08,1594.34,511,1595.93,522Z" transform="translate(-95 -307)"/><path class="cls-6" d="M1628.25,496.34a3.58,3.58,0,0,0,3.64,1.33,7.49,7.49,0,0,0,3.54-2c.65-.6,1.31-1.48.94-2.29s-1.16-.86-1.9-.93C1632.58,492.3,1625.56,492.25,1628.25,496.34Z" transform="translate(-95 -307)"/><path class="cls-12" d="M258.18,475.48H370.75a0,0,0,0,1,0,0V565a56.29,56.29,0,0,1-56.29,56.29h0A56.29,56.29,0,0,1,258.18,565V475.48a0,0,0,0,1,0,0Z" transform="translate(533.94 789.74) rotate(180)"/><path class="cls-13" d="M285.78,483.38a51.5,51.5,0,0,0-13.8,20,49.83,49.83,0,0,0-2.8,11.34v100.9H370.75v5.56H258.18V520.3a53.35,53.35,0,0,1,6-16.17A54.89,54.89,0,0,1,285.78,483.38Z" transform="translate(-95 -307)"/><rect class="cls-14" x="289.19" y="452.36" width="47.94" height="23.12" transform="translate(531.32 620.84) rotate(180)"/><rect class="cls-14" x="301.73" y="411.58" width="20.87" height="29.09" transform="translate(529.33 545.26) rotate(180)"/><path class="cls-14" d="M322.6,416.57s14.42-1.22,15.08-5-.33-8.21-4.13-8.21-67-.33-69,1.15-6.38,9.74-6.38,9.74l9.35.33s.83-3.66,3-4.64,31.23,6.62,31.23,6.62Z" transform="translate(-95 -307)"/><rect class="cls-14" x="305.99" y="440.68" width="12.54" height="14.84" transform="translate(529.52 589.2) rotate(180)"/><polygon class="cls-15" points="223.53 136.31 210.99 141.1 210.99 133.68 223.53 133.68 223.53 136.31"/><rect class="cls-15" x="194.19" y="145.36" width="8.83" height="23.12"/><path class="cls-15" d="M322.6,416.57H301.73v5.61l20.87-4Z" transform="translate(-95 -307)"/><path class="cls-16" d="M331.47,455.86a3.44,3.44,0,0,1,1.08,1.65,14.31,14.31,0,0,1,.42,5.8c-.14,2.38-.29,4.75-.43,7.13a3.07,3.07,0,0,1-.51,1.82,2.56,2.56,0,0,1-1.3.73,3,3,0,0,1-3-.39,3.25,3.25,0,0,1-.65-2.2,25.92,25.92,0,0,1,.25-4.66c.27-1.93.75-4-.07-5.77-.61-1.34-2.16-3.29-.35-4.5C328,454.8,330.59,455.18,331.47,455.86Z" transform="translate(-95 -307)"/><path class="cls-9" d="M313.16,497.66c21.61,0,39.13,10.24,39.13,22.87v77.73H274V520.53C274,507.9,291.55,497.66,313.16,497.66Z" transform="translate(-95 -307)"/><path class="cls-14" d="M287.18,565.53h0c-.23-6.37,1.7-23.61,3.25-24.3a3.13,3.13,0,0,1,2.79.45,22.91,22.91,0,0,1,4.24,3.58l4.41,4.41a27.37,27.37,0,0,1,9.33-1.61,27.68,27.68,0,0,1,9.52,1.67l4.48-4.47a22.91,22.91,0,0,1,4.24-3.58,3.18,3.18,0,0,1,2.79-.45c1.54.64,3.06,17.22,2.83,23.58h0a18.58,18.58,0,0,1,.52,4.36c0,11.66-10.92,21.11-24.38,21.11s-24.38-9.45-24.38-21.11A19,19,0,0,1,287.18,565.53Z" transform="translate(-95 -307)"/><path class="cls-17" d="M312.47,531.69a7,7,0,1,0,7-7A7,7,0,0,0,312.47,531.69Z" transform="translate(-95 -307)"/><path class="cls-18" d="M323.9,529.24a3.5,3.5,0,0,1,.41,2.1,2.24,2.24,0,0,1-1.22,1.69,1.65,1.65,0,0,1-2-.44c-.64-.85-.22-2.23-.94-3a4.39,4.39,0,0,0-1.18-.72,1.23,1.23,0,0,1-.74-1.08c.12-1.18,2-1.1,2.8-.87A4.8,4.8,0,0,1,323.9,529.24Z" transform="translate(-95 -307)"/><path class="cls-17" d="M296,521.75a5.62,5.62,0,1,0,5.62-5.62A5.62,5.62,0,0,0,296,521.75Z" transform="translate(-95 -307)"/><path class="cls-18" d="M305.18,519.77a2.79,2.79,0,0,1,.33,1.69,1.81,1.81,0,0,1-1,1.37,1.34,1.34,0,0,1-1.58-.35c-.52-.69-.18-1.8-.76-2.44a3.27,3.27,0,0,0-.95-.58c-.32-.19-.64-.5-.6-.87.09-1,1.62-.89,2.26-.71A3.93,3.93,0,0,1,305.18,519.77Z" transform="translate(-95 -307)"/><path class="cls-17" d="M312.57,510.4a4,4,0,1,0,4-4A4,4,0,0,0,312.57,510.4Z" transform="translate(-95 -307)"/><path class="cls-18" d="M319.18,509a2,2,0,0,1,.24,1.22,1.29,1.29,0,0,1-.7,1,1,1,0,0,1-1.14-.25c-.37-.49-.12-1.29-.54-1.74a2.5,2.5,0,0,0-.68-.42.71.71,0,0,1-.43-.63c.06-.68,1.16-.63,1.61-.5A2.79,2.79,0,0,1,319.18,509Z" transform="translate(-95 -307)"/><path class="cls-6" d="M364.83,509.33a6.29,6.29,0,0,1-2.17,4.41c-1.71,1.2-4.21.67-5.78-.72a11,11,0,0,1-2.94-5.46c-.82-2.89-1.25-5.89-2.09-8.78a16.15,16.15,0,0,0-4.43-7.73c-2.8-2.46-6.7-3.32-9.67-5.57-.87-.66-1.72-1.68-1.37-2.71a2.52,2.52,0,0,1,1.84-1.39c3.46-1,7.18.26,10.33,2C357.63,488.42,366.41,498.29,364.83,509.33Z" transform="translate(-95 -307)"/><path class="cls-6" d="M332.51,483.68a3.61,3.61,0,0,1-3.64,1.33,7.46,7.46,0,0,1-3.54-2c-.66-.59-1.32-1.48-.95-2.28s1.17-.87,1.9-.93C328.18,479.64,335.19,479.59,332.51,483.68Z" transform="translate(-95 -307)"/><path class="cls-7" d="M1267.25,547.22c0-4.55-2.08-8.72-5.35-10.87L1238.48,521a8.76,8.76,0,0,0-3.73-1.39,4,4,0,0,1,0-.64h-15.44a8.71,8.71,0,0,0-4.77,1.47l-23.43,15.32c-3.28,2.15-5.34,6.31-5.37,10.87l-.71,107.88c0,6.9,4.51,12.52,10.14,12.52l62.5.59c5.62,0,10.18-5.61,10.14-12.51Z" transform="translate(-95 -307)"/><path class="cls-8" d="M1267.25,547.22c0-4.55-2.08-8.72-5.35-10.87L1238.48,521a8.76,8.76,0,0,0-3.73-1.39,4,4,0,0,1,0-.64h-5.67l20,13.09c3.27,2.15,5.32,6.32,5.35,10.87l.61,107.88c0,6.9-4.52,12.52-10.14,12.51l-57.36-.59a9.47,9.47,0,0,0,7.67,4.3l62.5.59c5.62,0,10.18-5.61,10.14-12.51Z" transform="translate(-95 -307)"/><polygon class="cls-9" points="1147.58 171.68 1132.7 171.68 1117.83 171.68 1109.09 219.76 1132.7 219.76 1156.32 219.76 1147.58 171.68"/><polygon class="cls-10" points="1147.58 171.68 1141.07 171.68 1149.8 219.76 1156.32 219.76 1147.58 171.68"/><polygon class="cls-8" points="1110.1 219.64 1154.46 219.64 1158.23 223.67 1107.4 221.4 1110.1 219.64"/><path class="cls-6" d="M1213.16,500.13l-2.07,14a11.31,11.31,0,0,0-.06,4.56,3.9,3.9,0,0,0,3.07,3,3.86,3.86,0,0,0,3.56-2.14,10.83,10.83,0,0,0,1.06-4.25q.49-4.67.72-9.36c.14-2.7.83-6.39.16-9-.39-1.53-1.87-3-3.59-2.56C1213.81,495,1213.44,498.27,1213.16,500.13Z" transform="translate(-95 -307)"/><path class="cls-6" d="M1217.4,484a3.31,3.31,0,0,0-2.11,1.81,5,5,0,0,0-.33,2.81,3.06,3.06,0,0,0,1.32,2.3,2.69,2.69,0,0,0,3.36-1.19,7.67,7.67,0,0,0,.82-3.8,2.69,2.69,0,0,0-.15-1.2c-.42-.93-1.67-1.05-2.69-1Z" transform="translate(-95 -307)"/><rect class="cls-4" x="1099.22" y="240.01" width="63.48" height="95.47" rx="31.74"/><path class="cls-11" d="M1206.58,601.68a2.21,2.21,0,0,1,1.48,1.46,4.31,4.31,0,0,1-.1,2.71,7.2,7.2,0,0,1-.65,1.54,8.23,8.23,0,0,1-.8,1.14l-1.76-.55.06-.2a4.68,4.68,0,0,0,1.13-1.09,4.16,4.16,0,0,0,.68-1.32,4.22,4.22,0,0,0,.12-.46,2.33,2.33,0,0,0,0-.49,1.36,1.36,0,0,0-.11-.43.54.54,0,0,0-.35-.26.53.53,0,0,0-.48.08,1.56,1.56,0,0,0-.46.51c-.15.26-.3.53-.45.82a6.65,6.65,0,0,1-.49.79,2.76,2.76,0,0,1-1.23,1.08,2.15,2.15,0,0,1-2.79-1.42,4.26,4.26,0,0,1,.08-2.56,7.44,7.44,0,0,1,.59-1.39,7,7,0,0,1,.73-1.12l1.69.53-.06.2a3.93,3.93,0,0,0-.93.9,3.78,3.78,0,0,0-.65,1.24,2.77,2.77,0,0,0-.11.48,1.61,1.61,0,0,0,0,.49,1,1,0,0,0,.12.4.51.51,0,0,0,.3.24.54.54,0,0,0,.51-.08,2.86,2.86,0,0,0,.55-.75l.4-.73c.13-.23.28-.47.46-.73a2.78,2.78,0,0,1,1.14-1A1.92,1.92,0,0,1,1206.58,601.68Z" transform="translate(-95 -307)"/><path class="cls-11" d="M1213.67,596.5l-1.28,1.52-2.59-2.19-1.88,2.23,2.58,2.19-1.28,1.51-5.86-5,1.28-1.51,2.14,1.81,1.89-2.23-2.15-1.81,1.28-1.52Z" transform="translate(-95 -307)"/><path class="cls-11" d="M1221.1,592.66l-1.84.9-1.16-1.17-2.55,1.25.19,1.63-1.79.87-.81-8.15,2-1Zm-4-1.32-2-2.06.35,2.88Z" transform="translate(-95 -307)"/><path class="cls-11" d="M1229.56,592.48l-2,0-.08-5.14-1.37,3.36-1.37,0-1.47-3.31.08,5.14-1.87,0-.12-7.68,2.3,0,1.79,3.83,1.66-3.88,2.3,0Z" transform="translate(-95 -307)"/><path class="cls-11" d="M1238.69,590.88a3,3,0,0,1-.58.84,2.25,2.25,0,0,1-.82.54,3.2,3.2,0,0,1-1.21.2,3.89,3.89,0,0,1-1.38-.38l-1.12-.51-1,2.27-1.8-.82,3.2-7,3,1.35a5.6,5.6,0,0,1,1.07.63,2.91,2.91,0,0,1,.65.72,1.91,1.91,0,0,1,.32,1A2.34,2.34,0,0,1,1238.69,590.88Zm-1.88-.81a.92.92,0,0,0,.08-.58,1,1,0,0,0-.24-.47,1.91,1.91,0,0,0-.49-.38l-.71-.33-.31-.15-1,2.09.51.24a5.31,5.31,0,0,0,.79.29,1.22,1.22,0,0,0,.6,0,1,1,0,0,0,.41-.24A1.54,1.54,0,0,0,1236.81,590.07Z" transform="translate(-95 -307)"/><path class="cls-11" d="M1245,599.08a4,4,0,0,1-2.87,1.17,4.45,4.45,0,0,1-3.89-4.33,4.56,4.56,0,0,1,4.34-3.9,4.48,4.48,0,0,1,3.89,4.31A4.07,4.07,0,0,1,1245,599.08Zm-3.2-.65a2.32,2.32,0,0,0,.9-.24,3.63,3.63,0,0,0,.92-.65,3.59,3.59,0,0,0,.77-.9,2.41,2.41,0,0,0,.31-.84,1.58,1.58,0,0,0-.08-.75,1.71,1.71,0,0,0-.37-.62,2,2,0,0,0-.57-.44,1.75,1.75,0,0,0-.74-.16,2.52,2.52,0,0,0-.88.22,4,4,0,0,0-1,.67,3.71,3.71,0,0,0-.76.9,2.18,2.18,0,0,0-.31.83,1.56,1.56,0,0,0,.07.75,1.81,1.81,0,0,0,.38.64,1.79,1.79,0,0,0,.59.44A1.58,1.58,0,0,0,1241.76,598.43Z" transform="translate(-95 -307)"/><path class="cls-11" d="M1248.25,608.45a4,4,0,0,1-3.1-.16,4.46,4.46,0,0,1-1.67-5.57,4.57,4.57,0,0,1,5.6-1.68,3.84,3.84,0,0,1,1.86,2.47,3.88,3.88,0,0,1-.19,3.09A4,4,0,0,1,1248.25,608.45Zm-2.62-2a2.32,2.32,0,0,0,.92.17,3.69,3.69,0,0,0,1.11-.19,3.62,3.62,0,0,0,1.08-.49,2.1,2.1,0,0,0,.63-.63,1.47,1.47,0,0,0,.26-.7,2,2,0,0,0-.07-.73,2.07,2.07,0,0,0-.34-.64,1.66,1.66,0,0,0-.6-.46,2.22,2.22,0,0,0-.88-.17,3.73,3.73,0,0,0-1.18.18,4,4,0,0,0-1.07.49,2.19,2.19,0,0,0-.63.62,1.62,1.62,0,0,0-.26.71,1.87,1.87,0,0,0,.07.74,1.78,1.78,0,0,0,.35.65A1.62,1.62,0,0,0,1245.63,606.5Z" transform="translate(-95 -307)"/><path class="cls-11" d="M1219.33,573.38a5.36,5.36,0,0,1-.71,2.75,5.07,5.07,0,0,1-1.77,1.87,5.66,5.66,0,0,1-1.77.68,11.6,11.6,0,0,1-2.27.19h-3.88v-11h4a10.44,10.44,0,0,1,2.32.22,5.25,5.25,0,0,1,1.64.64,5,5,0,0,1,1.79,1.87A5.63,5.63,0,0,1,1219.33,573.38Zm-2.94,0a4.06,4.06,0,0,0-.39-1.86,2.74,2.74,0,0,0-1.26-1.21,3.2,3.2,0,0,0-.89-.29,9,9,0,0,0-1.37-.08h-.71v6.89h.71a8.83,8.83,0,0,0,1.49-.09,3.31,3.31,0,0,0,.92-.34,2.67,2.67,0,0,0,1.14-1.19A4.14,4.14,0,0,0,1216.39,573.36Z" transform="translate(-95 -307)"/><path class="cls-11" d="M1232.2,573.37a5.75,5.75,0,0,1-1.51,4.18,6.37,6.37,0,0,1-8.33,0,6.55,6.55,0,0,1,0-8.37,6.39,6.39,0,0,1,8.32,0A5.72,5.72,0,0,1,1232.2,573.37Zm-3.77,2.79a3.37,3.37,0,0,0,.62-1.19,5.83,5.83,0,0,0,.2-1.6,5.52,5.52,0,0,0-.23-1.69,3.47,3.47,0,0,0-.6-1.12,2.26,2.26,0,0,0-.87-.65,2.76,2.76,0,0,0-1-.2,2.69,2.69,0,0,0-1,.2,2.36,2.36,0,0,0-.88.63,3.38,3.38,0,0,0-.6,1.14,5.76,5.76,0,0,0-.23,1.69,5.48,5.48,0,0,0,.22,1.68,3.22,3.22,0,0,0,.6,1.12,2.34,2.34,0,0,0,.86.65,2.77,2.77,0,0,0,2.09,0A2.26,2.26,0,0,0,1228.43,576.16Z" transform="translate(-95 -307)"/><path class="cls-11" d="M1244.1,578.24a14.13,14.13,0,0,1-2,.58,10.73,10.73,0,0,1-2.43.28,6.07,6.07,0,0,1-4.4-1.53,6.26,6.26,0,0,1,0-8.35,6.15,6.15,0,0,1,4.47-1.57,10.54,10.54,0,0,1,2.07.2,9.09,9.09,0,0,1,2.19.78v2.58h-.32c-.13-.11-.34-.25-.6-.44s-.53-.35-.77-.49a5.48,5.48,0,0,0-1-.4,4.09,4.09,0,0,0-1.22-.17,4,4,0,0,0-1.37.22,3.16,3.16,0,0,0-1.1.68,3,3,0,0,0-.73,1.13,4.23,4.23,0,0,0-.27,1.57,3.78,3.78,0,0,0,1,2.8,3.88,3.88,0,0,0,2.86,1h.35l.36,0v-2.16H1239v-2.08h5.08Z" transform="translate(-95 -307)"/><path class="cls-11" d="M1218.22,618.6c-1.08,2.44-.66,5.29.14,7.84.69,2.19,1.77,4.43,3.76,5.59,2.62,1.52,6.16.61,8.27-1.56a12.19,12.19,0,0,0,3-8.33,8.43,8.43,0,0,0-1.06-4.72C1229.34,612.76,1220.4,613.69,1218.22,618.6Z" transform="translate(-95 -307)"/><path class="cls-11" d="M1223.54,607.33a3.93,3.93,0,0,0-.55,2.43,3.48,3.48,0,0,0,1.37,2.91,2.21,2.21,0,0,0,2.59-.3,3,3,0,0,0,.77-1.4,4.23,4.23,0,0,0,0-2.54C1227.09,606.66,1224.85,605.42,1223.54,607.33Z" transform="translate(-95 -307)"/><path class="cls-11" d="M1233.78,608.84a3.88,3.88,0,0,0-1.73,1.78,3.45,3.45,0,0,0-.36,3.19,2.2,2.2,0,0,0,2.37,1.11,3,3,0,0,0,1.38-.79,4.26,4.26,0,0,0,1.32-2.18C1237.16,610.12,1235.9,607.89,1233.78,608.84Z" transform="translate(-95 -307)"/><path class="cls-11" d="M1213.83,611.39a3.83,3.83,0,0,0,.34,2.46,3.47,3.47,0,0,0,2.3,2.25,2.19,2.19,0,0,0,2.32-1.19,3,3,0,0,0,.23-1.58,4.29,4.29,0,0,0-.91-2.38C1216.92,609.51,1214.38,609.14,1213.83,611.39Z" transform="translate(-95 -307)"/><path class="cls-6" d="M1189.25,554.56c.19.41.54.85,1,.77a1.07,1.07,0,0,0,.6-.47,8.2,8.2,0,0,0,1.57-4,31.64,31.64,0,0,1,.28-4.26,7.33,7.33,0,0,1,4.48-4.69,21.74,21.74,0,0,1,6.57-1.25l8.39-.71c1.51-.13,3.4-.58,3.66-2.08a2.3,2.3,0,0,0-1-2.15,5.87,5.87,0,0,0-2.34-.87,25.18,25.18,0,0,0-12.17.38c-3.74,1.11-8.18,3.58-10.25,7C1188.15,545.39,1187.73,551.37,1189.25,554.56Z" transform="translate(-95 -307)"/><path class="cls-2" d="M645,623.07a1.49,1.49,0,1,1,2.13,1.9,2.07,2.07,0,0,1-1.64.77l-16,18-1-.94,16-18A2.11,2.11,0,0,1,645,623.07Z" transform="translate(-95 -307)"/><path class="cls-2" d="M642.86,621.21a1.49,1.49,0,1,1,2.14,1.9,2.09,2.09,0,0,1-1.64.76l-16,18-1.06-.93,16-18A2.07,2.07,0,0,1,642.86,621.21Z" transform="translate(-95 -307)"/><path class="cls-2" d="M640.76,619.34a1.49,1.49,0,1,1,2.14,1.9,2.1,2.1,0,0,1-1.65.76l-16,18-1.06-.94,16-18A2.08,2.08,0,0,1,640.76,619.34Z" transform="translate(-95 -307)"/><path class="cls-2" d="M636.56,615.61a1.49,1.49,0,1,1,2.13,1.9,2.09,2.09,0,0,1-1.64.76l-16,18-1.05-.93,16-18A2.08,2.08,0,0,1,636.56,615.61Z" transform="translate(-95 -307)"/><path class="cls-2" d="M634.45,613.74a1.49,1.49,0,1,1,2.14,1.9,2.09,2.09,0,0,1-1.64.76l-16,18-1.06-.94,16-18A2.08,2.08,0,0,1,634.45,613.74Z" transform="translate(-95 -307)"/><path class="cls-2" d="M621.84,602.54a1.49,1.49,0,1,1,2.14,1.9,2.12,2.12,0,0,1-1.65.76l-16,18-1.05-.94,16-18A2.09,2.09,0,0,1,621.84,602.54Z" transform="translate(-95 -307)"/><path class="cls-2" d="M615.53,596.94a1.49,1.49,0,1,1,2.14,1.9,2.1,2.1,0,0,1-1.65.76l-16,18-1.06-.94,16-18A2.08,2.08,0,0,1,615.53,596.94Z" transform="translate(-95 -307)"/><path class="cls-2" d="M579.79,565.21a1.49,1.49,0,1,1,2.14,1.9,2.12,2.12,0,0,1-1.65.76l-16,18-1-.93,16-18A2.08,2.08,0,0,1,579.79,565.21Z" transform="translate(-95 -307)"/><path class="cls-2" d="M609.22,591.34a1.49,1.49,0,1,1,2.14,1.9,2.09,2.09,0,0,1-1.64.76l-16,18-1.06-.94,16-18A2.08,2.08,0,0,1,609.22,591.34Z" transform="translate(-95 -307)"/><path class="cls-2" d="M598.71,582a1.49,1.49,0,1,1,2.14,1.9,2.1,2.1,0,0,1-1.65.76l-16,18-1.06-.93,16-18A2.07,2.07,0,0,1,598.71,582Z" transform="translate(-95 -307)"/><path class="cls-2" d="M590.3,574.54a1.49,1.49,0,1,1,2.14,1.9,2.1,2.1,0,0,1-1.65.76l-16,18-1.06-.94,16-18A2.08,2.08,0,0,1,590.3,574.54Z" transform="translate(-95 -307)"/><path class="cls-2" d="M638.66,617.47a1.49,1.49,0,1,1,2.14,1.9,2.1,2.1,0,0,1-1.65.77l-16,18-1-.94,16-18A2.11,2.11,0,0,1,638.66,617.47Z" transform="translate(-95 -307)"/><path class="cls-2" d="M632.35,611.87a1.49,1.49,0,1,1,2.14,1.9,2.08,2.08,0,0,1-1.65.77l-16,18-1.06-.94,16-18A2.1,2.1,0,0,1,632.35,611.87Z" transform="translate(-95 -307)"/><path class="cls-2" d="M628.15,608.14a1.49,1.49,0,1,1,2.13,1.9,2.09,2.09,0,0,1-1.64.76l-16,18-1-.94,16-18A2.09,2.09,0,0,1,628.15,608.14Z" transform="translate(-95 -307)"/><path class="cls-2" d="M623.94,604.41a1.49,1.49,0,1,1,2.14,1.9,2.1,2.1,0,0,1-1.65.76l-16,18-1.06-.93,16-18A2.07,2.07,0,0,1,623.94,604.41Z" transform="translate(-95 -307)"/><path class="cls-2" d="M617.63,598.81a1.49,1.49,0,1,1,2.14,1.9,2.09,2.09,0,0,1-1.64.76l-16,18-1.06-.93,16-18A2.07,2.07,0,0,1,617.63,598.81Z" transform="translate(-95 -307)"/><path class="cls-2" d="M602.92,585.74a1.49,1.49,0,1,1,2.13,1.9,2.09,2.09,0,0,1-1.64.76l-16,18-1.05-.94,16-18A2.09,2.09,0,0,1,602.92,585.74Z" transform="translate(-95 -307)"/><path class="cls-2" d="M596.61,580.14a1.49,1.49,0,1,1,2.14,1.9,2.12,2.12,0,0,1-1.65.76l-16,18-1-.94,16-18A2.09,2.09,0,0,1,596.61,580.14Z" transform="translate(-95 -307)"/><path class="cls-2" d="M588.2,572.67a1.49,1.49,0,1,1,2.14,1.9,2.1,2.1,0,0,1-1.65.77l-16,18-1.05-.94,16-18A2.11,2.11,0,0,1,588.2,572.67Z" transform="translate(-95 -307)"/><path class="cls-2" d="M581.89,567.07A1.49,1.49,0,1,1,584,569a2.08,2.08,0,0,1-1.65.77l-16,18-1.06-.94,16-18A2.1,2.1,0,0,1,581.89,567.07Z" transform="translate(-95 -307)"/><path class="cls-2" d="M573.48,559.61a1.49,1.49,0,1,1,2.14,1.9,2.1,2.1,0,0,1-1.65.76l-16,18-1.06-.93,16-18A2.07,2.07,0,0,1,573.48,559.61Z" transform="translate(-95 -307)"/><path class="cls-2" d="M630.25,610a1.49,1.49,0,1,1,2.14,1.9,2.12,2.12,0,0,1-1.65.76l-16,18-1-.93,16-18A2.08,2.08,0,0,1,630.25,610Z" transform="translate(-95 -307)"/><path class="cls-2" d="M626,606.27a1.49,1.49,0,1,1,2.14,1.9,2.07,2.07,0,0,1-1.64.77l-16,18-1.06-.94,16-18A2.1,2.1,0,0,1,626,606.27Z" transform="translate(-95 -307)"/><path class="cls-2" d="M619.74,600.67a1.49,1.49,0,1,1,2.13,1.9,2.07,2.07,0,0,1-1.64.77l-16,18-1-.94,16-18A2.11,2.11,0,0,1,619.74,600.67Z" transform="translate(-95 -307)"/><path class="cls-2" d="M611.33,593.21a1.49,1.49,0,1,1,2.13,1.9,2.09,2.09,0,0,1-1.64.76l-16,18-1.05-.93,16-18A2.08,2.08,0,0,1,611.33,593.21Z" transform="translate(-95 -307)"/><path class="cls-2" d="M607.12,589.47a1.49,1.49,0,1,1,2.14,1.9,2.08,2.08,0,0,1-1.65.77l-16,18-1.06-.94,16-18A2.1,2.1,0,0,1,607.12,589.47Z" transform="translate(-95 -307)"/><path class="cls-2" d="M592.4,576.41a1.49,1.49,0,1,1,2.14,1.9,2.09,2.09,0,0,1-1.64.76l-16,18-1.06-.93,16-18A2.07,2.07,0,0,1,592.4,576.41Z" transform="translate(-95 -307)"/><path class="cls-2" d="M584,568.94a1.49,1.49,0,1,1,2.14,1.9,2.09,2.09,0,0,1-1.64.76l-16,18-1.06-.94,16-18A2.08,2.08,0,0,1,584,568.94Z" transform="translate(-95 -307)"/><path class="cls-2" d="M560.86,548.41a1.49,1.49,0,1,1,2.14,1.9,2.09,2.09,0,0,1-1.64.76l-16,18-1-.93,16-18A2.1,2.1,0,0,1,560.86,548.41Z" transform="translate(-95 -307)"/><path class="cls-2" d="M577.68,563.34a1.49,1.49,0,1,1,2.14,1.9,2.09,2.09,0,0,1-1.64.76l-16,18-1.05-.94,16-18A2.11,2.11,0,0,1,577.68,563.34Z" transform="translate(-95 -307)"/><path class="cls-2" d="M571.38,557.74a1.49,1.49,0,1,1,2.14,1.9,2.12,2.12,0,0,1-1.65.76l-16,18-1-.94,16-18A2.09,2.09,0,0,1,571.38,557.74Z" transform="translate(-95 -307)"/><path class="cls-2" d="M567.17,554a1.49,1.49,0,1,1,2.14,1.9,2.09,2.09,0,0,1-1.64.76l-16,18-1.06-.93,16-18A2.07,2.07,0,0,1,567.17,554Z" transform="translate(-95 -307)"/><path class="cls-2" d="M613.43,595.07a1.49,1.49,0,1,1,2.14,1.9,2.1,2.1,0,0,1-1.65.77l-16,18-1.05-.94,16-18A2.11,2.11,0,0,1,613.43,595.07Z" transform="translate(-95 -307)"/><path class="cls-2" d="M605,587.61a1.49,1.49,0,1,1,2.14,1.9,2.12,2.12,0,0,1-1.65.76l-16,18-1-.93,16-18A2.08,2.08,0,0,1,605,587.61Z" transform="translate(-95 -307)"/><path class="cls-2" d="M600.81,583.87a1.49,1.49,0,1,1,2.14,1.9,2.07,2.07,0,0,1-1.64.77l-16,18-1.06-.94,16-18A2.1,2.1,0,0,1,600.81,583.87Z" transform="translate(-95 -307)"/><path class="cls-2" d="M594.51,578.27a1.49,1.49,0,1,1,2.13,1.9,2.07,2.07,0,0,1-1.64.77l-16,18-1-.94,16-18A2.11,2.11,0,0,1,594.51,578.27Z" transform="translate(-95 -307)"/><path class="cls-2" d="M586.1,570.81a1.49,1.49,0,1,1,2.13,1.9,2.09,2.09,0,0,1-1.64.76l-16,18-1-.93,16-18A2.08,2.08,0,0,1,586.1,570.81Z" transform="translate(-95 -307)"/><path class="cls-2" d="M575.58,561.47a1.49,1.49,0,1,1,2.14,1.9,2.07,2.07,0,0,1-1.64.77l-16,18-1.06-.94,16-18A2.1,2.1,0,0,1,575.58,561.47Z" transform="translate(-95 -307)"/><path class="cls-2" d="M569.27,555.87a1.74,1.74,0,0,1,2.35-.48,1.72,1.72,0,0,1-.21,2.38,2.07,2.07,0,0,1-1.64.77l-16,18-1-.94,16-18A2.13,2.13,0,0,1,569.27,555.87Z" transform="translate(-95 -307)"/><path class="cls-2" d="M565.07,552.14a1.49,1.49,0,1,1,2.14,1.9,2.1,2.1,0,0,1-1.65.76l-16,18-1.06-.94,16-18A2.08,2.08,0,0,1,565.07,552.14Z" transform="translate(-95 -307)"/><path class="cls-2" d="M563,550.27a1.49,1.49,0,1,1,2.14,1.9,2.1,2.1,0,0,1-1.65.77l-16,18-1-.94,16-18A2.11,2.11,0,0,1,563,550.27Z" transform="translate(-95 -307)"/><path class="cls-2" d="M558.76,546.54a1.49,1.49,0,1,1,2.14,1.9,2.09,2.09,0,0,1-1.64.76l-16,18-1.06-.94,16-18A2.08,2.08,0,0,1,558.76,546.54Z" transform="translate(-95 -307)"/><path class="cls-3" d="M420.49,474.21a8.67,8.67,0,0,0-4.79-2.65c-1.84-.2-3.94,1-4.14,2.82a5,5,0,0,0,1.46,3.5,44,44,0,0,0,5.81,5.52l2.55,2.15a3.42,3.42,0,0,0,1.83,1c.7.05,1.48-.58,1.29-1.26-3.06-2.4-6.16-4.84-8.38-8-.45-.65-.87-1.54-.4-2.18a1.76,1.76,0,0,1,2-.3c2.17.81,3.58,2.86,4.85,4.8.9,1.36,1.74,2.79,2.74,4.07C428.67,481.92,422,475.57,420.49,474.21Z" transform="translate(-95 -307)"/><path class="cls-4" d="M628.42,648.72l-92-81.71-11.83,13.34a10.59,10.59,0,0,0,.89,15l67.15,59.62a10.59,10.59,0,0,0,10.35,2.15Z" transform="translate(-95 -307)"/><path class="cls-5" d="M541.4,571.46,534,579.78a10.61,10.61,0,0,0,.89,15l67.15,59.62a10.71,10.71,0,0,0,3.2,2l-2.31.76a10.59,10.59,0,0,1-10.35-2.15l-67.15-59.62a10.59,10.59,0,0,1-.89-15L536.38,567Z" transform="translate(-95 -307)"/><path class="cls-3" d="M536.72,567.32l91.92,81.6a3.13,3.13,0,0,0,4.41-.26h0a3.13,3.13,0,0,0-.27-4.41l-91.91-81.6a3.12,3.12,0,0,0-4.41.26h0A3.14,3.14,0,0,0,536.72,567.32Z" transform="translate(-95 -307)"/><path class="cls-4" d="M425.11,481.65a6.69,6.69,0,0,1,9.44-.56l99.61,88.43-8.69,9.79L507,562.94c-2.56.76-7.46,3.9-16.06-3.46-6.34-5.44-8.82-10-8.61-14.34-5.94,1.22-11.11-3.18-15.65-7.2-3.79-3.36-8.18-7.33-6.92-12.23-3,1.9-13-4.61-16.43-7.58-4.45-3.8-9.09-10.07-7.51-14.35-4.3,1.84-8.81-.85-12.2-4.07-2.13-2-4.45-4-4.81-6.88a8,8,0,0,1,2-6.39h0Z" transform="translate(-95 -307)"/><path class="cls-5" d="M421.22,490.16c.35,2.92,2.68,4.85,4.8,6.87,3.39,3.23,7.91,5.92,12.21,4.07-1.59,4.29,3,10.56,7.5,14.36,3.48,3,13.47,9.48,16.44,7.57-1.26,4.9,3.13,8.88,6.92,12.23,4.54,4,9.7,8.42,15.64,7.2-.21,4.38,2.28,8.91,8.62,14.34,8.59,7.37,13.49,4.23,16,3.46l18.44,16.37-2.37,2.68L507,562.94c-2.56.76-7.46,3.9-16.06-3.46-6.34-5.44-8.82-10-8.61-14.34-5.94,1.22-11.11-3.18-15.65-7.2-3.79-3.36-8.18-7.33-6.92-12.23-3,1.9-13-4.61-16.43-7.58-4.45-3.8-9.09-10.07-7.51-14.35-4.3,1.84-8.81-.85-12.2-4.07-2.13-2-4.45-4-4.81-6.88a8,8,0,0,1,2-6.39h0l2.37-2.67h0A8,8,0,0,0,421.22,490.16Z" transform="translate(-95 -307)"/><polygon class="cls-5" points="528.33 337.2 442.45 260.93 437.43 266.58 528.33 337.2"/><path class="cls-6" d="M614.6,648l-6.22,3a12.92,12.92,0,0,1-3,1.13,6.18,6.18,0,0,1-6.77-3.19,2.57,2.57,0,0,1-.26-1.56c.21-1.06,1.35-1.62,2.35-2l8.87-3.59c1.82-.74,4.68-1.32,6.4,0C618.81,643.86,617.07,646.83,614.6,648Z" transform="translate(-95 -307)"/><path class="cls-6" d="M509.43,554.65c-1,1.23-3,0-4.1-1.13a234.63,234.63,0,0,0-26.46-23.95c-1.68-1.3-3.44-2.66-4.27-4.61-.31-.72-.42-1.68.2-2.16s1.85.07,2.58.72C481,526.7,511.85,551.8,509.43,554.65Z" transform="translate(-95 -307)"/><path class="cls-2" d="M1035.43,347.5a1.49,1.49,0,1,1,2.49-1.41,2.09,2.09,0,0,1,.19,1.81l11.81,21-1.23.69-11.81-21A2.07,2.07,0,0,1,1035.43,347.5Z" transform="translate(-95 -307)"/><path class="cls-2" d="M1033,348.88a1.49,1.49,0,1,1,2.5-1.41,2.08,2.08,0,0,1,.18,1.81l11.81,21-1.23.69L1034.43,350A2.07,2.07,0,0,1,1033,348.88Z" transform="translate(-95 -307)"/><path class="cls-2" d="M1030.53,350.26a1.49,1.49,0,1,1,2.5-1.41,2.08,2.08,0,0,1,.18,1.81L1045,371.61l-1.23.69L1032,351.35A2.07,2.07,0,0,1,1030.53,350.26Z" transform="translate(-95 -307)"/><path class="cls-2" d="M1025.63,353a1.49,1.49,0,1,1,2.5-1.41,2.08,2.08,0,0,1,.18,1.81l11.81,20.95-1.23.69-11.81-20.95A2.09,2.09,0,0,1,1025.63,353Z" transform="translate(-95 -307)"/><path class="cls-2" d="M1023.19,354.4a1.49,1.49,0,1,1,2.49-1.41,2.08,2.08,0,0,1,.18,1.81l11.81,20.95-1.23.69-11.81-20.95A2.06,2.06,0,0,1,1023.19,354.4Z" transform="translate(-95 -307)"/><path class="cls-2" d="M1008.49,362.68a1.49,1.49,0,1,1,2.49-1.41,2.12,2.12,0,0,1,.19,1.81L1023,384l-1.23.69-11.8-21A2.07,2.07,0,0,1,1008.49,362.68Z" transform="translate(-95 -307)"/><path class="cls-2" d="M1001.14,366.82a1.49,1.49,0,1,1,2.49-1.4,2.1,2.1,0,0,1,.19,1.8l11.8,20.95-1.23.69-11.8-20.95A2.07,2.07,0,0,1,1001.14,366.82Z" transform="translate(-95 -307)"/><path class="cls-2" d="M959.5,390.28a1.49,1.49,0,1,1,2.49-1.4,2.12,2.12,0,0,1,.19,1.81L974,411.64l-1.23.69L961,391.38A2.09,2.09,0,0,1,959.5,390.28Z" transform="translate(-95 -307)"/><path class="cls-2" d="M993.79,371a1.49,1.49,0,1,1,2.49-1.4,2.06,2.06,0,0,1,.19,1.8l11.81,20.95-1.23.7-11.81-20.95A2.12,2.12,0,0,1,993.79,371Z" transform="translate(-95 -307)"/><path class="cls-2" d="M981.55,377.86a1.49,1.49,0,1,1,2.49-1.4,2.06,2.06,0,0,1,.18,1.8L996,399.21l-1.23.7L983,379A2.12,2.12,0,0,1,981.55,377.86Z" transform="translate(-95 -307)"/><path class="cls-2" d="M971.75,383.38a1.49,1.49,0,1,1,2.49-1.4,2.1,2.1,0,0,1,.19,1.8l11.8,21-1.23.7-11.8-20.95A2.09,2.09,0,0,1,971.75,383.38Z" transform="translate(-95 -307)"/><path class="cls-2" d="M1028.08,351.64a1.49,1.49,0,1,1,2.5-1.41,2.08,2.08,0,0,1,.18,1.81L1042.57,373l-1.23.69-11.81-20.95A2.07,2.07,0,0,1,1028.08,351.64Z" transform="translate(-95 -307)"/><path class="cls-2" d="M1020.74,355.78a1.49,1.49,0,1,1,2.49-1.41,2.08,2.08,0,0,1,.18,1.81l11.81,20.95-1.23.69-11.81-20.95A2.08,2.08,0,0,1,1020.74,355.78Z" transform="translate(-95 -307)"/><path class="cls-2" d="M1015.84,358.54a1.49,1.49,0,1,1,2.49-1.41,2.12,2.12,0,0,1,.19,1.81l11.8,20.95-1.23.69-11.81-20.95A2.08,2.08,0,0,1,1015.84,358.54Z" transform="translate(-95 -307)"/><path class="cls-2" d="M1010.94,361.3a1.49,1.49,0,1,1,2.49-1.41,2.12,2.12,0,0,1,.19,1.81l11.8,20.95-1.23.69-11.8-20.95A2.07,2.07,0,0,1,1010.94,361.3Z" transform="translate(-95 -307)"/><path class="cls-2" d="M1003.59,365.44a1.49,1.49,0,1,1,2.49-1.4,2.1,2.1,0,0,1,.19,1.8l11.8,21-1.23.69-11.8-21A2.07,2.07,0,0,1,1003.59,365.44Z" transform="translate(-95 -307)"/><path class="cls-2" d="M986.44,375.1a1.49,1.49,0,1,1,2.5-1.4,2.06,2.06,0,0,1,.18,1.8l11.81,20.95-1.23.7L987.89,376.2A2.12,2.12,0,0,1,986.44,375.1Z" transform="translate(-95 -307)"/><path class="cls-2" d="M979.1,379.24a1.49,1.49,0,1,1,2.49-1.4,2.06,2.06,0,0,1,.18,1.8l11.81,20.95-1.23.7-11.81-21A2.12,2.12,0,0,1,979.1,379.24Z" transform="translate(-95 -307)"/><path class="cls-2" d="M969.3,384.76a1.49,1.49,0,1,1,2.49-1.4,2.1,2.1,0,0,1,.19,1.8l11.8,21-1.23.69-11.8-20.95A2.09,2.09,0,0,1,969.3,384.76Z" transform="translate(-95 -307)"/><path class="cls-2" d="M962,388.9a1.49,1.49,0,1,1,2.49-1.4,2.12,2.12,0,0,1,.19,1.81l11.8,20.95-1.23.69L963.4,390A2.09,2.09,0,0,1,962,388.9Z" transform="translate(-95 -307)"/><path class="cls-2" d="M952.15,394.43a1.49,1.49,0,1,1,2.49-1.41,2.09,2.09,0,0,1,.19,1.81l11.81,20.95-1.23.69-11.81-21A2.07,2.07,0,0,1,952.15,394.43Z" transform="translate(-95 -307)"/><path class="cls-2" d="M1018.29,357.16a1.49,1.49,0,1,1,2.49-1.41,2.08,2.08,0,0,1,.18,1.81l11.81,20.95-1.23.69-11.81-20.95A2.08,2.08,0,0,1,1018.29,357.16Z" transform="translate(-95 -307)"/><path class="cls-2" d="M1013.39,359.92a1.49,1.49,0,1,1,2.49-1.41,2.12,2.12,0,0,1,.19,1.81l11.8,20.95-1.23.69L1014.84,361A2.07,2.07,0,0,1,1013.39,359.92Z" transform="translate(-95 -307)"/><path class="cls-2" d="M1006,364.06a1.49,1.49,0,1,1,2.49-1.4,2.1,2.1,0,0,1,.19,1.8l11.8,21-1.23.69-11.8-21A2.07,2.07,0,0,1,1006,364.06Z" transform="translate(-95 -307)"/><path class="cls-2" d="M996.24,369.58a1.49,1.49,0,1,1,2.49-1.4,2.1,2.1,0,0,1,.19,1.8l11.81,20.95-1.23.7-11.81-21A2.07,2.07,0,0,1,996.24,369.58Z" transform="translate(-95 -307)"/><path class="cls-2" d="M991.34,372.34a1.49,1.49,0,1,1,2.49-1.4,2,2,0,0,1,.19,1.8l11.81,20.95-1.23.7-11.81-20.95A2.12,2.12,0,0,1,991.34,372.34Z" transform="translate(-95 -307)"/><path class="cls-2" d="M974.2,382a1.49,1.49,0,1,1,2.49-1.4,2.1,2.1,0,0,1,.19,1.8l11.8,21-1.23.7-11.8-20.95A2.09,2.09,0,0,1,974.2,382Z" transform="translate(-95 -307)"/><path class="cls-2" d="M964.4,387.52a1.49,1.49,0,1,1,2.49-1.4,2.12,2.12,0,0,1,.19,1.81l11.8,20.95-1.23.69-11.8-20.95A2.09,2.09,0,0,1,964.4,387.52Z" transform="translate(-95 -307)"/><path class="cls-2" d="M937.46,402.71A1.49,1.49,0,1,1,940,401.3a2.08,2.08,0,0,1,.18,1.81l11.81,20.95-1.23.69L938.9,403.8A2.08,2.08,0,0,1,937.46,402.71Z" transform="translate(-95 -307)"/><path class="cls-2" d="M957.05,391.67a1.49,1.49,0,1,1,2.49-1.41,2.12,2.12,0,0,1,.19,1.81L971.53,413l-1.23.69-11.8-20.95A2.1,2.1,0,0,1,957.05,391.67Z" transform="translate(-95 -307)"/><path class="cls-2" d="M949.7,395.81a1.49,1.49,0,1,1,2.49-1.41,2.05,2.05,0,0,1,.19,1.81l11.81,21-1.23.69-11.81-21A2.07,2.07,0,0,1,949.7,395.81Z" transform="translate(-95 -307)"/><path class="cls-2" d="M944.8,398.57a1.49,1.49,0,1,1,2.5-1.41,2.08,2.08,0,0,1,.18,1.81l11.81,20.95-1.23.69-11.81-20.95A2.07,2.07,0,0,1,944.8,398.57Z" transform="translate(-95 -307)"/><path class="cls-2" d="M998.69,368.2a1.49,1.49,0,1,1,2.49-1.4,2.1,2.1,0,0,1,.19,1.8l11.8,20.95-1.22.69-11.81-20.95A2.07,2.07,0,0,1,998.69,368.2Z" transform="translate(-95 -307)"/><path class="cls-2" d="M988.89,373.72a1.49,1.49,0,1,1,2.5-1.4,2.06,2.06,0,0,1,.18,1.8l11.81,20.95-1.23.7-11.81-20.95A2.12,2.12,0,0,1,988.89,373.72Z" transform="translate(-95 -307)"/><path class="cls-2" d="M984,376.48a1.49,1.49,0,1,1,2.5-1.4,2.06,2.06,0,0,1,.18,1.8l11.81,20.95-1.23.7-11.81-20.95A2.12,2.12,0,0,1,984,376.48Z" transform="translate(-95 -307)"/><path class="cls-2" d="M976.65,380.62a1.49,1.49,0,1,1,2.49-1.4,2.06,2.06,0,0,1,.18,1.8l11.81,21-1.23.7-11.81-20.95A2.12,2.12,0,0,1,976.65,380.62Z" transform="translate(-95 -307)"/><path class="cls-2" d="M966.85,386.14a1.49,1.49,0,1,1,2.49-1.4,2.12,2.12,0,0,1,.19,1.81l11.8,20.95-1.23.69-11.8-20.95A2.09,2.09,0,0,1,966.85,386.14Z" transform="translate(-95 -307)"/><path class="cls-2" d="M954.6,393.05a1.49,1.49,0,1,1,2.49-1.41,2.12,2.12,0,0,1,.19,1.81l11.81,20.95-1.23.69-11.81-20.95A2.07,2.07,0,0,1,954.6,393.05Z" transform="translate(-95 -307)"/><path class="cls-2" d="M947.25,397.19a1.49,1.49,0,1,1,2.5-1.41,2.08,2.08,0,0,1,.18,1.81l11.81,21-1.23.69-11.81-21A2.07,2.07,0,0,1,947.25,397.19Z" transform="translate(-95 -307)"/><path class="cls-2" d="M942.35,400a1.49,1.49,0,1,1,2.5-1.41,2.08,2.08,0,0,1,.18,1.81l11.81,20.95-1.23.69L943.8,401A2.07,2.07,0,0,1,942.35,400Z" transform="translate(-95 -307)"/><path class="cls-2" d="M939.91,401.33a1.49,1.49,0,1,1,2.49-1.41,2.08,2.08,0,0,1,.18,1.81l11.81,20.95-1.23.69-11.81-20.95A2.06,2.06,0,0,1,939.91,401.33Z" transform="translate(-95 -307)"/><path class="cls-2" d="M935,404.09a1.49,1.49,0,1,1,2.49-1.41,2.08,2.08,0,0,1,.18,1.81l11.81,20.95-1.23.69-11.81-20.95A2.08,2.08,0,0,1,935,404.09Z" transform="translate(-95 -307)"/><path class="cls-3" d="M821.6,511.28a8.75,8.75,0,0,0-4.07,3.66c-.78,1.69-.36,4,1.32,4.84a5,5,0,0,0,3.78-.24,44.14,44.14,0,0,0,7.12-3.7l2.86-1.71a3.38,3.38,0,0,0,1.52-1.42c.27-.65-.07-1.58-.78-1.63-3.26,2.12-6.58,4.26-10.32,5.32-.76.21-1.74.31-2.19-.33a1.78,1.78,0,0,1,.39-2c1.47-1.79,3.87-2.46,6.11-3,1.58-.4,3.21-.73,4.74-1.26C831.55,506.06,823.36,510.35,821.6,511.28Z" transform="translate(-95 -307)"/><path class="cls-4" d="M1054.3,371.49,947.08,431.91l8.75,15.54a10.61,10.61,0,0,0,14.45,4l78.24-44.09a10.61,10.61,0,0,0,5.4-9.09Z" transform="translate(-95 -307)"/><path class="cls-5" d="M952.92,428.62l5.46,9.69a10.61,10.61,0,0,0,14.45,4l78.23-44.09a10.49,10.49,0,0,0,2.89-2.39l0,2.43a10.61,10.61,0,0,1-5.4,9.09l-78.24,44.09a10.61,10.61,0,0,1-14.45-4l-8.75-15.54Z" transform="translate(-95 -307)"/><path class="cls-3" d="M947.48,431.69l107.08-60.34a3.13,3.13,0,0,0,1.18-4.26h0a3.11,3.11,0,0,0-4.25-1.18L944.41,426.25a3.13,3.13,0,0,0-1.19,4.25h0A3.14,3.14,0,0,0,947.48,431.69Z" transform="translate(-95 -307)"/><path class="cls-4" d="M830.14,509.34a6.69,6.69,0,0,1,2.54-9.11l116-65.4,6.43,11.41-21.48,12.1c-.12,2.67,1.26,8.33-8.5,14.05-7.2,4.23-12.3,5.11-16.37,3.48-.77,6-6.62,9.47-11.9,12.45-4.4,2.49-9.59,5.35-13.81,2.56.83,3.43-8.58,10.76-12.51,13.08-5.05,3-12.49,5.31-16,2.42.34,4.67-3.67,8.06-7.82,10.21-2.61,1.36-5.19,2.93-8.07,2.31a8,8,0,0,1-5.38-4h0Z" transform="translate(-95 -307)"/><path class="cls-5" d="M836.92,515.79c2.87.61,5.45-1,8.06-2.31,4.15-2.16,8.16-5.55,7.82-10.21,3.54,2.89,11,.55,16-2.43,3.93-2.32,13.35-9.64,12.51-13.07,4.22,2.78,9.42-.07,13.82-2.56,5.28-3,11.12-6.44,11.9-12.45,4.07,1.62,9.16.74,16.36-3.48,9.77-5.73,8.39-11.38,8.5-14.06l21.48-12.1,1.76,3.12-21.48,12.1c-.12,2.67,1.26,8.33-8.5,14.05-7.2,4.23-12.3,5.11-16.37,3.48-.77,6-6.62,9.47-11.9,12.45-4.4,2.49-9.59,5.35-13.81,2.56.83,3.43-8.58,10.76-12.51,13.08-5.05,3-12.49,5.31-16,2.42.34,4.67-3.67,8.06-7.82,10.21-2.61,1.36-5.19,2.93-8.07,2.31a8,8,0,0,1-5.38-4h0l-1.76-3.11h0A8,8,0,0,0,836.92,515.79Z" transform="translate(-95 -307)"/><polygon class="cls-5" points="953.37 67.83 853.29 124.2 857 130.79 953.37 67.83"/><path class="cls-6" d="M1049.12,384.33l.78,6.85a13.28,13.28,0,0,1,.11,3.15,6.19,6.19,0,0,1-5.23,5.36,2.58,2.58,0,0,1-1.55-.26c-.93-.55-1.09-1.81-1.15-2.89l-.51-9.55c-.1-1.95.28-4.85,2.09-6.05C1046.57,379,1048.81,381.6,1049.12,384.33Z" transform="translate(-95 -307)"/><path class="cls-6" d="M926.62,453.38c.81,1.38-1,2.83-2.41,3.5A234,234,0,0,0,893,474.11c-1.77,1.16-3.64,2.38-5.75,2.53-.78.06-1.72-.15-2-.89-.32-.92.67-1.73,1.52-2.21C890.91,471.2,924.71,450.16,926.62,453.38Z" transform="translate(-95 -307)"/><text class="cls-19" transform="translate(723.93 260.96)">AS<tspan class="cls-20" x="137.71" y="0">E</tspan><tspan x="202.19" y="0">O</tspan></text><path class="cls-17" d="M772.51,644.44A35.56,35.56,0,1,1,737,608.89,35.56,35.56,0,0,1,772.51,644.44Z" transform="translate(-95 -307)"/><path class="cls-18" d="M714.2,632a17.49,17.49,0,0,0-2.1,10.69,11.38,11.38,0,0,0,6.2,8.64c3.36,1.51,7.78.7,10-2.24,3.29-4.36,1.11-11.37,4.79-15.41,1.59-1.75,3.95-2.52,6-3.68s4-3.16,3.8-5.51c-.59-6-10.27-5.61-14.27-4.46A24.52,24.52,0,0,0,714.2,632Z" transform="translate(-95 -307)"/><path class="cls-17" d="M862,384.41a20.67,20.67,0,1,1-20.67-20.67A20.67,20.67,0,0,1,862,384.41Z" transform="translate(-95 -307)"/><path class="cls-18" d="M828.1,377.16a10.16,10.16,0,0,0-1.22,6.21,6.6,6.6,0,0,0,3.6,5,4.93,4.93,0,0,0,5.82-1.3c1.92-2.54.65-6.61,2.79-9a12.64,12.64,0,0,1,3.49-2.14c1.2-.68,2.35-1.84,2.21-3.2-.34-3.5-6-3.27-8.3-2.6A14.25,14.25,0,0,0,828.1,377.16Z" transform="translate(-95 -307)"/><path class="cls-17" d="M437.91,400.37a17.63,17.63,0,1,1-17.62-17.63A17.62,17.62,0,0,1,437.91,400.37Z" transform="translate(-95 -307)"/><path class="cls-18" d="M409,394.18a8.72,8.72,0,0,0-1,5.3,5.66,5.66,0,0,0,3.07,4.29,4.22,4.22,0,0,0,5-1.11c1.63-2.16.55-5.64,2.37-7.64a11.16,11.16,0,0,1,3-1.83,3.13,3.13,0,0,0,1.89-2.73c-.29-3-5.09-2.78-7.08-2.21A12.22,12.22,0,0,0,409,394.18Z" transform="translate(-95 -307)"/><path class="cls-17" d="M1323.91,581.37a18.63,18.63,0,1,1-18.62-18.63A18.63,18.63,0,0,1,1323.91,581.37Z" transform="translate(-95 -307)"/><path class="cls-18" d="M1293.36,574.83a9.17,9.17,0,0,0-1.1,5.6,5.94,5.94,0,0,0,3.25,4.53,4.45,4.45,0,0,0,5.25-1.17c1.72-2.29.58-6,2.51-8.08a12,12,0,0,1,3.14-1.93c1.08-.6,2.12-1.65,2-2.88-.31-3.15-5.39-2.94-7.48-2.34A12.91,12.91,0,0,0,1293.36,574.83Z" transform="translate(-95 -307)"/><path class="cls-17" d="M1525.92,428.81a36.19,36.19,0,1,1-36.19-36.18A36.19,36.19,0,0,1,1525.92,428.81Z" transform="translate(-95 -307)"/><path class="cls-18" d="M1466.57,416.11a17.81,17.81,0,0,0-2.14,10.88,11.57,11.57,0,0,0,6.31,8.8c3.43,1.54,7.92.72,10.19-2.28,3.35-4.44,1.13-11.57,4.87-15.69,1.62-1.77,4-2.56,6.12-3.74s4.11-3.21,3.87-5.61c-.6-6.12-10.46-5.71-14.53-4.53A25,25,0,0,0,1466.57,416.11Z" transform="translate(-95 -307)"/><path class="cls-17" d="M1138.91,394.81a7.19,7.19,0,1,1-7.18-7.18A7.18,7.18,0,0,1,1138.91,394.81Z" transform="translate(-95 -307)"/><path class="cls-18" d="M1127.13,392.29a3.55,3.55,0,0,0-.43,2.16,2.33,2.33,0,0,0,1.26,1.75,1.73,1.73,0,0,0,2-.45c.67-.89.22-2.3,1-3.12a4.52,4.52,0,0,1,1.21-.74,1.27,1.27,0,0,0,.77-1.12c-.12-1.21-2.07-1.13-2.88-.9A5,5,0,0,0,1127.13,392.29Z" transform="translate(-95 -307)"/><path class="cls-17" d="M213.4,464.3a36.19,36.19,0,1,1-36.19-36.19A36.18,36.18,0,0,1,213.4,464.3Z" transform="translate(-95 -307)"/><path class="cls-18" d="M154.05,451.6a17.71,17.71,0,0,0-2.13,10.88,11.56,11.56,0,0,0,6.3,8.79c3.43,1.54,7.93.72,10.19-2.28,3.36-4.44,1.13-11.57,4.88-15.68,1.62-1.78,4-2.57,6.11-3.75s4.11-3.21,3.88-5.6c-.61-6.13-10.46-5.71-14.53-4.54A25,25,0,0,0,154.05,451.6Z" transform="translate(-95 -307)"/><path class="cls-17" d="M1499.92,622.05a45.95,45.95,0,1,1-46-45.94A45.95,45.95,0,0,1,1499.92,622.05Z" transform="translate(-95 -307)"/><path class="cls-18" d="M1424.56,605.93a22.58,22.58,0,0,0-2.71,13.81c.74,4.72,3.65,9.21,8,11.17s10.06.91,12.94-2.9c4.25-5.63,1.43-14.69,6.19-19.91,2.06-2.25,5.1-3.25,7.76-4.76s5.22-4.07,4.92-7.11c-.76-7.78-13.28-7.25-18.45-5.76A31.76,31.76,0,0,0,1424.56,605.93Z" transform="translate(-95 -307)"/></svg>