<svg id="Layer_1" data-name="Layer 1" xmlns="http://www.w3.org/2000/svg" viewBox="0 0 193.1 291.48"><defs><style>.cls-1{fill:#4f2e16;}.cls-2{fill:#ffdda8;}.cls-3{fill:#bc7c46;}.cls-4{fill:#dda866;}.cls-5{fill:#f9c98a;}.cls-6{fill:#9b7451;}.cls-7{fill:#caaf8f;}.cls-8{fill:#e5e0dc;}.cls-9{fill:#b2aeab;}.cls-10{fill:#939899;}.cls-11{fill:#d1d1d1;}.cls-12{fill:#a20f0f;}.cls-13{fill:#d5eefa;}.cls-14{fill:#eaf5f9;}.cls-15{fill:#cc0e0e;}.cls-16{fill:#e51717;}</style></defs><polygon class="cls-1" points="68.49 275.21 67.05 276.04 67.05 274.38 68.49 273.55 68.49 275.21"/><path class="cls-2" d="M283.32,271.25l-7.43-4.3L252,253.15,229.75,266l-3.67,2.12-.37.23-3.38,1.94-24.2,13.95L220,296.82l2.19,1.27.39.23,3.54,2,3.52,2.05L253.15,316l24-13.88,3.52-2,.38-.23,3.55-2L307,284.94l0,0Z" transform="translate(-158.32 -79.26)"/><polygon class="cls-3" points="94.84 236.73 94.82 291.48 71.29 278 71.2 277.95 67.05 275.57 65.65 274.77 63.84 273.74 61.64 272.48 39.81 259.96 39.83 204.95 63.85 218.83 65.67 219.88 67.06 220.69 71.31 223.14 94.84 236.73"/><path class="cls-4" d="M284.62,297.81l-1.92,1.12-1.4.81-.28.17-.36.21-3.48,2-24,13.87,0,54.75,24-13.77,4.12-2.36,1.4-.82,1.93-1.1L307,339.88V284.93Z" transform="translate(-158.32 -79.26)"/><polygon class="cls-1" points="99.5 279.85 99.13 280.07 99.14 273.66 99.5 273.44 99.5 279.85"/><polygon class="cls-1" points="100.82 274.09 100.56 274.54 99.32 273.71 98.09 275.97 97.81 275.83 99.32 273.1 100.82 274.09"/><polygon class="cls-1" points="103.19 277.73 102.82 277.95 102.82 271.53 103.19 271.32 103.19 277.73"/><polygon class="cls-1" points="104.51 271.97 104.23 272.42 103.01 271.59 101.77 273.84 101.49 273.71 103.01 270.97 104.51 271.97"/><path class="cls-1" d="M262.93,356.39l-6.89,4c-.1.05-.17,0-.17-.11a.36.36,0,0,1,.17-.32l6.89-4c.09-.07.18,0,.18.1A.46.46,0,0,1,262.93,356.39Z" transform="translate(-158.32 -79.26)"/><path class="cls-1" d="M262.87,358.12l-6.76,3.9c-.72.42-1.3.08-1.3-.74v-7.8a2.84,2.84,0,0,1,1.3-2.24l6.76-3.9c.71-.41,1.28-.07,1.28.75v7.8A2.87,2.87,0,0,1,262.87,358.12Zm-6.76-6.45a2.07,2.07,0,0,0-.93,1.6v7.8c0,.58.42.82.93.53l6.76-3.9a2,2,0,0,0,.91-1.6v-7.8c0-.59-.42-.83-.92-.53Z" transform="translate(-158.32 -79.26)"/><path class="cls-1" d="M274.8,351.34l-6.95,4c-.73.42-1.32.08-1.32-.76v-8a2.94,2.94,0,0,1,1.32-2.3l7-4c.73-.42,1.31-.08,1.31.77v8A2.93,2.93,0,0,1,274.8,351.34Zm-6.95-6.64a2.07,2.07,0,0,0-.94,1.64v8c0,.6.42.85,1,.55l7-4a2.11,2.11,0,0,0,.94-1.64v-8c0-.61-.43-.86-.94-.55Z" transform="translate(-158.32 -79.26)"/><path class="cls-1" d="M271.33,351.16c-.11.06-.21,0-.21-.12V345.3a.42.42,0,0,1,.2-.33c.1-.06.18,0,.18.11v5.75A.44.44,0,0,1,271.33,351.16Z" transform="translate(-158.32 -79.26)"/><path class="cls-1" d="M272.18,350.66l-1.72,1c-.1.07-.19,0-.19-.1a.4.4,0,0,1,.19-.33l1.72-1c.11-.06.2,0,.19.11A.4.4,0,0,1,272.18,350.66Z" transform="translate(-158.32 -79.26)"/><path class="cls-1" d="M273.16,343.39v2.69a2.51,2.51,0,0,1-1.14,2l-1.39.8c-.63.37-1.13.07-1.13-.65V345.5l.69-.4V348c0,.12.08.17.18.11a.41.41,0,0,0,.19-.33v-2.88Z" transform="translate(-158.32 -79.26)"/><path class="cls-5" d="M252,254l-52.39,30.24,53.55,30.71,52.39-30Z" transform="translate(-158.32 -79.26)"/><polygon class="cls-3" points="148.65 206.23 148.65 206.66 94.82 237.71 94.82 237.28 148.65 206.23"/><polygon class="cls-3" points="122.77 220.61 122.4 220.83 67.39 189.05 67.75 188.83 122.77 220.61"/><polygon class="cls-3" points="122.69 220.66 122.69 221.54 122.33 221.54 122.33 220.87 122.69 220.66"/><polygon class="cls-6" points="126.31 218.52 126.29 273.44 118.84 277.71 118.86 222.82 126.31 218.52"/><polygon class="cls-7" points="126.32 218.56 122.77 220.6 122.4 220.83 118.87 222.87 64.01 191 67.39 189.05 67.76 188.82 71.43 186.7 126.32 218.56"/><polygon class="cls-6" points="71.31 223.1 71.29 278 71.19 277.95 63.82 273.74 63.84 218.79 71.31 223.1"/><polygon class="cls-7" points="125 191.99 71.29 223.15 67.76 221.1 67.39 220.87 64.23 219.06 63.84 218.83 108.98 192.66 112.37 190.69 117.56 187.69 120.46 189.35 122.34 190.46 125 191.99"/><polygon class="cls-8" points="145.74 227.03 130.19 236 130.19 222.63 145.75 213.66 145.74 227.03"/><polygon class="cls-1" points="144.26 217.67 131.67 224.94 131.67 223.44 144.26 216.17 144.26 217.67"/><polygon class="cls-9" points="144.26 220.36 131.67 227.62 131.67 226.96 144.26 219.7 144.26 220.36"/><polygon class="cls-9" points="144.26 222.12 131.67 229.38 131.67 228.72 144.26 221.46 144.26 222.12"/><polygon class="cls-9" points="144.26 224 131.67 231.27 131.67 230.61 144.26 223.34 144.26 224"/><polygon class="cls-9" points="144.26 225.76 131.67 233.03 131.67 232.37 144.26 225.1 144.26 225.76"/><polygon class="cls-1" points="122.34 190.46 108.98 192.66 94.32 195.09 94.09 193.72 112.37 190.69 120.46 189.35 122.34 190.46"/><rect class="cls-10" x="250.17" y="272.07" width="3.47" height="4.64" transform="translate(-261.8 83.55) rotate(-30.02)"/><path class="cls-10" d="M251.22,270.2a3.81,3.81,0,0,0-.09.79,5.62,5.62,0,0,0,.26,1.59v0a.94.94,0,0,1,.55.15,3,3,0,0,1,1.32,2.26,1.21,1.21,0,0,1-.14.56,5.19,5.19,0,0,0,1.24,1,4.25,4.25,0,0,0,.74.32,1.94,1.94,0,0,0,1.55-.09,1.87,1.87,0,0,0,.7-.77,3.37,3.37,0,0,0,.26-1.34,7.2,7.2,0,0,0-3.24-5.62,3.15,3.15,0,0,0-1.28-.42,1.79,1.79,0,0,0-1,.21A1.94,1.94,0,0,0,251.22,270.2Z" transform="translate(-158.32 -79.26)"/><path class="cls-10" d="M249.66,270.29l2.42-1.4a1.79,1.79,0,0,1,1-.21l4.26,7.38a1.87,1.87,0,0,1-.7.77l-2.42,1.39-1.36-2.37a.57.57,0,0,0,.25-.28,1.21,1.21,0,0,0,.14-.56,3,3,0,0,0-1.32-2.26.94.94,0,0,0-.55-.15v0a.8.8,0,0,0-.36.08Z" transform="translate(-158.32 -79.26)"/><path class="cls-11" d="M251.94,270.51a2.33,2.33,0,0,0-.73-.31,1.83,1.83,0,0,0-1.55.09,2.27,2.27,0,0,0-.95,2.1,6.64,6.64,0,0,0,.88,3.08,8,8,0,0,0,.8,1.17,6,6,0,0,0,1.55,1.36,2.26,2.26,0,0,0,2.29.22,2,2,0,0,0,.87-1.31,2.79,2.79,0,0,0,.08-.78A7.16,7.16,0,0,0,251.94,270.51Zm1.31,4.5a1.14,1.14,0,0,1-.13.57.59.59,0,0,1-.26.26.92.92,0,0,1-.92-.09,1.22,1.22,0,0,1-.32-.24,3,3,0,0,1-.8-1.17,2.4,2.4,0,0,1-.18-.84,1,1,0,0,1,.39-.84.58.58,0,0,1,.35-.07h0a.87.87,0,0,1,.55.15,2.51,2.51,0,0,1,.32.25l.15-.14,1,1-.29.28A2.41,2.41,0,0,1,253.25,275Z" transform="translate(-158.32 -79.26)"/><polygon class="cls-1" points="67.06 220.69 67.05 276.04 65.65 275.21 65.67 219.88 67.06 220.69"/><path class="cls-11" d="M253.36,273.87l-.29.28a3,3,0,0,0-.81-1.15l.15-.14Z" transform="translate(-158.32 -79.26)"/><path class="cls-1" d="M253.07,274.15l-1.45,1.36-1.23,1.13-25,23.31-1.4-.82,25.6-23.66,1.23-1.13,1.44-1.34A3,3,0,0,1,253.07,274.15Z" transform="translate(-158.32 -79.26)"/><path class="cls-1" d="M252.88,273.77a1.94,1.94,0,0,1,.22.49h0l-.37-.33Z" transform="translate(-158.32 -79.26)"/><path class="cls-1" d="M340.1,173l-84.26,97.35a9,9,0,0,1,.6.78l83.66-96.66Z" transform="translate(-158.32 -79.26)"/><polygon class="cls-1" points="94.1 195.32 8.96 93.06 9.71 92.43 94.75 194.9 94.1 195.32"/><polygon class="cls-1" points="93.95 195.13 63.05 122.39 63.95 122.01 94.75 194.9 93.95 195.13"/><path class="cls-1" d="M252.88,273.77a1.94,1.94,0,0,1,.22.49h0l-.45-.22.18-.37S252.86,273.72,252.88,273.77Z" transform="translate(-158.32 -79.26)"/><path class="cls-1" d="M289,199.88,255.6,270.1a5.44,5.44,0,0,0-.77-.68l33.28-70Z" transform="translate(-158.32 -79.26)"/><path class="cls-12" d="M320,100.86c-35.95-24.68-94.24-24.7-130.19,0s-36,64.65,0,89.32,94.23,24.7,130.19,0S355.93,125.53,320,100.86Z" transform="translate(-158.32 -79.26)"/><path class="cls-13" d="M350.69,137.34c-2.54-14.13-11.72-27.81-27.52-38.67A103.29,103.29,0,0,0,300,86.91a129.07,129.07,0,0,0-31-7,140.91,140.91,0,0,0-14.08-.7c-.54,0-1.06,0-1.59,0-4,0-7.93.24-11.86.62-3.69.36-7.37.86-11,1.52l-.25,0q-6,1.08-11.75,2.68s0,0,0,0a107.34,107.34,0,0,0-31.77,14.49,83,83,0,0,0-9.09,7.2C198,94.21,223.71,89.27,248.68,91c.46-.17.92-.31,1.41-.44l.26-.06a12.62,12.62,0,0,1,1.51-.31c.45-.07.91-.14,1.39-.18l.77,0c.56,0,1.11,0,1.67,0q.49,0,1,.06l.93.11a.08.08,0,0,1,.08,0c.27,0,.53.07.8.12a.65.65,0,0,1,.2,0l.71.16a.8.8,0,0,1,.21.05A13.49,13.49,0,0,1,263,91.86,9.32,9.32,0,0,1,264.55,93c2.1,1.91,2.34,4.32.7,6.35A8.23,8.23,0,0,1,263,101.2a15.56,15.56,0,0,1-6.74,1.87,18.69,18.69,0,0,1-2.8,0,17,17,0,0,1-4.41-.88,12.65,12.65,0,0,1-2.21-1,11.49,11.49,0,0,1-1.15-.77c-5.44.63-17.18,2.26-26.87,5.89a105,105,0,0,0-23.74,12.37c-21.88,15-31.07,35.45-27.54,55a72.69,72.69,0,0,0,19.09,18.62q2.72,1.88,5.6,3.55A113.25,113.25,0,0,0,225,208.5c30.66,6.84,65.33,2.86,91.35-11.92,2.33-1.32,4.6-2.73,6.77-4.22C345,177.34,354.23,156.91,350.69,137.34Z" transform="translate(-158.32 -79.26)"/><path class="cls-13" d="M186.61,98.63a83,83,0,0,0-9.09,7.2c2.86-1.62,5.83-3.1,8.87-4.47a68.51,68.51,0,0,1,4.79-5.65C189.62,96.65,188.09,97.62,186.61,98.63Z" transform="translate(-158.32 -79.26)"/><path class="cls-14" d="M184.48,149.79c3.47,1.16,8.1,4.63,12.73,2.32,3.47-2.31,6.94-3.47,8.1-8.1,2.31,6.94,4.62,20.83,15,18.52,2.31,0,5.79-4.63,6.94-8.1,3.47,13.89,20.83,18.52,34.72,16.21,6.94-2.31,16.2-4.62,18.51-11.56,2.32-5.79,7-10.42,7-16.2,0,2.31,1.16,5.78,3.47,4.63,2.32,0,0-4.63,1.16-6.94,11.57,6.94,32.4,11.57,38.19-3.47,2.32-6.94,3.48-16.19-2.31-23.14-2.31-2.31-3.47-5.79-5.78-8.1,2.31,1.15,3.47-2.31,3.47-3.47a12.7,12.7,0,0,0,1.11-1.08c-1.16-.89-2.36-1.78-3.61-2.64A103.29,103.29,0,0,0,300,86.91a129.07,129.07,0,0,0-31-7,140.91,140.91,0,0,0-14.08-.7c-.54,0-1.06,0-1.59,0-4,0-7.93.24-11.86.62-3.69.36-7.37.86-11,1.52l-.25,0q-6,1.08-11.75,2.68s0,0,0,0a110.39,110.39,0,0,0-27.2,11.57,68.51,68.51,0,0,0-4.79,5.65C205.15,93,227.2,89.51,248.68,91c.46-.17.92-.31,1.41-.44l.26-.06a12.62,12.62,0,0,1,1.51-.31c.45-.07.91-.14,1.39-.18l.77,0c.56,0,1.11,0,1.67,0q.49,0,1,.06l.93.11a.08.08,0,0,1,.08,0c.27,0,.53.07.8.12a.65.65,0,0,1,.2,0l.71.16a.8.8,0,0,1,.21.05A13.49,13.49,0,0,1,263,91.86,9.32,9.32,0,0,1,264.55,93c2.1,1.91,2.34,4.32.7,6.35A8.23,8.23,0,0,1,263,101.2a15.56,15.56,0,0,1-6.74,1.87,18.69,18.69,0,0,1-2.8,0,17,17,0,0,1-4.41-.88,12.65,12.65,0,0,1-2.21-1,11.49,11.49,0,0,1-1.15-.77c-5.44.63-17.18,2.26-26.87,5.89a105,105,0,0,0-23.74,12.37,82,82,0,0,0-9.9,8h.49C178.7,131.28,174.07,144,184.48,149.79Z" transform="translate(-158.32 -79.26)"/><path class="cls-15" d="M245.66,100.43a147.29,147.29,0,0,0-19.4,4,99.63,99.63,0,0,0-31.21,14.28c-21.88,15-31.07,35.45-27.54,55-15-21.8-11.63-48.06,10-67.87C198,94.21,223.71,89.27,248.68,91a12.35,12.35,0,0,0-1.87.88C242.77,94.19,242.38,97.84,245.66,100.43Z" transform="translate(-158.32 -79.26)"/><path class="cls-15" d="M264,100.44a144.49,144.49,0,0,1,19.4,4,99.6,99.6,0,0,1,31.2,14.29c21.87,15,31.06,35.47,27.51,55,15-21.79,11.65-48-10-67.88C311.74,94.25,286,89.29,261,91a14,14,0,0,1,1.87.88C266.92,94.2,267.32,97.85,264,100.44Z" transform="translate(-158.32 -79.26)"/><path class="cls-15" d="M225,208.5a113.25,113.25,0,0,1-32.81-12.63c-1.41-9.69-1.1-21.71,3.2-35.73,7.92-25.87,33.25-50.58,53.62-58a17,17,0,0,0,4.41.88C239.16,116.39,219.33,194.84,225,208.5Z" transform="translate(-158.32 -79.26)"/><path class="cls-15" d="M284.54,208.51a113.26,113.26,0,0,0,32.82-12.6c1.42-9.7,1.11-21.71-3.18-35.73-7.91-25.88-33.22-50.61-53.58-58a16.83,16.83,0,0,1-4.42.88C270.45,116.4,290.23,194.86,284.54,208.51Z" transform="translate(-158.32 -79.26)"/><path class="cls-15" d="M300,86.91c-15.19-2.27-32.11-.39-40.21,3.63l-.14,0a.8.8,0,0,0-.21-.05c-.23-.07-.47-.11-.71-.16a.65.65,0,0,0-.2,0c-.16,0-.34-.07-.51-.09a2.85,2.85,0,0,0-.29,0,.08.08,0,0,0-.08,0c-.3-.05-.62-.09-.93-.11a8.54,8.54,0,0,0-.86-.07c0-1.77,6.1-6.84,13.11-10A129.07,129.07,0,0,1,300,86.91Z" transform="translate(-158.32 -79.26)"/><path class="cls-15" d="M253.25,90c-.48,0-.94.11-1.39.18a12.62,12.62,0,0,0-1.51.31c-6.69-3.12-20-7.5-31.95-6.34q5.78-1.61,11.75-2.68l.25,0c3.63-.66,7.31-1.16,11-1.52C245.52,82.26,252,86.69,253.25,90Z" transform="translate(-158.32 -79.26)"/><path class="cls-16" d="M246.81,91.86a12.35,12.35,0,0,1,1.87-.88c-25-1.71-50.73,3.23-71.16,14.85q-2.21,2-4.15,4.13c-3,7-2.14,14.07,6.49,17.84a9.68,9.68,0,0,0,3.15,1,79.49,79.49,0,0,1,12-10.06,99.63,99.63,0,0,1,31.21-14.28,147.29,147.29,0,0,1,19.4-4C242.38,97.84,242.77,94.19,246.81,91.86Z" transform="translate(-158.32 -79.26)"/><path class="cls-16" d="M341.87,119.75a48.81,48.81,0,0,0-3-6.79,69.57,69.57,0,0,0-6.73-7.09C311.74,94.25,286,89.29,261,91a14,14,0,0,1,1.87.88c4,2.34,4.44,6,1.15,8.58a144.49,144.49,0,0,1,19.4,4,99.6,99.6,0,0,1,31.2,14.29A74.17,74.17,0,0,1,332.77,136C341.23,135.52,344,127.17,341.87,119.75Z" transform="translate(-158.32 -79.26)"/><path class="cls-16" d="M253.43,103.06a17,17,0,0,1-4.41-.88c-18,6.53-40,26.67-50.24,49.16-1.08,2.36,1.43,7.77,2.67,9.7a15.09,15.09,0,0,0,8.91,6.64c4.06,1,8.12-.42,11.56-2.56,2.47-1.55,8.87-5.83,9.64-8.79C237.6,133.12,246.22,109.79,253.43,103.06Z" transform="translate(-158.32 -79.26)"/><path class="cls-16" d="M260.6,102.18a16.83,16.83,0,0,1-4.42.88c7.81,7.3,17.25,34.07,23.29,59.06,5,4.86,11.15,8.64,18.41,6.22,9.35-3.34,11.37-11.31,11.42-20.11C298.5,127,277.79,108.42,260.6,102.18Z" transform="translate(-158.32 -79.26)"/><path class="cls-16" d="M268.93,80c-7,3.14-13.08,8.21-13.11,10a8.54,8.54,0,0,1,.86.07c.31,0,.63.06.93.11a.08.08,0,0,1,.08,0,2.85,2.85,0,0,1,.29,0c.17,0,.35.06.51.09a.65.65,0,0,1,.2,0c.24,0,.48.09.71.16a.8.8,0,0,1,.21.05l.14,0c8.1-4,25-5.9,40.21-3.63A129.07,129.07,0,0,0,268.93,80Z" transform="translate(-158.32 -79.26)"/><path class="cls-16" d="M253.25,90c-.48,0-.94.11-1.39.18a12.62,12.62,0,0,0-1.51.31c-6.69-3.12-20-7.5-31.95-6.34q5.78-1.61,11.75-2.68l.25,0c3.63-.66,7.31-1.16,11-1.52C245.52,82.26,252,86.69,253.25,90Z" transform="translate(-158.32 -79.26)"/></svg>