<svg id="Capa_1" data-name="Capa 1" xmlns="http://www.w3.org/2000/svg" viewBox="0 0 289.35 685"><defs><style>.cls-1{fill:#fda46c;}.cls-2{fill:#615e49;}.cls-3{fill:#031800;}.cls-4{fill:#c7592f;}.cls-5{fill:#bd3f00;}.cls-6{fill:#394f43;}.cls-7{fill:#fff;}.cls-8{opacity:0.5;}.cls-9{fill:#184244;}.cls-10{fill:#3a7777;}.cls-11{fill:#b46a16;}.cls-12{fill:#e89632;}.cls-13{fill:#fdb467;}</style></defs><path class="cls-1" d="M1337.12,317.55l-7.29,19.25c-2.47,6.42-4.93,12.83-7.47,19.18-1.26,3.17-2.55,6.33-3.84,9.46s-2.62,6.24-4,9.31-2.73,6.08-4.15,9-2.87,5.79-4.37,8.4c-.75,1.3-1.5,2.54-2.23,3.65a28.85,28.85,0,0,1-2,2.68c-.24.29-.43.47-.39.47l.34-.2a6.84,6.84,0,0,1,1.16-.52,8,8,0,0,1,1.79-.39,7.68,7.68,0,0,1,1.8,0,6.33,6.33,0,0,1,1.31.31,3.7,3.7,0,0,1,.7.32.79.79,0,0,1,.22.16s0,0-.1,0a4.1,4.1,0,0,1-.73-.57,22,22,0,0,1-2.23-2.49,68.28,68.28,0,0,1-4.87-7.29c-3.19-5.4-6.19-11.37-9.08-17.43-1.45-3-2.87-6.12-4.28-9.21-.7-1.55-1.42-3.1-2.1-4.65l-1.05-2.33-.51-1.15-.51-1.1-.13-.3a9.53,9.53,0,0,0-18,5.79l.27,1.4.29,1.35c.19.89.37,1.78.58,2.67.41,1.76.83,3.53,1.28,5.28q1.37,5.27,3,10.49t3.59,10.44c.65,1.74,1.35,3.47,2.08,5.22s1.5,3.49,2.33,5.24a84.34,84.34,0,0,0,6,10.68,47.37,47.37,0,0,0,4.4,5.64,32.3,32.3,0,0,0,3.12,3,23.38,23.38,0,0,0,2,1.52,24.25,24.25,0,0,0,2.48,1.49,21.68,21.68,0,0,0,3.12,1.32,19.81,19.81,0,0,0,3.87.87,18.64,18.64,0,0,0,4.42,0,19,19,0,0,0,4.33-1,20,20,0,0,0,3.52-1.67,23.61,23.61,0,0,0,2.48-1.7,31.31,31.31,0,0,0,3.43-3.12,54.48,54.48,0,0,0,4.56-5.54c1.28-1.77,2.38-3.48,3.44-5.19,2.08-3.4,3.92-6.72,5.63-10.06s3.31-6.64,4.82-10,3-6.63,4.36-10,2.75-6.66,4-10c2.59-6.68,5-13.37,7.33-20.12,1.14-3.37,2.27-6.74,3.34-10.13.53-1.7,1.07-3.4,1.58-5.11l.77-2.56c.26-.87.49-1.71.75-2.63a13.26,13.26,0,0,0-25.15-8.36Z" transform="translate(-1233.43 -208)"/><path class="cls-1" d="M1249,326.12s6.5,30.29,21.9,35l7.91-8.6S1265.33,328.82,1249,326.12Z" transform="translate(-1233.43 -208)"/><path class="cls-2" d="M1278.66,359.94l-1.25.6a1.69,1.69,0,0,1-2-.35c-4.69-4.84-27.49-28.4-31.34-33a1.71,1.71,0,0,1-.32-1.54l5.08-17.65a1.67,1.67,0,0,1,.79-1l1.75-1-5.27,19Z" transform="translate(-1233.43 -208)"/><path class="cls-3" d="M1278.78,359.68l5.59-17.42a3.09,3.09,0,0,0-.87-2.59l-30.81-33.12c-.69-.75-1.43-.8-1.65-.12l-5.58,17.43a3.05,3.05,0,0,0,.86,2.58l30.81,33.12C1277.83,360.31,1278.57,360.36,1278.78,359.68Z" transform="translate(-1233.43 -208)"/><path class="cls-2" d="M1273.49,350.79l4.06-12.67a3,3,0,0,0-.87-2.58L1253.84,311c-.7-.75-1.44-.8-1.66-.12l-4.06,12.67a3.09,3.09,0,0,0,.87,2.59l22.84,24.56C1272.53,351.42,1273.27,351.48,1273.49,350.79Z" transform="translate(-1233.43 -208)"/><path class="cls-2" d="M1278,349.68c1.07,1.15,2.22,1.23,2.55.18a4.72,4.72,0,0,0-1.33-4c-1.07-1.15-2.21-1.24-2.55-.18A4.72,4.72,0,0,0,1278,349.68Z" transform="translate(-1233.43 -208)"/><path class="cls-1" d="M1277.87,334.16s3.47-6.57-.68-10.24-13.15-5.17-13.15-5.17c-3.72,2.53,2,6.16,9.28,10Z" transform="translate(-1233.43 -208)"/><path class="cls-1" d="M1262.32,346.57s-4.73,1.75-6.06-1,1.88-9.05,3.15-11.21,2.06,3.61,1.33,6.12a18.69,18.69,0,0,0-.49,3.89Z" transform="translate(-1233.43 -208)"/><path class="cls-1" d="M1256.6,339.7s-5,1.65-6.54-1.56,2.22-10.75,3.74-13.31,2.65,4.35,1.57,7.26-.16,4.31-.16,4.31Z" transform="translate(-1233.43 -208)"/><path class="cls-1" d="M1253.47,336.27s-4.4,1.46-5.79-1.38,2-9.49,3.31-11.75,2.34,3.84,1.38,6.41-.13,3.81-.13,3.81Z" transform="translate(-1233.43 -208)"/><path class="cls-1" d="M1259.6,344.66s-5,1.65-6.54-1.56,2.22-10.75,3.74-13.31,2.65,4.35,1.57,7.26-.16,4.31-.16,4.31Z" transform="translate(-1233.43 -208)"/><path class="cls-4" d="M1307.36,396.7l4.62,2.11c.8.37.18,1.6-.62,1.23l-4.62-2.11c-.8-.37-.18-1.6.62-1.23Z" transform="translate(-1233.43 -208)"/><path class="cls-4" d="M1304.52,395.62a12.12,12.12,0,0,1,3.25,7.68.74.74,0,0,0,1.48-.1,13.7,13.7,0,0,0-3.73-8.68c-.66-.7-1.64.41-1,1.1Z" transform="translate(-1233.43 -208)"/><path class="cls-5" d="M1428.5,275.33c1.26,7.48,1.58,14.8,4.06,21.9-5.52,4.3-12.38,6.51-19.28,7.62-15.22,2.44-31.26.29-46.15-3.22-4.72-1.12-9.55-2.41-14.31-4,2.33-19.08,4.07-40.84,2.93-48-4.55-28.61,21-47.22,51.72-40.11S1426,260.23,1428.5,275.33Z" transform="translate(-1233.43 -208)"/><path class="cls-3" d="M1446.65,338.4c-.36,2.3-3.47,6.91-7,13.2l-1.53,2.7-.71,1.25c-9.34,16.47-22.91,40.68-28.09,58.56a54.18,54.18,0,0,0-2,9.79c-2,21.86,9.26,42.48,9.26,42.48-56.35,34.85-102.46,32.49-102.46,32.49s.79-18.65,12.42-54.8c2.09-6.46,4.34-14.54,6.08-22.47h0c.13-.61.27-1.21.39-1.82.58-2.78,1.09-5.53,1.5-8.16.91-5.9,1.31-11.24.84-15.12a30.32,30.32,0,0,0-.58-3.25c-.11-.47-.22-.93-.35-1.39-1.3-4.74-3.5-9.51-5.43-14.33-.22-.54-.43-1.09-.64-1.64-.55-1.43-1.06-2.87-1.51-4.32-.14-.46-.27-.91-.39-1.37a31.46,31.46,0,0,1-1.19-7,20.89,20.89,0,0,1,0-2.51c0-.46.08-.92.13-1.35a22.54,22.54,0,0,1,2.88-8.27l.21-.36c.18-.3.36-.59.55-.88l.33-.51c2.78-4.12,6.24-7.17,8.13-9.68,1.59-2.11,1.65-5.29,1.43-8.93s-.7-7.46-.32-11.27c.05-.49.11-1,.19-1.46s.22-1.16.37-1.73a12.6,12.6,0,0,1,2.25-4.81,8.48,8.48,0,0,1,1-1.1c3-2.57,7.3-2.6,12.38-2.92a23.42,23.42,0,0,0,4.94-.93c.58-.17,1.16-.36,1.74-.55a58.92,58.92,0,0,0,10.43-5l34.82-4.06s1.39,3.69,8.58,8.24c.4.26.82.52,1.25.77a72,72,0,0,0,12.59,5.71c1.45.52,2.78,1.05,4,1.61.54.24,1.06.49,1.57.74,5.89,2.95,9.15,6.39,10.84,10,.22.48.42,1,.59,1.44a16.07,16.07,0,0,1,.75,2.9,14,14,0,0,1,.19,1.45A34.66,34.66,0,0,1,1446.65,338.4Z" transform="translate(-1233.43 -208)"/><path class="cls-6" d="M1354.85,339.42c-.9,6.24-6.11,10.52-11.94,12.13-4.89,1.34-9.83.78-14.63-.5l.21-.36c.18-.3.36-.59.55-.88a26.72,26.72,0,0,0,12.18.68c6.2-1.28,11.93-5.65,12.34-12.37s-4-12.68-9.42-16a32.09,32.09,0,0,0-5.53-2.69c.05-.49.11-1,.19-1.46a30.39,30.39,0,0,1,8.38,4.53C1352.15,326.41,1355.8,333,1354.85,339.42Z" transform="translate(-1233.43 -208)"/><path class="cls-6" d="M1446.22,325.37c-2.83-.12-5.66-.12-8.51,0-13,.71-24.8,5.33-35.62,12.38s-20.34,16-30.42,24c-8.91,7.15-18.89,14.89-30.52,16.64a26.87,26.87,0,0,1-12.18-.94c-.22-.54-.43-1.09-.64-1.64,7.41,2.64,16.57,1,23.62-2.42,11.26-5.51,20.78-14.29,30.31-22.27,9-7.53,18.22-15,28.78-20.2a70.91,70.91,0,0,1,34.21-7.08l.38,0C1445.85,324.41,1446.05,324.89,1446.22,325.37Z" transform="translate(-1233.43 -208)"/><path class="cls-6" d="M1360.62,400.69a104.38,104.38,0,0,1-28,20.9c.13-.61.27-1.21.39-1.82a110,110,0,0,0,21.68-15.3c2.83-2.57,7.43-5.91,7.8-10,.79-8.79-18.41-4-22.89-2.8-1.63.44-3.25,1-4.83,1.53-.11-.47-.22-.93-.35-1.39,1.45-.52,2.92-1,4.41-1.4a66.59,66.59,0,0,1,10.46-2c3.2-.35,6.76-.79,9.93,0a5.75,5.75,0,0,1,4.69,4.69C1364.3,396.07,1362.54,398.64,1360.62,400.69Z" transform="translate(-1233.43 -208)"/><path class="cls-6" d="M1404.23,415.18c-5.81-2.83-12.08,0-17,3.41a64.71,64.71,0,0,0-13.78,13.32,67.66,67.66,0,0,0-13.76,34.81c-.08.91,1.34.91,1.42,0a66.15,66.15,0,0,1,12.15-32.18,64.73,64.73,0,0,1,11.91-12.61c4.89-3.94,11.88-8.65,18.3-5.52.82.4,1.54-.83.72-1.23Z" transform="translate(-1233.43 -208)"/><path class="cls-6" d="M1344.76,443.67c2.68-9.05,5.91-18.15,11.59-25.81a40.53,40.53,0,0,1,10-9.67,41,41,0,0,1,12.46-5.15c7.08-1.9,15.72-4.48,18-12.41,1.26-4.31.22-8.82.37-13.22a19.89,19.89,0,0,1,4-11.56,12.86,12.86,0,0,1,11.37-5.21c4.29.44,8.3,3,9.57,7.27.26.87,1.64.5,1.37-.38-1.88-6.3-9-9.42-15.18-8-7.46,1.65-11.86,9.46-12.52,16.58-.5,5.43,1.45,11.41-1.33,16.46-2.41,4.37-7.33,6.59-11.88,8-4.77,1.45-9.67,2.38-14.12,4.74a38.44,38.44,0,0,0-10.4,8.24c-7.57,8.38-11.55,19.15-14.71,29.81a.71.71,0,0,0,1.37.38Z" transform="translate(-1233.43 -208)"/><path class="cls-6" d="M1434.79,313.94a56.52,56.52,0,0,1-11,5c-3.81,1.24-10.45,2.87-11.14-2.95-.43-3.59.82-7.46,2.71-10.86.4.26.82.52,1.25.77a23.46,23.46,0,0,0-1.1,2.45c-.9,2.36-2.46,6.52-1,8.92,1.55,2.64,5.54,1.32,7.81.65a51,51,0,0,0,7.56-2.93q1.73-.84,3.39-1.77C1433.76,313.44,1434.28,313.69,1434.79,313.94Z" transform="translate(-1233.43 -208)"/><path class="cls-6" d="M1361.53,305.92c-1.89,4.35-4.12,8.35-9,9.6-4.36,1.12-8.11-.91-11.15-4.1a8.48,8.48,0,0,1,1-1.1c3.51,3.75,7.88,5.85,12.48,2.5a15.7,15.7,0,0,0,4.84-6.35C1360.37,306.3,1361,306.11,1361.53,305.92Z" transform="translate(-1233.43 -208)"/><path class="cls-6" d="M1363.71,319a5.94,5.94,0,0,0,2.87,6.78c3.32,2,7.86,1.5,11.54,1.25a72.47,72.47,0,0,0,25.3-6.55c.82-.38.1-1.6-.72-1.22a70.87,70.87,0,0,1-19.62,5.83,62.82,62.82,0,0,1-10.07.69c-3.52-.07-9.41-1.57-7.94-6.4.27-.87-1.1-1.25-1.36-.38Z" transform="translate(-1233.43 -208)"/><path class="cls-6" d="M1429.73,353.88a250.19,250.19,0,0,0-32.42,85c-.17.89,1.2,1.27,1.36.38A249.29,249.29,0,0,1,1431,354.6a.71.71,0,0,0-1.22-.72Z" transform="translate(-1233.43 -208)"/><path class="cls-4" d="M1364.26,249.77s-3.67-.11-4.92,4.44.16,12.57,5,12.18S1364.26,249.77,1364.26,249.77Z" transform="translate(-1233.43 -208)"/><path class="cls-7" d="M1368.86,268.13a6.44,6.44,0,1,0-6.88,6A6.46,6.46,0,0,0,1368.86,268.13ZM1367,268a4.56,4.56,0,1,1-4.22-4.87A4.56,4.56,0,0,1,1367,268Z" transform="translate(-1233.43 -208)"/><line class="cls-1" x1="139.39" y1="79.3" x2="139.39" y2="79.3"/><path class="cls-1" d="M1409.73,304.69s-7.75,11.2-21.55,11.56c-17.54.46-18.64-7.2-18.64-7.2a32.06,32.06,0,0,0,2.21-7c.19-.94.35-1.9.48-2.9a79.44,79.44,0,0,0,.58-9.22c0-.82,0-1.67,0-2.55v-.1c12.28-1.43,22.67-5.58,30.4-13.61l1.91-.85,1.3-.59.14.73-.49,2.19C1403.75,285.48,1405.09,294.4,1409.73,304.69Z" transform="translate(-1233.43 -208)"/><path class="cls-3" d="M1393.86,281.9c-3.19,5.41-10.22,14.8-21.63,17.27a79.44,79.44,0,0,0,.58-9.22c0-.82,0-1.67,0-2.55.23.06.47.11.71.15C1380,288.75,1387.45,286.22,1393.86,281.9Z" transform="translate(-1233.43 -208)"/><path class="cls-1" d="M1423,256.75c-.35,6.52-6.3,14.21-14.85,14h-.22c-.16.37-.34.73-.53,1.1-.08.16-.16.32-.25.47s0,0,0,.05c-5.91,10.79-22,16.46-30.59,16.23a19.18,19.18,0,0,1-5.72-1.06c-8.94-2.45-10-14.77-8.06-24a37.38,37.38,0,0,1,1-3.8,2.25,2.25,0,0,1,.08-.24s-2.33-13.24-2.74-19c-.77-11.12,6.17-22,30.53-22.92S1421,232,1422.26,240.07c.21,1.34-.48,9.25-1.87,10.46C1422.62,251.82,1423.09,254.56,1423,256.75Z" transform="translate(-1233.43 -208)"/><path class="cls-4" d="M1407.59,265.61a.88.88,0,0,0,.76-.67c1.51-6.07,9-8.33,9-8.35a.88.88,0,0,0-.49-1.7c-.35.11-8.51,2.56-10.26,9.63a.88.88,0,0,0,.64,1.07A1.1,1.1,0,0,0,1407.59,265.61Z" transform="translate(-1233.43 -208)"/><path class="cls-4" d="M1415.43,262.59a.75.75,0,0,0,.32-.1.88.88,0,0,0,.36-1.19,6.06,6.06,0,0,0-5.17-2.92.89.89,0,1,0,0,1.77,4.29,4.29,0,0,1,3.65,2A.87.87,0,0,0,1415.43,262.59Z" transform="translate(-1233.43 -208)"/><g class="cls-8"><path class="cls-4" d="M1367.79,261.88c-.07,1-2.24,1.62-5.06,1.6a37.38,37.38,0,0,1,1-3.8C1366.16,260.12,1367.86,261,1367.79,261.88Z" transform="translate(-1233.43 -208)"/></g><g class="cls-8"><path class="cls-4" d="M1382.85,262.82c-.08,1.1,2.61,2.19,6,2.43s6.2-.45,6.28-1.55-2.61-2.2-6-2.44S1382.93,261.71,1382.85,262.82Z" transform="translate(-1233.43 -208)"/></g><path class="cls-4" d="M1408.12,270.74h-.23c-.15.37-.33.73-.52,1.1-.08.16-.16.32-.25.47s0,0,0,.05a8,8,0,0,1-3.23-1.48,6.23,6.23,0,0,1-1.63-2,.88.88,0,1,1,1.55-.83,4.73,4.73,0,0,0,2,1.95,6.21,6.21,0,0,0,1.52.57C1407.61,270.66,1407.89,270.7,1408.12,270.74Z" transform="translate(-1233.43 -208)"/><path class="cls-7" d="M1406,270.42a8.53,8.53,0,0,0,1.85.4s0,.06,0,.09a4.56,4.56,0,1,0,5.58-4.11,1.28,1.28,0,0,1,.14-1.89,6.44,6.44,0,1,1-7.6,5.87C1406,270.66,1406,270.54,1406,270.42Z" transform="translate(-1233.43 -208)"/><path class="cls-7" d="M1381.94,267.45s-1,7.58-7.38,7.53-6.67-6.39-6.67-6.39Z" transform="translate(-1233.43 -208)"/><path class="cls-4" d="M1375.65,277.94a3.43,3.43,0,0,0,2-1,.58.58,0,0,0-.06-.82.57.57,0,0,0-.81.06,2.35,2.35,0,0,1-2.57.49.58.58,0,0,0-.4,1.09A3.75,3.75,0,0,0,1375.65,277.94Z" transform="translate(-1233.43 -208)"/><path class="cls-3" d="M1380.07,256.61a.9.9,0,0,0,.9-.58c.31-.82,1.29-2.56,2.3-2.66a4.72,4.72,0,0,1,3,1.27.89.89,0,0,0,1.26,0,.91.91,0,0,0,0-1.27c-.09-.08-2.09-2-4.37-1.76s-3.67,3.44-3.81,3.81a.9.9,0,0,0,.52,1.15A.82.82,0,0,0,1380.07,256.61Z" transform="translate(-1233.43 -208)"/><path class="cls-3" d="M1370.59,256.53a.74.74,0,0,0,.26,0,.9.9,0,0,0,.68-1.07c-.07-.31-.73-3-2.66-3.5a5,5,0,0,0-3.72.91.89.89,0,0,0-.2,1.25.88.88,0,0,0,1.24.2,3.33,3.33,0,0,1,2.26-.62c.64.15,1.18,1.48,1.33,2.16A.9.9,0,0,0,1370.59,256.53Z" transform="translate(-1233.43 -208)"/><path class="cls-5" d="M1416.18,226.05c-4.92-5.67-11.94-10.37-20.68-10.33-12.26.06-23.8,3.73-30.4,10a17.27,17.27,0,0,0-5.66,10.75c-1.34,12.67,1.53,10.34,1.53,10.34a15.62,15.62,0,0,1,.46-3h0c.31-1.61.84-4.09,1.71-7.89,2.1-9.06,31.28-8.56,29.08-2.76a10.7,10.7,0,0,0-.11,1.87,12.42,12.42,0,0,0,1,4.64l.66.15a26.24,26.24,0,0,1,7.17,2.77h0c.24.2,4.48,3.65,3.6,8.25s-3,10.88.32,9.87,4.6-4.83,4.6-4.83h0a15.26,15.26,0,0,1,7.31-4.94C1418.28,242.67,1419,234.14,1416.18,226.05Z" transform="translate(-1233.43 -208)"/><path class="cls-5" d="M1417.59,231.57c-8.56-3.46-22.93,2.24-25.47,3.5a12.42,12.42,0,0,0,1,4.64l.66.15a26.24,26.24,0,0,1,7.17,2.77h0c.24.2,4.48,3.65,3.6,8.25s-6.75,29.95-2,34.19c9.55,8.59,8.27-29.11,8.27-29.11h0c1.83-2,2.78-4.1,6-5C1420.41,244.42,1419.58,237.92,1417.59,231.57Z" transform="translate(-1233.43 -208)"/><path class="cls-5" d="M1415.67,231s4.86,7.87,1.08,20c0,0,4.27-.83,6.23,0s4.44-6.37,2.79-13.22S1415,222.18,1415,222.18,1414,228.65,1415.67,231Z" transform="translate(-1233.43 -208)"/><path class="cls-4" d="M1373.33,265.25a.71.71,0,0,1-.39-.12l-3.22-2.13a.71.71,0,0,1-.33-.65.73.73,0,0,1,.39-.62c2.71-1.4,4.41-3.7,5.38-7.22a.75.75,0,0,1,.91-.52.74.74,0,0,1,.52.91,12.3,12.3,0,0,1-5.06,7.52l2.22,1.47a.74.74,0,0,1,.21,1A.73.73,0,0,1,1373.33,265.25Z" transform="translate(-1233.43 -208)"/><path class="cls-7" d="M1411.75,254.8l.79-1a22.54,22.54,0,0,0-20.66-2.61l.49,1.3A21.75,21.75,0,0,1,1411.75,254.8Z" transform="translate(-1233.43 -208)"/><path class="cls-7" d="M1376.51,256.42l.83-1.1a4.53,4.53,0,0,0-5.55,0l.88,1.08A3.2,3.2,0,0,1,1376.51,256.42Z" transform="translate(-1233.43 -208)"/><path class="cls-3" d="M1385,265.35a8.82,8.82,0,1,0-8.82-8.82A8.83,8.83,0,0,0,1385,265.35Z" transform="translate(-1233.43 -208)"/><path class="cls-3" d="M1364.1,265.35a8.82,8.82,0,1,0-8.82-8.82A8.82,8.82,0,0,0,1364.1,265.35Z" transform="translate(-1233.43 -208)"/><path class="cls-3" d="M1381.67,244.48a1.8,1.8,0,0,1-1.05-3.37,5.22,5.22,0,0,1,3.63-.37,13,13,0,0,1,8.9,7.45s-6-3.42-9.47-3.73A10.1,10.1,0,0,0,1381.67,244.48Z" transform="translate(-1233.43 -208)"/><path class="cls-3" d="M1371.18,244.64a1.79,1.79,0,0,0,1.15-3.33,5.24,5.24,0,0,0-3.62-.49c-6.65,1.29-7.16,6-7.16,6a23.87,23.87,0,0,1,7.62-2.28A9.59,9.59,0,0,1,1371.18,244.64Z" transform="translate(-1233.43 -208)"/><path class="cls-1" d="M1449.9,330.05l1.92,4.83c.63,1.58,1.25,3.16,1.84,4.75,1.19,3.18,2.37,6.35,3.51,9.55,2.26,6.4,4.46,12.84,6.47,19.4s3.93,13.19,5.54,20.11c.81,3.46,1.56,7,2.18,10.7a79.34,79.34,0,0,1,1.23,12.14c0,1.15,0,2.38-.09,3.72a33.28,33.28,0,0,1-.61,4.51,25.41,25.41,0,0,1-.75,2.81,21.12,21.12,0,0,1-1.45,3.43,19.13,19.13,0,0,1-2.83,4,19.54,19.54,0,0,1-2.19,2l-.31.23-.22.16-.44.31c-.3.21-.58.38-.87.56a22.34,22.34,0,0,1-5.95,2.49,29.14,29.14,0,0,1-4.54.82,44.24,44.24,0,0,1-7.12.11,85.9,85.9,0,0,1-11.62-1.62c-3.62-.73-7.08-1.58-10.48-2.49s-6.73-1.9-10-2.93-6.53-2.14-9.73-3.37-6.34-2.56-9.43-4c-1.55-.72-3.09-1.49-4.61-2.28-.76-.4-1.52-.82-2.27-1.24-.38-.21-.76-.42-1.13-.65l-1.17-.69a9.65,9.65,0,0,1,5.93-17.9l.55.06c.75.08,1.6.2,2.39.32s1.62.24,2.42.38c1.61.27,3.21.56,4.81.86,3.19.61,6.36,1.27,9.5,1.95s6.26,1.39,9.36,2.09,6.18,1.34,9.23,1.9,6.08,1,9,1.37a61.42,61.42,0,0,0,8.11.47,14.79,14.79,0,0,0,2.79-.26c.28-.06.45-.14.33-.14a3.63,3.63,0,0,0-1.4.57c-.12.06-.21.13-.35.21l-.19.13-.28.21a10.22,10.22,0,0,0-2.73,3.15,8.32,8.32,0,0,0-.52,1.13,2.9,2.9,0,0,1-.16.4c0,.11,0-.11-.06-.41s0-.75-.09-1.24c-.11-1-.29-2.21-.53-3.49s-.52-2.64-.85-4c-.66-2.79-1.46-5.69-2.35-8.63-1.8-5.87-3.86-11.87-6.05-17.86s-4.51-12-6.93-18c-1.2-3-2.4-6-3.64-9l-1.85-4.46-1.84-4.36-.11-.26a16.58,16.58,0,0,1,30.54-12.91Z" transform="translate(-1233.43 -208)"/><path class="cls-1" d="M1395.55,403.05c2.51,4.92.27,10.89-4.56,13.56a25.67,25.67,0,0,0-6.88,5.16c-4,4.72-7.37,11.4-10,13.22-4,2.68-3.17-2.42-3-3a72.12,72.12,0,0,1,3.77-9.13s-6.83,8-8.06,11.9-4.7,5.32-5.65,1,4.74-14.68,7.1-17.12c0,0-5.48,3.83-7.33,9.11s-3.22,6.93-4.93,8.42-4.34-2.25-1.57-9.56,5.67-9.42,8.53-11.94a41.5,41.5,0,0,0-7.22,3.73c-4.31,2.69-6,9-9,9.29s-.87-6.82,2.12-10.22,4.87-6.11,10.05-8.68,10.22-4.83,13.69-5.62,15.44-5.22,20.12-3.13A6.38,6.38,0,0,1,1395.55,403.05Z" transform="translate(-1233.43 -208)"/><path class="cls-1" d="M1386.68,399.9s-15.32-.51-18.7.93-9.23,1.81-8.46,4.16,8,1.68,8,1.68Z" transform="translate(-1233.43 -208)"/><path class="cls-4" d="M1446.47,408.86l4.93-1.22c.86-.21,1.14,1.14.28,1.35l-4.93,1.22c-.86.21-1.14-1.14-.28-1.35Z" transform="translate(-1233.43 -208)"/><path class="cls-4" d="M1443.58,409.77a12.1,12.1,0,0,1,7.31,4,.74.74,0,0,0,1.1-1,13.71,13.71,0,0,0-8.32-4.49c-.94-.14-1,1.34-.09,1.48Z" transform="translate(-1233.43 -208)"/><path class="cls-1" d="M1478.18,853.78l-20.91,2.64c-11.19-39.38-37.9-108.87-63.2-196.78-2.63-6.63-4.8-12.67-6.69-18.53-4.59-14.24-7.53-27.41-11.41-45.25-1.17-5.36-2.41-11.12-3.81-17.47-3-13.37-5.16-24.88-6.66-33.25-.48-2.7-.89-5.07-1.23-7.07-.8-4.76-1.19-7.43-1.19-7.43-.18-3.23.75-7.19,2.46-11.41,8.49-21,36.43-48.63,45.75-27.71a365,365,0,0,1,17.17,47.29c3.46,12,6.18,23.56,8.32,34.34,1.32,6.66,2.46,13.21,3.46,19.51,2.46,15.61,4,29.68,4.89,40.12,1,11.39,1.28,18.44,1.28,18.44,7.73,27.88,15.24,82.39,18.17,105.74S1478.18,853.78,1478.18,853.78Z" transform="translate(-1233.43 -208)"/><path class="cls-4" d="M1407.11,662.73h-.35a1.32,1.32,0,0,1,0-2.64c.13,0,13.68-.25,23.9-6.72a1.33,1.33,0,0,1,1.82.41,1.31,1.31,0,0,1-.41,1.82C1422,662,1409.41,662.66,1407.11,662.73Z" transform="translate(-1233.43 -208)"/><path class="cls-1" d="M1365.73,537.94c0,2.42-.12,4.82-.23,7.2-.47,11.15-1.5,21.78-2.88,31.7-1,7-2.1,13.62-3.33,19.85a332,332,0,0,1-12.83,47.09c-2.2,6.13-3.67,9.49-3.67,9.49,16.75,28.84-11.66,90.36-16.15,113.45s-13.16,89.7-13.16,89.7l-25.2-1.33c7-101.51,7.64-200.72,7.64-200.72-.05-5.44,0-10.82.06-16.11.22-13.46.83-26.36,1.7-38.51.93-12.93,2.13-25,3.47-36,1.18-9.76,2.46-18.66,3.71-26.53,3.82-23.93,7.4-38.29,7.4-38.29,5-18.67,49.18-25.13,52,2.23q.95,9.16,1.29,18.06C1365.8,525.59,1365.85,531.84,1365.73,537.94Z" transform="translate(-1233.43 -208)"/><path class="cls-4" d="M1305.35,661.77c-4.94.16-7.26-1.43-7.4-1.53a1.32,1.32,0,0,1,1.51-2.16c.1.07,4.38,2.74,14.18-.66a1.31,1.31,0,0,1,1.67.82,1.3,1.3,0,0,1-.81,1.67A31,31,0,0,1,1305.35,661.77Z" transform="translate(-1233.43 -208)"/><path class="cls-9" d="M1465.61,618a141,141,0,0,1-13.78,4.87l-1.61.49c-4.73,1.41-10.46,2.95-17.06,4.4l-1.54.34c-2.86.61-5.88,1.21-9,1.77l-1.36.24a271.08,271.08,0,0,1-58.09,3.64l-1.61-.08c-3.64-.19-7.35-.45-11.12-.81l-1.67-.16a261.79,261.79,0,0,1-66-15.42c.16-1.48.32-2.95.49-4.42.07-.61.14-1.23.22-1.85q1.15-9.78,2.55-19.16h0c.1-.7.2-1.4.31-2.09q1-6.4,2-12.64c.14-.77.27-1.54.4-2.31q1.13-6.33,2.33-12.49c.19-1,.38-1.93.58-2.9,3-14.87,6.4-29,10.08-42.44.19-.72.39-1.43.59-2.13q1.65-6,3.37-11.75c.22-.77.45-1.53.68-2.29q1.71-5.73,3.49-11.3c.24-.74.48-1.49.71-2.22q3.62-11.2,7.38-21.82l.66-1.84c3.49-9.82,7.06-19.3,10.62-28.51,0,0,43.82,10.75,78.19.65,0,0,2.63,4.76,6.16,11.81l.75,1.51c2.54,5.14,5.46,11.32,8.16,17.7l.6,1.43c1.19,2.87,2.33,5.76,3.36,8.6l.18.51c.12.33.24.68.37,1.06,1.4,4.1,3.58,11.36,6.21,20.49.12.44.25.89.38,1.34,1,3.43,2,7.11,3.11,11,.13.45.26.9.38,1.35h0c3,10.87,6.41,23.1,9.73,35.27.12.47.25.93.38,1.4,1.17,4.31,2.33,8.6,3.47,12.82.15.53.29,1.06.43,1.59,1.72,6.33,3.36,12.47,4.9,18.2h0c.14.5.27,1,.41,1.49l1.71,6.42c.13.49.26,1,.39,1.45h0c1.16,4.35,2.23,8.33,3.16,11.82.14.55.29,1.08.42,1.6Z" transform="translate(-1233.43 -208)"/><path class="cls-10" d="M1336.32,446.78c-.55,10-10,15.53-18.39,18.68l.66-1.84c8-3.18,15.8-7.64,16.31-16.84C1335,445.87,1336.37,445.87,1336.32,446.78Z" transform="translate(-1233.43 -208)"/><path class="cls-10" d="M1348.23,451c-1.43,7.72-5.88,14.34-11.46,19.73-7.94,7.66-17.87,12.65-26.93,18.8.24-.74.48-1.49.71-2.22q2.54-1.68,5.12-3.28c12.94-8.06,28.17-17.11,31.2-33.41C1347,449.69,1348.4,450.07,1348.23,451Z" transform="translate(-1233.43 -208)"/><path class="cls-10" d="M1319.88,527.71l-28.83,34.6c.19-1,.38-1.93.58-2.9l7.3-8.76,15.72-18.86c2.71-3.26,5.68-6.43,8.13-9.9,2.07-2.95,3.84-8,.13-10.5-2.87-2-7.14-.77-10.21.13a35.26,35.26,0,0,0-8.7,3.91c-.79.48-1.55,1-2.29,1.54.19-.72.39-1.43.59-2.13a35.76,35.76,0,0,1,4-2.33c4.62-2.29,13.48-5.95,18.05-1.81C1330.16,515.93,1323.33,523.57,1319.88,527.71Z" transform="translate(-1233.43 -208)"/><path class="cls-10" d="M1350.39,632.85l-1.67-.16c-.27-.42-.53-.85-.79-1.28-3.59-6-6.11-12.71-10.24-18.43a27.22,27.22,0,0,0-19.18-11.42c-13-1.61-24.7,4.29-35.31,11.29.07-.61.14-1.23.22-1.85a82.09,82.09,0,0,1,15.06-8c13.13-5.08,29.21-4.41,38.76,7.1C1342.55,616.48,1345.66,625.51,1350.39,632.85Z" transform="translate(-1233.43 -208)"/><path class="cls-10" d="M1462.06,604.62a46.31,46.31,0,0,0-10.23,18.24l-1.61.49c.26-.94.54-1.87.85-2.78A47.66,47.66,0,0,1,1461.64,603C1461.78,603.57,1461.93,604.1,1462.06,604.62Z" transform="translate(-1233.43 -208)"/><path class="cls-10" d="M1422.57,629.86l-1.36.24a13.6,13.6,0,0,0,0-3.06c-.38-3.67-2.85-7.71-6.71-8.4-3.57-.63-6.82,1.7-10,2.89a22.62,22.62,0,0,1-9.91,1.3c-7-.63-11.6-4.82-17.37-8.21-3.19-1.87-7.26-3.33-10.92-2-3.14,1.16-4.92,4.24-5.56,7.38a21,21,0,0,0,2.36,13.71l-1.61-.08c-2.4-4.95-3.42-10.61-1.63-15.8,2.34-6.76,9.1-8.48,15.34-5.85,3.92,1.65,7.09,4.56,10.76,6.65a21.69,21.69,0,0,0,14.35,2.54c6.56-1.14,13.68-7.6,19.43-1A12.13,12.13,0,0,1,1422.57,629.86Z" transform="translate(-1233.43 -208)"/><path class="cls-10" d="M1458.48,591.19h0a63.63,63.63,0,0,0-25.32,36.55l-1.54.34a65.09,65.09,0,0,1,26.47-38.35C1458.22,590.23,1458.35,590.72,1458.48,591.19Z" transform="translate(-1233.43 -208)"/><path class="cls-10" d="M1451.07,563.62a49.32,49.32,0,0,1-12.21,9.11,51.62,51.62,0,0,1-40.09,3.21c-12.68-4.19-23.56-12.22-35.45-18.09a60.84,60.84,0,0,0-19.39-6.29,49.31,49.31,0,0,0-23.32,3.29c-12.42,4.72-22.7,13.22-32.29,22.26.14-.77.27-1.54.4-2.31,9.89-9.18,20.58-17.63,33.48-22a50,50,0,0,1,21.37-2.66,58.43,58.43,0,0,1,17.57,5.15c12.2,5.55,23.06,13.77,35.66,18.49a50.55,50.55,0,0,0,42.39-2.79,48.07,48.07,0,0,0,11.45-8.92C1450.79,562.56,1450.93,563.09,1451.07,563.62Z" transform="translate(-1233.43 -208)"/><path class="cls-10" d="M1447.17,549.21a41.76,41.76,0,0,1-15.24,6.09c-5.83,1-11.78-.63-14.87-6-2.77-4.81-2.75-11-1-16.15,3.49-10.08,11.61-16.81,20.6-22,.13.45.26.9.38,1.35h0a56.2,56.2,0,0,0-10.46,7.55c-5.45,5.1-10.12,12.07-10.31,19.77-.2,8.16,4.77,14.88,13.48,14.28,5.9-.41,11.83-3,17-6.33C1446.91,548.28,1447,548.74,1447.17,549.21Z" transform="translate(-1233.43 -208)"/><path class="cls-10" d="M1423.07,468.21a30,30,0,0,1-8.43,6c-9.7,4.62-20.65,4.68-31.17,4.6-10.84-.09-21.46.48-32.06,2.89a119.25,119.25,0,0,0-45.74,21.44c.22-.77.45-1.53.68-2.29a117.57,117.57,0,0,1,16.23-10.1,122.62,122.62,0,0,1,56.79-13.39c11,0,22.45.65,32.85-3.62a30.23,30.23,0,0,0,10.25-6.91Z" transform="translate(-1233.43 -208)"/><path class="cls-10" d="M1414.31,449.08a35.78,35.78,0,0,1-7.84,9.17c-10.29,8.61-24.2,11.53-37.26,12.55-5,.39-11-.51-12.51-6.19-1.61-6.13,2.83-11.28,6.73-15.4.63-.66,1.63.34,1,1-2.7,2.84-5.7,5.94-6.45,9.94-.79,4.16,1.2,8,5.45,9,3.27.77,6.86.17,10.13-.23a96.46,96.46,0,0,0,11.7-2.07c11.32-2.8,22.66-9,28.3-19.28Z" transform="translate(-1233.43 -208)"/><path class="cls-10" d="M1363.54,527.82c-6.61,5.15-16,8.87-23.73,3.62-7.88-5.38-5.34-15.73-.75-22.41a42.94,42.94,0,0,1,20.4-15.8,11.51,11.51,0,0,1,10.83.59,13.65,13.65,0,0,1,6.44,10.83C1377.62,514.3,1370.67,522.28,1363.54,527.82Zm11.83-22.44c-.24-4.06-2-8-5.53-10.17a10.21,10.21,0,0,0-8.58-1.18.88.88,0,0,1-.27.16c-.31.11-.62.21-.93.33s-.43.22-.64.35a.63.63,0,0,1-.49.08,41.42,41.42,0,0,0-18.65,14.79c-4.39,6.4-7,16.61,1.33,21.14,7.71,4.19,16.21-.12,22.28-5.16S1375.85,513.78,1375.37,505.38Z" transform="translate(-1233.43 -208)"/><path class="cls-10" d="M1405.25,561.13c-2,2.25-5.34,2.22-8,1.74a38.52,38.52,0,0,1-18.43-9.33c-3.81-3.4-11.4-10.9-7.48-16.5,1.84-2.63,5.26-2.25,8-1.66a39.3,39.3,0,0,1,9.73,3.5,40.05,40.05,0,0,1,14.34,11.67c.28.44.51.65.72,1C1405.81,554.36,1407.81,558.18,1405.25,561.13Zm-1.13-6.7c-.15-.21-.55-.93-.7-1.15a37.93,37.93,0,0,0-15.73-13.51,34.88,34.88,0,0,0-10.09-3.27c-2.55-.38-5.19.16-5.81,3-.5,2.31.88,4.57,2.12,6.39a38.2,38.2,0,0,0,15.72,13c3.11,1.42,6.82,2.82,10.28,2.79,2.14,0,4.51-.72,5.06-3.1A6.08,6.08,0,0,0,1404.12,554.43Z" transform="translate(-1233.43 -208)"/><path class="cls-10" d="M1433.57,500.21c-6.06,3.46-11,9.23-16.57,13.31-5.78,4.24-14,7.51-20.94,3.91-5.46-2.85-8.66-10-5-15.47,2-3,5.39-4.83,8.49-6.52,4.1-2.25,8.31-4.29,12.37-6.63,5.44-3.14,10.72-7,14.47-12l.18.51c.12.33.24.68.37,1.06a44.53,44.53,0,0,1-11,9.68c-3.58,2.29-7.36,4.24-11.13,6.21-3.53,1.85-7.36,3.58-10.41,6.18-7.66,6.51-1.11,16.68,7.59,17.05s15.48-5.94,21.5-11.31a55.61,55.61,0,0,1,9.7-7.32C1433.31,499.31,1433.44,499.76,1433.57,500.21Z" transform="translate(-1233.43 -208)"/><path class="cls-10" d="M1456.38,583.32a104.39,104.39,0,0,1-8.88,6,62.09,62.09,0,0,1-18.2,7.67c-7.28,1.6-15.14,1.28-22.5.5-16.28-1.73-31.87-7.67-46.65-14.45-8-3.66-16-7.76-24.71-9.21s-17.65.05-25.82,3.23c-8.82,3.42-16.54,8.72-23.65,14.81.1-.7.2-1.4.31-2.09,7.57-6.31,15.82-11.69,25.29-14.94A50,50,0,0,1,1335,572.3c8.33,1.24,16,4.9,23.57,8.41,15.27,7.1,31.38,13.54,48.25,15.33,7.63.81,15.82,1.15,23.32-.74a65.18,65.18,0,0,0,19.09-8.74c2.3-1.48,4.56-3.06,6.76-4.73C1456.11,582.33,1456.24,582.83,1456.38,583.32Z" transform="translate(-1233.43 -208)"/><path class="cls-10" d="M1329.21,435.12s-6,4.78-4.16,14.05c0,0,42.43,12.44,88.22-2.17.24-1.6-.1-11-6.07-13.6C1407.2,433.4,1374.09,444,1329.21,435.12Z" transform="translate(-1233.43 -208)"/><path class="cls-3" d="M1449.8,887c0,.2,0,.4,0,.59,0,.89,0,1.7.07,2.39.07,1.51.17,2.45.17,2.45l50.37.55a27.77,27.77,0,0,0,.11-4.84c-.28-5.15-1.9-13.3-8.79-18.74-9.44-7.47-5.79-5.89-7.7-9.27-.22-.38-1.87-6.1-2-6.49-1.6-3.5-3.09-5.17-12.11-5.27-12-.13-13.08,5.67-14.4,8.71a58.6,58.6,0,0,0-2.07,7.09c-.31,1.27-.63,2.63-.94,4-.77,3.46-1.5,7.08-2,10A51.59,51.59,0,0,0,1449.8,887Z" transform="translate(-1233.43 -208)"/><path class="cls-6" d="M1449.8,887c0,.2,0,.4,0,.59,0,.89,0,1.7.07,2.39a14,14,0,0,0,5.3-6.73c3.21-8.45-1.47-18.69-1.66-19.13l-.11.05c-.31,1.27-.63,2.63-.94,4,1.1,3.48,2.34,9.32.47,14.23A11.67,11.67,0,0,1,1449.8,887Z" transform="translate(-1233.43 -208)"/><path class="cls-6" d="M1449.81,887.61c0,2.86.24,4.84.24,4.84l50.37.55a27.77,27.77,0,0,0,.11-4.84Z" transform="translate(-1233.43 -208)"/><path class="cls-7" d="M1468.05,864.08a1.49,1.49,0,0,0,.36-.05,25,25,0,0,1,11.68-.11,1.44,1.44,0,1,0,.79-2.76,27.49,27.49,0,0,0-13.16.09,1.43,1.43,0,0,0-1,1.73A1.45,1.45,0,0,0,1468.05,864.08Z" transform="translate(-1233.43 -208)"/><path class="cls-7" d="M1467,859a1.53,1.53,0,0,0,.36,0,24.83,24.83,0,0,1,11.68-.11,1.44,1.44,0,0,0,.79-2.76,27.56,27.56,0,0,0-13.16.08A1.44,1.44,0,0,0,1467,859Z" transform="translate(-1233.43 -208)"/><path class="cls-7" d="M1470.15,868.65a1.47,1.47,0,0,0,.36,0,25,25,0,0,1,11.68-.11,1.44,1.44,0,0,0,.8-2.77,27.68,27.68,0,0,0-13.17.09,1.44,1.44,0,0,0,.33,2.83Z" transform="translate(-1233.43 -208)"/><path class="cls-7" d="M1472.63,873.85a1.47,1.47,0,0,0,.36,0,25,25,0,0,1,11.68-.11,1.44,1.44,0,0,0,.79-2.76,27.56,27.56,0,0,0-13.16.08,1.44,1.44,0,0,0,.33,2.83Z" transform="translate(-1233.43 -208)"/><path class="cls-3" d="M1234.27,892.3l84.56,0a11.77,11.77,0,0,0,1.11-4.7c.53-7.15-1.75-18.56-2.86-25.76-.14-.84-.25-1.63-.35-2.34a25.91,25.91,0,0,1-.25-2.94c0-5.87-5.19-4.86-5.19-4.86-8.56,8.38-18.25-4.2-23.91-.08,0,0-2.43,1.75-9.15,7.79s-18.13,10-27.85,14.09c-12.55,5.24-16.11,10.48-16.81,14.09A6.57,6.57,0,0,0,1234.27,892.3Z" transform="translate(-1233.43 -208)"/><path class="cls-6" d="M1234.27,892.3l84.56,0a11.77,11.77,0,0,0,1.11-4.7h-86.37A6.57,6.57,0,0,0,1234.27,892.3Z" transform="translate(-1233.43 -208)"/><path class="cls-6" d="M1310.2,892.32h2.51a18.54,18.54,0,0,1-4.54-13.54c.41-8.36,5.42-14,8.91-16.92-.14-.84-.25-1.63-.35-2.34-3.75,2.87-10.08,9.15-10.58,19.16A20.54,20.54,0,0,0,1310.2,892.32Z" transform="translate(-1233.43 -208)"/><path class="cls-7" d="M1279.66,864.42a1.4,1.4,0,0,0,.34-2.75l-5.28-1.31a1.39,1.39,0,0,0-.68,2.7l5.29,1.32A1.86,1.86,0,0,0,1279.66,864.42Z" transform="translate(-1233.43 -208)"/><path class="cls-7" d="M1284.85,859.94a1.38,1.38,0,0,0,1.35-1.06,1.4,1.4,0,0,0-1-1.69l-5.28-1.31a1.4,1.4,0,0,0-.68,2.71l5.29,1.31A1.24,1.24,0,0,0,1284.85,859.94Z" transform="translate(-1233.43 -208)"/><path class="cls-7" d="M1274.38,867.49a1.4,1.4,0,0,0,.34-2.75l-5.29-1.31a1.39,1.39,0,1,0-.67,2.7l5.28,1.32A2.09,2.09,0,0,0,1274.38,867.49Z" transform="translate(-1233.43 -208)"/><path class="cls-7" d="M1269.1,870.44a1.4,1.4,0,0,0,.33-2.75l-5.28-1.31a1.39,1.39,0,1,0-.67,2.7l5.28,1.32A2,2,0,0,0,1269.1,870.44Z" transform="translate(-1233.43 -208)"/><path class="cls-7" d="M1263.34,873.17a1.4,1.4,0,0,0,.33-2.75l-5.28-1.31a1.39,1.39,0,1,0-.67,2.7l5.28,1.31A1.33,1.33,0,0,0,1263.34,873.17Z" transform="translate(-1233.43 -208)"/><path class="cls-7" d="M1257.09,875.49a1.39,1.39,0,0,0,.34-2.74l-5.29-1.32a1.4,1.4,0,0,0-.67,2.71l5.28,1.31A1.37,1.37,0,0,0,1257.09,875.49Z" transform="translate(-1233.43 -208)"/><path class="cls-3" d="M1455,436a263.77,263.77,0,0,1,15.56,36.23,1.18,1.18,0,0,1-.74,1.48,1.19,1.19,0,0,1-.37.06,1.18,1.18,0,0,1-1.11-.8,270,270,0,0,0-15.74-36.41A6.43,6.43,0,0,0,1455,436Z" transform="translate(-1233.43 -208)"/><path class="cls-3" d="M1421.18,403.63a16.16,16.16,0,0,1,7.12,1.28,19.27,19.27,0,0,0-2.74-.13,1,1,0,0,0-.86,1.43,13.91,13.91,0,0,0-2.63-.28l-.75,0c-23.78,1.42-30.26,66.06-30.33,66.71a1.17,1.17,0,0,1-2.32-.22C1388.94,469.7,1395.43,405.17,1421.18,403.63Z" transform="translate(-1233.43 -208)"/><polygon class="cls-11" points="110.93 367.91 281.44 367.91 259.9 254.04 138.85 254.04 110.93 367.91"/><polygon class="cls-12" points="132.99 367.9 289.35 367.9 259.9 254.04 138.85 254.04 132.99 367.9"/><path class="cls-13" d="M1377,565.5a.92.92,0,0,0,.27.68.88.88,0,0,0,.67.29h133.72a.92.92,0,0,0,.91-1.15L1487.84,462h-1.92l24.58,102.57H1378.93l4.5-102.57h-1.86Z" transform="translate(-1233.43 -208)"/><path class="cls-13" d="M1476.71,502.68c-.16-10.39-7-16.24-15.84-16.1s-15.49,6.18-15.33,16.57,7,16.24,15.83,16.1S1476.87,513.15,1476.71,502.68Zm-50.25-14.74-14.16.21,40.93,58,14.16-.21Zm31,15c-.09-5.61,1.73-7.32,3.57-7.34s3.72,1.62,3.8,7.23-1.73,7.31-3.58,7.34S1457.52,508.58,1457.44,503Zm-23.29,28c-.16-10.39-7-16.24-15.83-16.1s-15.49,6.18-15.33,16.57,6.94,16.24,15.83,16.1S1434.31,541.45,1434.15,531Zm-19.27.29c-.08-5.61,1.73-7.32,3.58-7.34s3.7,1.62,3.79,7.23-1.73,7.32-3.57,7.34S1415,536.89,1414.88,531.27Z" transform="translate(-1233.43 -208)"/><circle class="cls-11" cx="244.33" cy="264.56" r="3.49"/><circle class="cls-11" cx="164.77" cy="264.56" r="3.49"/><path class="cls-3" d="M1462.07,433.78h0a259,259,0,0,1,16.76,38.42,1.17,1.17,0,0,1-.73,1.48,1.24,1.24,0,0,1-.37.06,1.17,1.17,0,0,1-1.11-.8A267.79,267.79,0,0,0,1460,434.81,10.8,10.8,0,0,1,1462.07,433.78Z" transform="translate(-1233.43 -208)"/><path class="cls-3" d="M1429.55,403.63c4.49-.27,8.88,1.58,13.09,4.81a38.79,38.79,0,0,1-3.89.08,15.67,15.67,0,0,0-9.06-2.56c-23.78,1.42-30.27,66.06-30.33,66.71a1.17,1.17,0,0,1-2.32-.22C1397.3,469.7,1403.79,405.17,1429.55,403.63Z" transform="translate(-1233.43 -208)"/></svg>