<svg id="Capa_1" data-name="Capa 1" xmlns="http://www.w3.org/2000/svg" viewBox="0 0 417.17 295.17"><defs><style>.cls-1{fill:#ac5e2e;}.cls-2{fill:#9e5528;}.cls-3{fill:#f8f6f6;}.cls-4{fill:#ebebeb;}.cls-5{fill:#dc8758;}.cls-6{fill:#c86d36;}.cls-7{fill:#5a5a5a;}.cls-8{fill:#444;}</style></defs><path class="cls-1" d="M176.44,123.13c-5-3.61-11.35-5.83-19.35-6-22.6-.53-46.94,22.16-58.68,39.72C71.84,196.57,52.72,243.22,55.1,291c.53,10.75,2.23,21.7,7.29,31.2s14,17.43,24.58,19.19c6.09,1,12.38,0,18.24-2,15.72-5.16,28.84-16.54,38.66-29.86,25.81-35.06,41-84.3,47.58-126.38,3.15-20.06,1.72-47.9-15-60Z" transform="translate(-47.42 -108.42)"/><path class="cls-1" d="M335.56,123.13c5-3.61,11.35-5.83,19.35-6,22.6-.53,46.95,22.16,58.68,39.72,26.57,39.74,45.69,86.39,43.31,134.13-.53,10.75-2.23,21.7-7.29,31.2s-14,17.43-24.58,19.19c-6.09,1-12.37,0-18.24-2-15.72-5.16-28.84-16.54-38.65-29.86-25.82-35.06-41-84.3-47.59-126.38-3.15-20.06-1.72-47.9,15-60Z" transform="translate(-47.42 -108.42)"/><path class="cls-2" d="M456.91,291c-.54,10.77-2.24,21.71-7.3,31.21S435.66,339.59,425,341.35a37.39,37.39,0,0,1-16.81-1.52c8.16-3.14,14.9-9.87,19-17.67,5.06-9.5,6.76-20.44,7.3-31.21,2.37-47.73-16.75-94.38-43.32-134.12-9.72-14.53-28.06-32.58-46.92-38.06a38.52,38.52,0,0,1,10.58-1.66c22.6-.53,46.94,22.16,58.68,39.72C440.16,196.57,459.27,243.22,456.91,291Z" transform="translate(-47.42 -108.42)"/><path class="cls-3" d="M341.2,156.61c-18-22.38-55.27-41.72-85.2-40.67-29.93-1-67.23,18.29-85.2,40.67C136.7,199.1,115.1,267.43,134,320.41c17.75,49.79,70.8,77,122,75.46,51.22,1.56,104.27-25.67,122-75.46,18.89-53-2.72-121.31-36.82-163.8Z" transform="translate(-47.42 -108.42)"/><path class="cls-4" d="M378,320.41c-17.75,49.8-70.8,77-122,75.46-3.62.11-7.26.08-10.88-.11,47.67-2.3,94.64-29.08,111.13-75.35,18.89-53-2.71-121.31-36.81-163.8-15.84-19.73-46.72-37.1-74.32-40.21a72.92,72.92,0,0,1,10.88-.46c29.93-1.06,67.23,18.29,85.2,40.67,34.1,42.49,55.7,110.82,36.82,163.8Z" transform="translate(-47.42 -108.42)"/><path class="cls-5" d="M219.73,259.29c-20.07,27.41-56.56,49.06-89.3,49.06-12.05-50.94,8.81-112.41,40.37-151.74,15.85-19.73,46.72-37.11,74.3-40.22.11,1.94.24,3.89.31,5.83,2.17,57.06,3.73,96.92-25.68,137.07Z" transform="translate(-47.42 -108.42)"/><path class="cls-6" d="M219.72,259.29c-20.06,27.41-56.55,49.06-89.29,49.06q-1.35-5.67-2.15-11.52c28.68-5,58-24.25,75.24-47.79,28.09-38.35,27.93-76.45,26-129.51a97.24,97.24,0,0,1,15.61-3.14c.11,1.94.24,3.88.31,5.83,2.18,57.06,3.72,96.92-25.69,137.07Z" transform="translate(-47.42 -108.42)"/><path class="cls-5" d="M335.78,373.5c.54.8-21.12,11.41-23.12,12.22a138.19,138.19,0,0,1-25.26,7.54A160.41,160.41,0,0,1,215,391c-3.35-.91-40.18-15.42-38.77-17.5a216.45,216.45,0,0,0,12.42-21.35c7.29-13.93,14.48-28.57,25.62-39.89A51.89,51.89,0,0,1,233,299.68c17.79-6.61,42.59-4.88,58,6.63,15.16,11.34,23.81,29.48,32.38,45.84a213.26,213.26,0,0,0,12.41,21.35Z" transform="translate(-47.42 -108.42)"/><path class="cls-6" d="M335.78,373.5a127.09,127.09,0,0,1-12.52,7.36l-1.5.76c-2.39,1.16-4.72,2.32-7.18,3.3-2.09.83-4.13,1.68-6.23,2.47a138.87,138.87,0,0,1-15.66,4.72c-2.28.55-4.57,1-6.87,1.44-2.55.47-5.08.87-7.64,1.21-3.67.49-7.26.79-11,1s-7.48.23-11.21.12c-2.39.07-4.87.07-7.22,0-.67,0-1.32,0-2-.06l-1.68-.08c30.82-1.49,61.35-13.21,83.54-33.82C330.89,365.87,333.24,369.78,335.78,373.5Z" transform="translate(-47.42 -108.42)"/><ellipse class="cls-7" cx="208.58" cy="183.29" rx="21.76" ry="16.64"/><path class="cls-8" d="M277.76,291.71c0,9.19-9.74,16.64-21.76,16.64-8.58,0-16-3.8-19.55-9.32a28,28,0,0,0,4.24.32c12,0,21.76-7.45,21.76-16.64a13.47,13.47,0,0,0-2.22-7.32C270.23,276.9,277.76,283.63,277.76,291.71Z" transform="translate(-47.42 -108.42)"/><path d="M280.52,329.43a7.49,7.49,0,0,0-7.48,7.49v5.77a4.67,4.67,0,0,1-9.34,0v-5.77c0-6.47-8.41-9.79-13-5.47a7.51,7.51,0,0,0-2.37,5.47v5.78a4.67,4.67,0,0,1-9.34,0v-5.78a7.49,7.49,0,1,0-15,0v5.78a19.63,19.63,0,0,0,32,15.23,19.63,19.63,0,0,0,32-15.23v-5.78a7.49,7.49,0,0,0-7.49-7.49Z" transform="translate(-47.42 -108.42)"/><path d="M206.86,236.31V222.53a7.49,7.49,0,1,0-15,0v13.78a7.49,7.49,0,0,0,15,0Z" transform="translate(-47.42 -108.42)"/><path d="M312.63,215a7.49,7.49,0,0,0-7.49,7.49v13.78a7.49,7.49,0,1,0,15,0V222.53A7.5,7.5,0,0,0,312.63,215Z" transform="translate(-47.42 -108.42)"/><path d="M419.82,152.67A7.49,7.49,0,1,0,407.37,161c29.53,44.18,44.07,89,42.05,129.6-.59,12-2.63,20.94-6.42,28.05-4.44,8.34-11.62,14.07-19.19,15.32-4.22.7-9.15.13-14.68-1.69a64.23,64.23,0,0,1-22.67-13.54c8-25.32,8.1-54.93.28-86-7.42-29.46-21.52-58.16-39.7-80.82a100.17,100.17,0,0,0-14.3-14.31,25.5,25.5,0,0,1,7.21-8.43c4-2.9,9.11-4.45,15.13-4.59,11.34-.26,22.8,6.85,30.44,12.88a7.49,7.49,0,0,0,9.27-11.76c-13.72-10.82-27.57-16.39-40.06-16.09-9.11.21-17,2.72-23.56,7.43a40.06,40.06,0,0,0-10.65,11.66c-20-12.84-44.27-20.91-64.52-20.27-20.24-.64-44.51,7.43-64.53,20.28a39.8,39.8,0,0,0-10.64-11.67c-6.52-4.71-14.45-7.22-23.56-7.43-24.57-.59-51,21.9-65.08,43-31.34,46.87-46.75,94.82-44.57,138.66.71,14.32,3.31,25.23,8.17,34.35,6.62,12.43,17.82,21.05,30,23.06a37.68,37.68,0,0,0,6.07.48,50.65,50.65,0,0,0,15.73-2.72,77,77,0,0,0,23.77-13.06c9.87,20.64,26,37.93,47.33,50.42,2,1.17,4,2.27,6.1,3.34l14.73,6.59a146.88,146.88,0,0,0,40.26,9.12c24.59,2,49.69-.48,72.75-9.14l14.78-6.56c2.05-1.07,4.08-2.18,6.08-3.35,21.29-12.49,37.47-29.79,47.33-50.44h0a77.08,77.08,0,0,0,23.77,13.08,50.65,50.65,0,0,0,15.73,2.72,36.57,36.57,0,0,0,6.07-.49c12.14-2,23.34-10.62,30-23.05,4.86-9.12,7.45-20,8.16-34.35C466.56,247.49,451.15,199.54,419.82,152.67ZM125.54,318.73a64.23,64.23,0,0,1-22.67,13.54c-5.53,1.82-10.47,2.39-14.68,1.69-7.57-1.25-14.74-7-19.19-15.32-3.78-7.1-5.83-16-6.42-28.05C60.56,250,75.1,205.17,104.63,161c11.88-17.76,33.92-36.4,51.69-36.4h.6c6,.14,11.11,1.69,15.13,4.59a25.37,25.37,0,0,1,7.22,8.42A99.8,99.8,0,0,0,165,151.93c-18.18,22.66-32.28,51.36-39.7,80.82C117.45,263.8,117.56,293.41,125.54,318.73Zm10.88-18.41c-.55-3.08-1-6.22-1.29-9.41h0c-1.7-16.93-.16-35.37,4.66-54.52,6.9-27.41,20-54.08,36.86-75.1C190.41,144.14,215.32,130,238,125.16c2.1,55.33,3.09,92.26-24.34,129.71-18.16,24.81-49.76,43.28-77.22,45.72A2.56,2.56,0,0,1,136.42,300.32ZM300.59,382a158.46,158.46,0,0,1-44.36,6.55,141.82,141.82,0,0,1-35.88-3.88,127,127,0,0,1-33.73-13.48c3.17-5.21,6-10.49,8.65-15.54,6.94-13.28,13.67-27.29,24.32-38.11a45.73,45.73,0,0,1,14.25-10.08,33.43,33.43,0,0,0,44.18.14,39.19,39.19,0,0,1,8.48,4.73c6.58,4.93,11.81,11.39,16.29,18.23,8.62,13.16,14.42,27.17,22.59,40.63C325.94,372.08,302.75,381.31,300.59,382Zm-58.86-90.26c0-4.88,6.67-9.15,14.27-9.15s14.28,4.27,14.28,9.15-6.68,9.15-14.28,9.15S241.73,296.59,241.73,291.71ZM371,317.9c-6.29,17.64-17.63,32.94-33.13,44.89-2.83-4.69-9.16-16.63-9.82-17.91-8-15.5-17.18-33.07-32.55-44.56h0a52.14,52.14,0,0,0-10.4-6,19,19,0,0,0,.18-2.62c0-13.3-13.12-24.13-29.25-24.13s-29.25,10.83-29.25,24.13a19.57,19.57,0,0,0,.15,2.43,61,61,0,0,0-18,12.87c-11.06,11.23-18.25,25.05-25.22,38.41,0,0-6.71,12.68-9.54,17.38A98.2,98.2,0,0,1,141,317.9c-.31-.87-.58-1.75-.87-2.64,31.24-3.58,65.28-23.77,85.61-51.54,30.68-41.9,29.35-83.29,27.18-140.32a96.56,96.56,0,0,1,32.68,5,121.38,121.38,0,0,1,31.47,16.08,95.8,95.8,0,0,1,14.36,12.38c12.1,12.83,21.37,29.09,28.64,45.07a203.78,203.78,0,0,1,12.12,34.5C379.74,266.31,379.31,294.49,371,317.9Z" transform="translate(-47.42 -108.42)"/></svg>