<svg id="Capa_1" data-name="Capa 1" xmlns="http://www.w3.org/2000/svg" viewBox="0 0 964.67 1075.55"><defs><style>.cls-1{fill:#e5f7e9;}</style></defs><path class="cls-1" d="M477.83,779.5c7.63,135.51,192,246.19,338,281.53,57,13.8,256,51.89,398.49-68.57,23.32-19.71,103-87.08,104.06-178.27.58-49.52-22.53-62.58-79.86-186.34-45-97.09-67.45-145.64-74.21-198.44-11.29-88.28,17.87-107.26,8.07-223.45-6.27-74.31-9.45-111.44-35.5-142.78C1073.65-12.9,908.53-19.61,828.73,53.5c-72.19,66.14-15,148.85-101.64,272.65C682,390.57,664.83,371.05,605.28,452.8,593.82,468.54,538.22,546.46,502,667.37,484.91,724.57,476.35,753.17,477.83,779.5Z" transform="translate(-477.66 -2.22)"/><path class="cls-1" d="M1353.06,438.28c40.3,2.3,69.27-56.2,72.6-62.92,2.6-5.26,38.61-80.64-4-125.84-16.36-17.33-44-30-71-24.2-44.34,9.47-63.64,63.68-65.34,99.22C1282.91,374.42,1312.87,436,1353.06,438.28Z" transform="translate(-477.66 -2.22)"/></svg>